<svg width="625" height="135" viewBox="0 0 625 135" fill="none" xmlns="http://www.w3.org/2000/svg">
<g clip-path="url(#clip0_1_6694)">
<path d="M4.12199 54.2289C6.77916 49.3442 10.7644 45.3111 15.617 42.5959C20.7283 39.7679 26.4923 38.3307 32.333 38.4279C39.3529 38.2367 46.2406 40.3613 51.933 44.4739C57.3819 48.5259 61.2387 54.3592 62.833 60.9599H45.613C44.4544 58.4135 42.5556 56.2753 40.164 54.8239C37.7369 53.3985 34.9643 52.6688 32.15 52.7149C29.9454 52.6382 27.751 53.0501 25.7243 53.9211C23.6976 54.7921 21.8886 56.1006 20.427 57.7529C17.4337 61.1095 15.937 65.5979 15.937 71.2179C15.937 76.8379 17.4333 81.3259 20.426 84.6819C21.8874 86.3344 23.6964 87.6431 25.7231 88.5141C27.7499 89.3851 29.9443 89.7969 32.149 89.7199C34.9633 89.766 37.7359 89.0363 40.163 87.6109C42.5555 86.1597 44.4546 84.0205 45.612 81.4729H62.834C61.2475 88.0644 57.388 93.8856 51.934 97.9129C46.2307 101.999 39.3471 104.106 32.334 103.913C26.4935 104.013 20.729 102.578 15.617 99.7519C10.7734 97.0458 6.78975 93.0306 4.12199 88.1659C1.41354 82.9199 0.000244141 77.1018 0.000244141 71.1979C0.000244141 65.294 1.41354 59.4749 4.12199 54.2289Z" fill="#082930"/>
<path d="M112.474 92.0999H88.474L84.632 103.458H68.232L91.499 39.1589H109.635L132.899 103.458H116.322L112.474 92.0999ZM108.444 80.0089L100.473 56.4709L92.599 80.0099L108.444 80.0089Z" fill="#082930"/>
<path d="M172.741 103.457L159.37 79.1859H155.614V103.457H139.952V39.1569H166.238C170.706 39.0303 175.142 39.9404 179.199 41.8159C182.544 43.3789 185.337 45.9171 187.213 49.0969C188.997 52.2336 189.913 55.7887 189.869 59.3969C189.923 63.5037 188.655 67.5191 186.252 70.8499C183.607 74.3681 179.849 76.8866 175.589 77.9949L190.424 103.457H172.741ZM155.614 68.1049H165.323C167.67 68.2852 169.993 67.5267 171.781 65.9959C172.528 65.2035 173.104 64.2662 173.474 63.2421C173.845 62.2179 174.001 61.1287 173.933 60.0419C173.99 58.984 173.828 57.9258 173.458 56.9332C173.088 55.9406 172.517 55.035 171.781 54.2729C169.992 52.7426 167.67 51.9842 165.323 52.1639H155.614V68.1049Z" fill="#082930"/>
<path d="M247.574 76.0259C250.117 79.4035 251.298 83.6136 250.883 87.8211C250.467 92.0287 248.485 95.9263 245.33 98.7409C241.575 101.883 236.338 103.454 229.621 103.454H199.67V39.1589H228.609C235.142 39.1589 240.256 40.6549 243.951 43.6469C246.972 46.2978 248.905 49.9726 249.379 53.9637C249.852 57.9548 248.832 61.98 246.515 65.2639C244.491 67.7946 241.72 69.6218 238.597 70.4849C242.163 71.1803 245.354 73.1499 247.574 76.0259ZM215.328 65.1719H225.586C227.693 65.3108 229.783 64.7096 231.494 63.4719C232.198 62.8547 232.75 62.0833 233.107 61.2178C233.465 60.3523 233.618 59.4161 233.554 58.4819C233.614 57.541 233.46 56.5987 233.104 55.7259C232.747 54.8532 232.196 54.0729 231.494 53.4439C229.793 52.1817 227.699 51.566 225.586 51.7069H215.337L215.328 65.1719ZM232.959 89.0319C233.69 88.3916 234.264 87.592 234.637 86.6948C235.01 85.7976 235.172 84.8267 235.111 83.8569C235.161 82.8595 234.986 81.8636 234.597 80.9436C234.208 80.0236 233.617 79.2033 232.867 78.5439C231.108 77.1744 228.911 76.4903 226.685 76.6189H215.337V90.8189H226.872C229.049 90.9577 231.205 90.3258 232.963 89.0339" fill="#082930"/>
<path d="M273.817 99.8849C268.824 97.1218 264.677 93.0539 261.817 88.1159C258.904 82.9352 257.374 77.0918 257.374 71.1484C257.374 65.205 258.904 59.3617 261.817 54.1809C264.688 49.2631 268.834 45.2123 273.817 42.4569C278.921 39.6924 284.634 38.2446 290.438 38.2446C296.243 38.2446 301.956 39.6924 307.06 42.4569C312.028 45.1992 316.147 49.2546 318.966 54.1799C321.828 59.379 323.325 65.2187 323.317 71.1533C323.309 77.088 321.796 82.9237 318.92 88.1149C316.095 93.0478 311.978 97.1168 307.012 99.8839C301.916 102.648 296.21 104.096 290.412 104.096C284.614 104.096 278.908 102.648 273.812 99.8839M302.755 84.6789C305.838 81.2603 307.379 76.7419 307.38 71.1239C307.38 65.4452 305.838 60.9119 302.755 57.5239C301.194 55.8325 299.284 54.5013 297.157 53.623C295.029 52.7447 292.736 52.3403 290.437 52.4379C288.127 52.3328 285.822 52.7286 283.68 53.598C281.537 54.4674 279.608 55.79 278.025 57.4749C274.941 60.8342 273.399 65.3826 273.4 71.1199C273.4 76.7986 274.942 81.3319 278.025 84.7199C279.601 86.418 281.527 87.7525 283.67 88.6308C285.814 89.5091 288.123 89.9101 290.437 89.8059C292.74 89.9031 295.037 89.4941 297.165 88.6077C299.293 87.7214 301.201 86.3793 302.755 84.6759" fill="#082930"/>
<path d="M387.632 68.626V40.097C387.632 38.178 387.532 38.074 385.613 38.065C382.674 38.0497 379.736 38.045 376.797 38.051C374.884 38.051 374.782 38.151 374.782 40.078C374.782 51.55 374.787 63.0227 374.796 74.496C374.806 74.9606 374.79 75.4253 374.747 75.888C374.701 76.304 374.582 76.744 374.112 76.857C373.666 76.965 373.512 76.543 373.312 76.257C372.54 75.157 371.806 74.032 371.012 72.957C361.108 59.6057 351.205 46.255 341.304 32.905C340.504 31.826 340.086 31.966 339.443 33.005C330.863 46.875 327.311 61.849 329.683 78.065C331.838 94.0761 339.988 108.673 352.488 118.908C366.928 131.014 383.678 135.778 402.331 133.619C415.811 132.013 428.426 126.145 438.338 116.868C438.526 116.76 438.685 116.607 438.801 116.424C438.92 116.242 438.995 116.035 439.019 115.819C439.04 115.603 439.012 115.386 438.938 115.182C438.861 114.978 438.737 114.796 438.576 114.649C436.576 112.019 434.609 109.364 432.676 106.684C431.542 105.117 431.56 105.084 430.183 106.425C422.007 114.301 411.468 119.27 400.19 120.567C388.912 121.863 377.52 119.414 367.771 113.598C358.681 108.181 351.434 100.15 346.977 90.5531C342.52 80.9558 341.06 70.2379 342.786 59.798C342.886 59.186 342.931 58.452 343.662 58.309C344.316 58.185 344.61 58.841 344.936 59.283C348.346 63.888 351.727 68.514 355.147 73.112C361.273 81.357 367.435 89.578 373.547 97.835C373.874 98.3239 374.325 98.7163 374.855 98.9713C375.385 99.2264 375.973 99.3347 376.559 99.285C379.498 99.208 382.436 99.263 385.375 99.258C387.566 99.258 387.625 99.202 387.625 96.993V68.624" fill="#082930"/>
<path d="M422.329 65.514H422.269C422.269 75.123 422.283 84.733 422.258 94.341C422.258 95.714 422.735 96.291 424.168 96.25C426.949 96.168 429.733 96.226 432.517 96.228C434.999 96.228 435.017 96.201 435.017 93.74C435.017 83.9733 435.028 74.2066 435.049 64.44C435.049 62.532 435.232 60.628 435.07 58.717C435.031 58.28 435.095 57.706 435.67 57.601C436.158 57.508 436.348 57.991 436.579 58.317C436.934 58.823 437.236 59.367 437.608 59.864C445.247 70.1306 452.89 80.3973 460.537 90.664C463.124 94.137 465.677 97.647 468.237 101.148C469.28 102.578 469.537 102.582 470.456 101.036C471.2 99.796 471.945 98.555 472.615 97.277C483.249 77.032 483.715 56.543 473.682 36C467.693 23.4902 457.687 13.3471 445.259 7.18997C430.861 -0.282266 414.164 -2.01137 398.541 2.35197C388.408 4.99835 379.094 10.1286 371.441 17.279C370.57 18.086 370.341 18.692 371.174 19.731C373.203 22.272 375.103 24.915 377.048 27.521C378.248 29.121 378.291 29.134 379.716 27.769C387.459 20.269 397.359 15.3856 408.022 13.8057C418.686 12.2259 429.576 14.0292 439.161 18.962C449.127 24.1089 457.193 32.2983 462.188 42.3413C467.183 52.3843 468.847 63.758 466.938 74.811C466.843 75.379 466.717 76.02 466.124 76.211C465.38 76.459 465.224 75.672 464.924 75.255C461.592 70.655 458.324 66.014 454.95 61.455C448.687 52.99 442.35 44.578 436.079 36.12C435.844 35.7556 435.516 35.4598 435.13 35.2623C434.744 35.0648 434.312 34.9726 433.879 34.995C430.786 35.031 427.693 35.011 424.6 35.021C422.437 35.027 422.332 35.121 422.328 37.296C422.325 46.7006 422.325 56.1056 422.328 65.511" fill="#159BA1"/>
<path d="M531.322 32.957V45.505H514.288V97.255H498.626V45.505H481.588V32.957H531.322Z" fill="#159BA1"/>
<path d="M554.862 45.5061V58.5121H575.839V70.6021H554.862V84.7081H578.584V97.2561H539.2V32.9561H578.584V45.5061H554.862Z" fill="#159BA1"/>
<path d="M604.413 85.1651H624.923V97.2551H588.752V32.9551H604.417L604.413 85.1651Z" fill="#159BA1"/>
<path d="M412.66 34.7659H396.998V99.0659H412.66V34.7659Z" fill="#159BA1"/>
</g>
<defs>
<clipPath id="clip0_1_6694">
<rect width="624.923" height="134.123" fill="white"/>
</clipPath>
</defs>
</svg>
