<svg xmlns="http://www.w3.org/2000/svg" width="60" height="60" viewBox="0 0 40 85" fill="none">
  <path d="M29.9743 27.5134L10.2137 37.7166L5.19465 40.4016H5.08936V66.1149L10.2137 63.4614V42.9603L29.9743 32.8203V27.5134Z" fill="url(#paint0_linear_115_9426)"/>
  <path d="M5.0893 66.115V40.4018L0 37.7483V69.1791H0.105292L30.7113 84.8787V79.4454" fill="url(#paint1_linear_115_9426)"/>
  <path d="M30.7114 79.4451V84.8784L60.1943 69.3683V64.0298L30.7114 79.4451Z" fill="url(#paint2_linear_115_9426)"/>
  <path d="M29.9742 27.1978V27.5136L24.7796 30.1987L5.0893 40.4019L0 37.7168L24.6041 24.955L25.1657 24.6707L29.9742 27.1978Z" fill="url(#paint3_linear_115_9426)"/>
  <path d="M55.4208 61.9768L30.9219 74.2017L10.2137 63.4615L5.08936 66.1149L10.2137 68.7684L30.7113 79.4454L60.2293 63.9985L57.8777 62.9877L55.4208 61.9768Z" fill="url(#paint4_linear_115_9426)"/>
  <path d="M24.885 24.9864V30.5776L29.6935 33.1047L29.8339 33.0099V27.4187L25.0254 24.8916L24.885 24.9864Z" fill="url(#paint5_linear_115_9426)"/>
  <path d="M30.2549 57.3654L50.0154 47.1306L54.9994 44.4772H55.1047V18.7639L50.0154 21.4174V41.9185L30.2549 52.0269V57.3654Z" fill="url(#paint6_linear_115_9426)"/>
  <path d="M55.1049 18.7637V44.477L60.1942 47.1304V15.6996H60.0889L29.4829 0V5.43327" fill="url(#paint7_linear_115_9426)"/>
  <path d="M29.4828 5.43327V0L0 15.5101V20.8486L29.4828 5.43327Z" fill="url(#paint8_linear_115_9426)"/>
  <path d="M30.2549 57.6811V57.3653L35.4495 54.6486L55.1047 44.4771L60.2291 47.1305L35.5899 59.8924L35.0634 60.2082L30.2549 57.6811Z" fill="url(#paint9_linear_115_9426)"/>
  <path d="M4.80851 22.9017L29.3073 10.6768L50.0155 21.417L55.1048 18.7636L50.0155 16.0785L29.4828 5.43311L0 20.88L2.35161 21.8908L4.80851 22.9017Z" fill="url(#paint10_linear_115_9426)"/>
  <path d="M35.3444 59.8925V54.3013L30.5358 51.7742L30.3604 51.8373V57.4601L35.1689 59.9872L35.3444 59.8925Z" fill="url(#paint11_linear_115_9426)"/>
  <defs>
    <linearGradient id="paint0_linear_115_9426" x1="16.5153" y1="40.3946" x2="18.1297" y2="52.8607" gradientUnits="userSpaceOnUse">
      <stop stop-color="#149BA1"/>
      <stop offset="1" stop-color="#05D776"/>
    </linearGradient>
    <linearGradient id="paint1_linear_115_9426" x1="14.3487" y1="72.5156" x2="9.8271" y2="62.7468" gradientUnits="userSpaceOnUse">
      <stop stop-color="#149BA1"/>
      <stop offset="1" stop-color="#05D776"/>
    </linearGradient>
    <linearGradient id="paint2_linear_115_9426" x1="30.7238" y1="74.4261" x2="60.2226" y2="74.4261" gradientUnits="userSpaceOnUse">
      <stop stop-color="#149BA1"/>
      <stop offset="1" stop-color="#05D776"/>
    </linearGradient>
    <linearGradient id="paint3_linear_115_9426" x1="3.63903" y1="37.7805" x2="13.4424" y2="32.2552" gradientUnits="userSpaceOnUse">
      <stop stop-color="#149BA1"/>
      <stop offset="1" stop-color="#05D776"/>
    </linearGradient>
    <linearGradient id="paint4_linear_115_9426" x1="5.67083e-05" y1="70.7059" x2="60.2225" y2="70.7059" gradientUnits="userSpaceOnUse">
      <stop stop-color="#149BA1"/>
      <stop offset="1" stop-color="#05D776"/>
    </linearGradient>
    <linearGradient id="paint5_linear_115_9426" x1="24.8839" y1="28.9961" x2="29.845" y2="28.9961" gradientUnits="userSpaceOnUse">
      <stop stop-color="#149BA1"/>
      <stop offset="1" stop-color="#05D776"/>
    </linearGradient>
    <linearGradient id="paint6_linear_115_9426" x1="43.707" y1="44.4744" x2="42.0927" y2="32.0083" gradientUnits="userSpaceOnUse">
      <stop stop-color="#149BA1"/>
      <stop offset="1" stop-color="#05D776"/>
    </linearGradient>
    <linearGradient id="paint7_linear_115_9426" x1="45.8738" y1="12.3532" x2="50.3954" y2="22.1221" gradientUnits="userSpaceOnUse">
      <stop stop-color="#149BA1"/>
      <stop offset="1" stop-color="#05D776"/>
    </linearGradient>
    <linearGradient id="paint8_linear_115_9426" x1="29.4988" y1="10.4424" x2="-7.03307e-05" y2="10.4424" gradientUnits="userSpaceOnUse">
      <stop stop-color="#149BA1"/>
      <stop offset="1" stop-color="#05D776"/>
    </linearGradient>
    <linearGradient id="paint9_linear_115_9426" x1="56.5833" y1="47.0886" x2="46.7799" y2="52.6138" gradientUnits="userSpaceOnUse">
      <stop stop-color="#149BA1"/>
      <stop offset="1" stop-color="#05D776"/>
    </linearGradient>
    <linearGradient id="paint10_linear_115_9426" x1="60.2224" y1="14.1628" x2="-7.17908e-05" y2="14.1628" gradientUnits="userSpaceOnUse">
      <stop stop-color="#149BA1"/>
      <stop offset="1" stop-color="#05D776"/>
    </linearGradient>
    <linearGradient id="paint11_linear_115_9426" x1="35.3386" y1="55.8729" x2="30.3774" y2="55.8729" gradientUnits="userSpaceOnUse">
      <stop stop-color="#149BA1"/>
      <stop offset="1" stop-color="#05D776"/>
    </linearGradient>
  </defs>
</svg>