<svg width="250" height="85" viewBox="0 0 302 85" fill="none" xmlns="http://www.w3.org/2000/svg">
<path d="M117.265 30.9985C113.544 34.2837 108.771 35.8 103.576 35.8C90.2036 35.8 84.5528 27.5237 84.4826 19.0895C84.4475 10.6237 90.5546 2 103.576 2C108.455 2 113.088 3.67421 116.808 6.95944L112.281 10.908C109.929 8.82317 106.735 7.84392 103.576 7.84392C94.8717 7.84392 91.1162 13.6878 91.1864 19.0895C91.2215 24.4596 94.6963 30.0508 103.576 30.0508C106.7 30.0508 110.245 28.882 112.632 26.7656L117.265 30.9985Z" fill="white"/>
<path d="M139.623 12.2669H145.66V35.074H139.728L139.412 31.7256C137.973 34.4106 134.007 35.7058 131.199 35.7374C123.688 35.769 118.143 31.6308 118.143 23.6073C118.143 15.7417 123.969 11.6036 131.375 11.6667C134.779 11.6667 138.008 13.0882 139.447 15.3626L139.623 12.2669ZM124.425 23.6389C124.425 27.9981 127.76 30.5884 131.936 30.5884C141.799 30.5884 141.799 16.7525 131.936 16.7525C127.76 16.7525 124.425 19.2796 124.425 23.6389Z" fill="white"/>
<path d="M156.75 12.2662L157.206 14.9197C159.172 12.1083 161.769 11.666 164.367 11.666C166.999 11.666 169.526 12.5821 170.895 13.8456L168.052 18.7419C166.753 17.7626 165.595 17.2572 163.524 17.2572C160.225 17.2572 157.206 18.8367 157.206 23.038V35.0733H150.924V12.2662H156.75Z" fill="white"/>
<path d="M179.564 2.72656V15.3621C181.038 12.9929 185.215 11.6978 187.882 11.6978C195.288 11.6978 200.799 15.7727 200.799 23.6383C200.799 31.1248 195.183 35.5789 187.742 35.5789C184.653 35.5789 181.529 34.6628 179.564 31.9146L179.143 35.0734H173.281V2.72656H179.564ZM179.95 23.6383C179.95 27.7449 183.355 30.3351 187.321 30.3351C191.322 30.3351 194.516 27.6185 194.516 23.6383C194.516 19.5318 191.322 16.9731 187.321 16.9731C183.355 16.9731 179.95 19.6581 179.95 23.6383Z" fill="white"/>
<path d="M230.632 23.7019C230.632 30.2724 225.648 35.6109 217.4 35.6109C209.152 35.6109 204.238 30.2724 204.238 23.7019C204.238 17.1631 209.292 11.793 217.365 11.793C225.438 11.793 230.632 17.1631 230.632 23.7019ZM210.521 23.7019C210.521 27.1767 212.837 30.3987 217.4 30.3987C221.963 30.3987 224.28 27.1451 224.28 23.7019C224.28 20.2903 221.612 16.9419 217.4 16.9419C212.873 16.9419 210.521 20.2588 210.521 23.7019Z" fill="white"/>
<path d="M253.623 35.0729V23.1323C253.623 19.6575 251.517 17.0357 247.516 17.0357C243.655 17.0357 241.023 19.9419 241.023 23.4166V35.0729H234.811V12.2026H240.426L240.847 15.2983C243.41 13.0239 246.007 11.8867 249.166 11.8867C255.133 11.8867 259.906 15.8985 259.906 23.1007V35.1045H253.623V35.0729Z" fill="white"/>
<path d="M117.265 70.2329C113.544 73.5181 108.771 75.0343 103.576 75.0343C90.2036 75.0343 84.5528 66.7581 84.4826 58.3239C84.4475 49.8581 90.5546 41.2344 103.576 41.2344C108.455 41.2344 113.088 42.9086 116.808 46.1938L112.281 50.1424C109.929 48.0576 106.735 47.0783 103.576 47.0783C94.8717 47.0783 91.1162 52.9222 91.1864 58.3239C91.2215 63.694 94.6963 69.2852 103.576 69.2852C106.7 69.2852 110.245 68.1164 112.632 66L117.265 70.2329Z" fill="white"/>
<path d="M145.308 62.9031C145.308 69.4736 140.324 74.8121 132.076 74.8121C123.863 74.8121 118.914 69.4736 118.914 62.9031C118.914 56.3642 123.968 50.9941 132.041 50.9941C140.114 50.9941 145.308 56.3958 145.308 62.9031ZM125.197 62.9031C125.197 66.3779 127.513 69.5999 132.076 69.5999C136.639 69.5999 138.955 66.3463 138.955 62.9031C138.955 59.4915 136.288 56.1431 132.076 56.1431C127.548 56.1747 125.197 59.4915 125.197 62.9031Z" fill="white"/>
<path d="M166.472 74.3079V62.0831C166.472 59.0821 164.717 56.3339 161.278 56.3339C157.873 56.3339 155.872 59.0505 155.872 62.0831V74.3079H149.59V51.4377H155.416L155.872 54.2175C157.206 51.9115 160.155 51.0586 162.541 51.0586C165.56 51.0586 168.613 52.1642 170.052 55.3231C172.299 52.0694 175.247 51.1534 178.546 51.1534C185.741 51.1534 189.286 55.1335 189.286 61.9883V74.3079H183.004V61.9883C183.004 58.9874 181.6 56.4287 178.23 56.4287C174.826 56.4287 172.72 59.0821 172.72 62.0831V74.3079H166.472Z" fill="white"/>
<path d="M195.184 83.8464V51.4996H201.045L201.466 54.6584C203.432 52.0997 206.801 50.9941 209.679 50.9941C217.506 50.9941 222.701 56.2379 222.701 62.9347C222.701 69.5999 218.033 74.8752 209.89 74.8752C207.222 74.8752 203.256 74.1487 201.466 71.6216V83.8464H195.184ZM216.418 62.9031C216.418 59.3336 213.751 56.4274 209.223 56.4274C204.695 56.4274 202.028 59.3336 202.028 62.9031C202.028 66.4726 204.976 69.3788 209.223 69.3788C213.505 69.4104 216.418 66.4726 216.418 62.9031Z" fill="white"/>
<path d="M232.669 64.8933C233.09 67.7047 235.793 69.7579 240.215 69.7579C242.532 69.7579 245.55 68.9682 246.989 67.6415L250.99 71.211C248.323 73.7065 243.936 74.9069 240.075 74.9069C231.335 74.9069 226.141 70.0422 226.141 62.7452C226.141 55.7957 231.37 50.8047 239.618 50.8047C248.112 50.8047 253.412 55.5114 252.429 64.9248H232.669V64.8933ZM246.463 60.2181C246.042 57.2488 243.479 55.7641 239.864 55.7641C236.46 55.7641 233.687 57.2488 232.774 60.2181H246.463Z" fill="white"/>
<path d="M265.099 45.0566V51.5323H272.084V56.397H265.029V66.2527C265.029 68.4323 266.363 69.5063 268.328 69.5063C269.311 69.5063 270.434 69.222 271.347 68.8114L273.102 73.6129C271.312 74.2762 269.802 74.5289 267.907 74.5921C262.397 74.7817 258.816 71.9387 258.816 66.2527V56.397H254.078V51.5323H258.816V45.6568L265.099 45.0566Z" fill="white"/>
<path d="M282.122 64.8933C282.543 67.7047 285.246 69.7579 289.668 69.7579C291.985 69.7579 295.003 68.9682 296.442 67.6415L300.444 71.211C297.776 73.7065 293.389 74.9069 289.528 74.9069C280.788 74.9069 275.594 70.0422 275.594 62.7452C275.594 55.7957 280.823 50.8047 289.072 50.8047C297.565 50.8047 302.865 55.5114 301.883 64.9248H282.122V64.8933ZM295.916 60.2181C295.495 57.2488 292.933 55.7641 289.317 55.7641C285.913 55.7641 283.14 57.2488 282.227 60.2181H295.916Z" fill="white"/>
<path d="M29.9748 27.5137L10.2142 37.7168L5.19514 40.4019H5.08984V66.1151L10.2142 63.4617V42.9606L29.9748 32.8206V27.5137Z" fill="url(#paint0_linear_468_1902)"/>
<path d="M5.0893 66.1147V40.4015L0 37.748V69.1789H0.105292L30.7113 84.8785V79.4452" fill="url(#paint1_linear_468_1902)"/>
<path d="M30.7109 79.4446V84.8779L60.1938 69.3678V64.0293L30.7109 79.4446Z" fill="url(#paint2_linear_468_1902)"/>
<path d="M29.9742 27.197V27.5129L24.7796 30.198L5.0893 40.4011L0 37.7161L24.6041 24.9542L25.1657 24.6699L29.9742 27.197Z" fill="url(#paint3_linear_468_1902)"/>
<path d="M55.4213 61.9766L30.9224 74.2014L10.2142 63.4612L5.08984 66.1147L10.2142 68.7681L30.7118 79.4451L60.2298 63.9982L57.8782 62.9874L55.4213 61.9766Z" fill="url(#paint4_linear_468_1902)"/>
<path d="M24.8848 24.9854V30.5766L29.6933 33.1037L29.8337 33.0089V27.4177L25.0251 24.8906L24.8848 24.9854Z" fill="url(#paint5_linear_468_1902)"/>
<path d="M30.2559 57.3651L50.0164 47.1304L55.0004 44.4769H55.1057V18.7637L50.0164 21.4171V41.9182L30.2559 52.0266V57.3651Z" fill="url(#paint6_linear_468_1902)"/>
<path d="M55.1044 18.7637V44.477L60.1937 47.1304V15.6996H60.0884L29.4824 0V5.43327" fill="url(#paint7_linear_468_1902)"/>
<path d="M29.4828 5.43327V0L0 15.5101V20.8486L29.4828 5.43327Z" fill="url(#paint8_linear_468_1902)"/>
<path d="M30.2559 57.6807V57.3648L35.4504 54.6481L55.1057 44.4766L60.2301 47.13L35.5909 59.8919L35.0644 60.2078L30.2559 57.6807Z" fill="url(#paint9_linear_468_1902)"/>
<path d="M4.80851 22.9022L29.3073 10.6773L50.0155 21.4175L55.1048 18.764L50.0155 16.079L29.4828 5.43359L0 20.8805L2.35161 21.8913L4.80851 22.9022Z" fill="url(#paint10_linear_468_1902)"/>
<path d="M35.3434 59.8917V54.3005L30.5349 51.7734L30.3594 51.8366V57.4594L35.1679 59.9865L35.3434 59.8917Z" fill="url(#paint11_linear_468_1902)"/>
<defs>
<linearGradient id="paint0_linear_468_1902" x1="16.5158" y1="40.3948" x2="18.1301" y2="52.861" gradientUnits="userSpaceOnUse">
<stop stop-color="#149BA1"/>
<stop offset="1" stop-color="#05D776"/>
</linearGradient>
<linearGradient id="paint1_linear_468_1902" x1="14.3487" y1="72.5154" x2="9.8271" y2="62.7466" gradientUnits="userSpaceOnUse">
<stop stop-color="#149BA1"/>
<stop offset="1" stop-color="#05D776"/>
</linearGradient>
<linearGradient id="paint2_linear_468_1902" x1="30.7233" y1="74.4256" x2="60.2221" y2="74.4256" gradientUnits="userSpaceOnUse">
<stop stop-color="#149BA1"/>
<stop offset="1" stop-color="#05D776"/>
</linearGradient>
<linearGradient id="paint3_linear_468_1902" x1="3.63903" y1="37.7798" x2="13.4424" y2="32.2545" gradientUnits="userSpaceOnUse">
<stop stop-color="#149BA1"/>
<stop offset="1" stop-color="#05D776"/>
</linearGradient>
<linearGradient id="paint4_linear_468_1902" x1="0.00054499" y1="70.7056" x2="60.223" y2="70.7056" gradientUnits="userSpaceOnUse">
<stop stop-color="#149BA1"/>
<stop offset="1" stop-color="#05D776"/>
</linearGradient>
<linearGradient id="paint5_linear_468_1902" x1="24.8836" y1="28.9951" x2="29.8448" y2="28.9951" gradientUnits="userSpaceOnUse">
<stop stop-color="#149BA1"/>
<stop offset="1" stop-color="#05D776"/>
</linearGradient>
<linearGradient id="paint6_linear_468_1902" x1="43.708" y1="44.4742" x2="42.0937" y2="32.008" gradientUnits="userSpaceOnUse">
<stop stop-color="#149BA1"/>
<stop offset="1" stop-color="#05D776"/>
</linearGradient>
<linearGradient id="paint7_linear_468_1902" x1="45.8733" y1="12.3532" x2="50.3949" y2="22.1221" gradientUnits="userSpaceOnUse">
<stop stop-color="#149BA1"/>
<stop offset="1" stop-color="#05D776"/>
</linearGradient>
<linearGradient id="paint8_linear_468_1902" x1="29.4988" y1="10.4424" x2="-7.03307e-05" y2="10.4424" gradientUnits="userSpaceOnUse">
<stop stop-color="#149BA1"/>
<stop offset="1" stop-color="#05D776"/>
</linearGradient>
<linearGradient id="paint9_linear_468_1902" x1="56.5843" y1="47.0881" x2="46.7809" y2="52.6133" gradientUnits="userSpaceOnUse">
<stop stop-color="#149BA1"/>
<stop offset="1" stop-color="#05D776"/>
</linearGradient>
<linearGradient id="paint10_linear_468_1902" x1="60.2224" y1="14.1633" x2="-7.17908e-05" y2="14.1633" gradientUnits="userSpaceOnUse">
<stop stop-color="#149BA1"/>
<stop offset="1" stop-color="#05D776"/>
</linearGradient>
<linearGradient id="paint11_linear_468_1902" x1="35.3377" y1="55.8722" x2="30.3765" y2="55.8722" gradientUnits="userSpaceOnUse">
<stop stop-color="#149BA1"/>
<stop offset="1" stop-color="#05D776"/>
</linearGradient>
</defs>
</svg>
