<svg width="865" height="619" viewBox="0 0 865 619" fill="none" xmlns="http://www.w3.org/2000/svg">
<path fill-rule="evenodd" clip-rule="evenodd" d="M283.351 187.547L352.778 147.021L315.106 125.033C314.897 124.911 314.723 124.737 314.602 124.527C314.481 124.318 314.417 124.08 314.416 123.838C314.416 123.596 314.478 123.358 314.598 123.148C314.718 122.937 314.89 122.762 315.099 122.639L356.068 98.4551L357.479 100.845L318.546 123.833L356.231 145.827C356.44 145.949 356.614 146.124 356.735 146.334C356.856 146.544 356.919 146.782 356.919 147.025C356.919 147.267 356.856 147.506 356.735 147.716C356.614 147.926 356.44 148.101 356.231 148.223L286.838 188.727C295.044 191.564 302.905 195.314 310.275 199.905L386.31 155.528L387.708 157.924L312.866 201.605C318.609 205.431 323.782 210.051 328.23 215.326L356.74 198.876C356.953 198.753 357.194 198.689 357.44 198.69C357.686 198.691 357.927 198.758 358.139 198.882L399.573 223.347L443.048 198.548L444.424 200.959L400.248 226.154C400.035 226.276 399.794 226.338 399.55 226.337C399.305 226.335 399.065 226.268 398.855 226.143L357.424 201.682L329.956 217.531C332.292 220.633 334.245 224.006 335.772 227.576L396.738 262.661L409.273 255.429L410.659 257.833L397.432 265.463C397.221 265.585 396.983 265.648 396.74 265.648C396.496 265.648 396.258 265.585 396.047 265.463L337.242 231.623C339.363 238.505 339.484 245.847 337.591 252.795L416.632 299.142L425.506 293.998C425.718 293.874 425.959 293.809 426.205 293.809C426.45 293.809 426.691 293.874 426.903 293.998L446.277 305.336L444.875 307.732L426.196 296.801L417.322 301.946C417.11 302.069 416.869 302.135 416.623 302.135C416.378 302.135 416.136 302.069 415.924 301.946L336.753 255.518C331.02 272.01 314.339 286.16 291.396 295.208L328.633 316.913L361.6 298.297C361.81 298.178 362.048 298.116 362.289 298.118C362.531 298.119 362.768 298.183 362.977 298.304L427.774 335.845L426.383 338.246L362.273 301.105L329.303 319.723C329.092 319.842 328.855 319.903 328.613 319.902C328.372 319.9 328.135 319.836 327.926 319.714L288.06 296.474C278.529 299.894 268.683 302.362 258.665 303.839L307.99 332.546L306.594 334.944L254.553 304.658L254.71 304.387C247.22 305.334 239.677 305.806 232.127 305.801C226.792 305.801 221.549 305.57 216.427 305.123L257.188 328.795C257.397 328.917 257.571 329.092 257.692 329.303C257.813 329.513 257.877 329.752 257.877 329.994C257.877 330.237 257.813 330.475 257.692 330.686C257.571 330.896 257.397 331.071 257.188 331.193L197.238 366.166L277.523 413.05L276.124 415.446L193.786 367.363C193.576 367.241 193.402 367.066 193.282 366.856C193.161 366.646 193.097 366.407 193.097 366.165C193.097 365.922 193.161 365.684 193.282 365.474C193.402 365.263 193.576 365.089 193.786 364.966L253.737 329.998L209.663 304.402C202.505 303.507 195.415 302.136 188.44 300.298L167.319 312.628L198.104 330.588C198.313 330.71 198.486 330.885 198.607 331.095C198.728 331.305 198.791 331.544 198.791 331.786C198.791 332.028 198.728 332.266 198.607 332.477C198.486 332.687 198.313 332.862 198.104 332.984L130.178 372.732L128.776 370.337L194.653 331.788L163.866 313.827C163.657 313.705 163.483 313.53 163.362 313.319C163.241 313.109 163.178 312.871 163.178 312.628C163.178 312.386 163.241 312.148 163.362 311.937C163.483 311.727 163.657 311.552 163.866 311.43L184.714 299.258C174.327 296.305 164.375 291.994 155.117 286.437L106.25 314.946L141.494 335.931L140.073 338.316L102.807 316.126C102.6 316.003 102.428 315.827 102.309 315.617C102.19 315.407 102.128 315.169 102.129 314.928C102.13 314.686 102.194 314.449 102.315 314.24C102.436 314.031 102.609 313.857 102.818 313.735L152.483 284.761C145.952 280.566 140.132 275.357 135.241 269.331L45.1703 322.347C44.9494 322.477 44.6967 322.544 44.4404 322.539C44.184 322.534 43.9341 322.458 43.7183 322.32L0 294.301L1.49627 291.965L44.4969 319.516L133.565 267.087C128.257 259.616 125.332 251.413 125.332 242.813C125.332 208.052 173.186 179.829 232.13 179.829C249.499 179.731 266.778 182.333 283.349 187.542L283.351 187.547ZM283.581 189.356L283.549 189.375L282.835 189.145C266.431 183.989 249.325 181.415 232.13 181.513C197.203 181.513 166.202 191.495 147.001 206.939C134.483 217.008 127.011 229.387 127.011 242.822C127.011 251.08 129.841 258.944 134.935 266.121L135.709 267.212L136.558 268.288C141.338 274.175 147.026 279.262 153.408 283.359L155.123 284.49L155.14 284.48L155.997 285.005C165.128 290.486 174.944 294.738 185.189 297.649L188.16 298.52L188.198 298.498L188.871 298.676C195.775 300.495 202.792 301.851 209.875 302.737L210.213 302.781L210.451 302.919L216.578 303.452C221.653 303.895 226.847 304.124 232.132 304.124C239.612 304.128 247.084 303.661 254.504 302.724L256.463 302.474L258.415 302.179C268.321 300.718 278.059 298.279 287.485 294.896L288.223 294.628L288.252 294.646L290.782 293.649C313.197 284.81 329.568 271.078 335.169 254.969L335.645 253.597L335.98 252.36C337.791 245.716 337.674 238.695 335.645 232.115L334.655 228.871L334.458 228.755L334.239 228.234C332.764 224.788 330.879 221.533 328.623 218.539L327.818 217.458L326.945 216.399C322.597 211.246 317.543 206.734 311.931 202.997L310.26 201.863L310.243 201.873L309.382 201.327C302.119 196.804 294.371 193.111 286.284 190.317L283.586 189.365L283.581 189.356Z" fill="#C9CCCD"/>
<path fill-rule="evenodd" clip-rule="evenodd" d="M330.604 445.526L633.864 618.3L760.259 618.318L410.281 416.722L330.604 445.526Z" fill="url(#paint0_linear_0_1)"/>
<path fill-rule="evenodd" clip-rule="evenodd" d="M459.632 301.365L910.636 566.015H1046.81L539.309 272.562L459.632 301.365Z" fill="url(#paint1_linear_0_1)"/>
<path fill-rule="evenodd" clip-rule="evenodd" d="M508.108 192.575L567.763 226.561L508.241 260.852L448.711 226.556L508.108 192.575Z" fill="#11B590"/>
<path fill-rule="evenodd" clip-rule="evenodd" d="M508.241 329.993L448.717 295.082V226.562L508.241 260.852V329.993Z" fill="#0ED17C"/>
<path fill-rule="evenodd" clip-rule="evenodd" d="M508.241 329.993L567.763 295.082V226.562L508.241 260.852V329.993Z" fill="#149BA1"/>
<path fill-rule="evenodd" clip-rule="evenodd" d="M385.66 339.786L445.316 373.773L385.792 408.063L326.264 373.771L385.66 339.786Z" fill="#149BA1"/>
<path fill-rule="evenodd" clip-rule="evenodd" d="M385.792 477.2L326.269 442.29V373.773L385.792 408.063V477.2Z" fill="#11B590"/>
<path fill-rule="evenodd" clip-rule="evenodd" d="M385.788 477.2L445.312 442.29V373.773L385.788 408.063V477.2Z" fill="#0ED17C"/>
<path fill-rule="evenodd" clip-rule="evenodd" d="M574.754 268.2C574.754 268.2 560.879 261.265 558.995 259.86C557.257 258.565 556.019 256.709 555.49 254.607C554.919 252.55 554.346 250.626 553.304 250.23C552.662 249.965 551.964 249.869 551.274 249.95C550.585 250.03 549.927 250.286 549.365 250.692C547.914 251.711 547.161 252.523 548.49 253.732C549.818 254.941 551.263 257.349 551.116 258.109C550.97 258.869 549.327 257.617 548.889 258.58C548.45 259.544 550.705 260.033 551.992 260.275C553.279 260.518 554.39 259.569 555.494 260.734C556.598 261.9 562.135 265.987 562.135 265.987L572.58 272.991L574.755 268.199L574.754 268.2Z" fill="#FFBCA2"/>
<path fill-rule="evenodd" clip-rule="evenodd" d="M582.766 273.624L574.174 267.611C573.363 269.596 572.962 271.724 572.994 273.868C573.264 276.628 577.371 277.37 577.371 277.37L582.766 273.624Z" fill="url(#paint2_linear_0_1)"/>
<path fill-rule="evenodd" clip-rule="evenodd" d="M558.436 276.659C558.436 276.659 550.374 272.647 547.614 270.367C544.853 268.087 544.987 267.389 544.987 267.389C544.987 267.389 547.662 263.22 546.738 262.487C545.814 261.755 544.987 263.363 544.987 263.363C544.987 263.363 545.335 258.382 544.112 257.235C543.352 256.672 542.431 256.368 541.485 256.368C540.539 256.368 539.618 256.672 538.858 257.235C537.512 258.399 537.445 258.986 537.445 258.986C537.757 260.491 538.231 261.959 538.858 263.363C539.86 265.219 541.033 266.977 542.36 268.616C542.36 268.616 547.615 277.012 549.741 278.633C552.13 280.163 554.639 281.497 557.243 282.623L558.435 276.661L558.436 276.659Z" fill="#FFBCA2"/>
<path fill-rule="evenodd" clip-rule="evenodd" d="M565.786 276.434C566.649 276.016 567.087 275.797 567.365 275.964C568.246 277.188 568.993 278.504 569.593 279.888C569.808 280.114 571.832 280.254 573.982 277.356C576.132 274.459 574.62 273.443 574.62 273.443C573.96 272.819 573.393 272.104 572.938 271.317C571.835 271.262 570.73 271.301 569.633 271.431L566.192 273.723L565.307 275.099C565.307 275.099 565.504 276.521 565.79 276.434" fill="#FFBCA2"/>
<path fill-rule="evenodd" clip-rule="evenodd" d="M560.879 268.593C560.463 269.97 561.94 271.911 561.94 271.911C562.484 273.697 563.538 275.285 564.972 276.48C565.869 277.182 566.771 274.947 566.771 274.947C567.09 274.895 567.375 274.722 567.568 274.464C567.761 274.205 567.846 273.882 567.805 273.562C567.923 272.267 568.04 270.968 568.04 270.968L562.872 266.295C562.161 267.019 561.495 267.787 560.879 268.593Z" fill="#FFBCA2"/>
<path fill-rule="evenodd" clip-rule="evenodd" d="M561.032 265.088C559.482 268.369 560.789 269.498 562.164 270.043C562.357 270.172 562.541 270.312 562.715 270.465C562.738 270.486 562.762 270.506 562.787 270.525C563.045 270.757 563.239 271.052 563.349 271.381C563.56 271.804 563.75 272.149 563.92 272.425C564.007 272.566 564.087 272.688 564.164 272.795L565.068 274.088L565.483 272.544L564.877 271.359C564.975 270.966 565.526 270.23 566.579 271.126C567.274 271.716 566.364 272.239 566.417 272.547C566.598 273.562 568.089 273.684 568.709 274.875C568.709 274.875 572.504 276.068 573.519 271.775C573.519 271.775 574.146 263.359 568.899 262.063C567.435 261.726 565.905 261.835 564.504 262.374C563.103 262.913 561.894 263.858 561.034 265.089L561.032 265.088Z" fill="#092930"/>
<path fill-rule="evenodd" clip-rule="evenodd" d="M618.881 354.412C618.881 354.412 623.49 356.494 622.842 357.913C622.194 359.333 620.736 360.323 621.09 361.415C621.444 362.507 622.161 363.859 620.215 365.792C618.27 367.725 616.374 369.877 614.563 368.419C612.753 366.961 613.35 365.469 614.087 365.19C614.429 365.07 614.727 364.849 614.942 364.557C615.157 364.264 615.279 363.914 615.293 363.551C615.254 362.921 616.788 359.206 617.216 357.913C617.688 356.709 618.245 355.539 618.881 354.412Z" fill="url(#paint3_linear_0_1)"/>
<path fill-rule="evenodd" clip-rule="evenodd" d="M595.765 306.261C595.765 306.261 599.031 308.111 600.141 317.642C601.252 327.173 600.444 332.246 601.892 332.919C605.216 334.124 608.007 336.465 609.772 339.529C612.38 344.124 614.558 349.174 616.775 351.785C619.106 354.53 619.402 354.882 619.402 354.882L617.295 358.446C617.295 358.446 613.135 355.075 608.021 350.909C603.025 346.838 598.224 343.851 595.362 337.777C592.499 331.702 587.885 320.268 587.885 320.268C587.885 320.268 593.952 306.3 595.765 306.261Z" fill="url(#paint4_linear_0_1)"/>
<path fill-rule="evenodd" clip-rule="evenodd" d="M593.138 309.735C593.138 309.735 592.74 319.995 586.895 321.341C581.051 322.687 574.619 323.477 574.815 324.645C575.213 330.253 574.599 335.887 573.002 341.278C572.299 343.285 571.715 345.332 571.251 347.407C571.251 347.407 568.545 346.695 568.151 345.655C567.756 344.615 565.233 325.051 566.872 319.392C568.512 313.732 572.428 312.537 575.137 311.512C577.847 310.488 593.138 309.735 593.138 309.735Z" fill="url(#paint5_linear_0_1)"/>
<path fill-rule="evenodd" clip-rule="evenodd" d="M571.438 346.369C571.438 346.369 571.986 350.418 571.398 351.211C571.398 351.211 569.318 351.772 568.558 351.092C567.797 350.412 568.28 350.502 567.102 350.588C565.745 350.686 558.492 351.843 558.103 347.638C557.705 343.328 563.426 342.945 567.877 345.581C570.368 347.055 571.438 346.369 571.438 346.369Z" fill="url(#paint6_linear_0_1)"/>
<path fill-rule="evenodd" clip-rule="evenodd" d="M568.04 279.995C568.884 278.126 570.32 276.588 572.127 275.618C575.13 274.028 579.933 271.304 582.77 273.624C585.607 275.944 589.884 284.816 590.512 292.252C591.14 299.689 594.606 303.796 595.766 306.26C596.926 308.723 587.999 313.731 578.257 312.388L575.139 311.512C574.767 308.137 573.744 304.865 572.128 301.878C569.347 296.498 559.008 283.325 568.041 279.99L568.04 279.995Z" fill="#159BA1"/>
<path fill-rule="evenodd" clip-rule="evenodd" d="M567.75 280.871C566.519 280.962 565.292 280.655 564.249 279.995C562.825 278.933 558.12 276.494 558.12 276.494C558.12 276.494 555.392 279.971 555.493 283.497C557.164 284.728 558.64 286.204 559.87 287.875C561.621 290.389 567.84 291.44 568.625 289.626C569.411 287.812 571.878 283.457 567.75 280.876V280.871Z" fill="url(#paint7_linear_0_1)"/>
<path fill-rule="evenodd" clip-rule="evenodd" d="M451.037 411.806C451.037 411.806 437.288 404.64 435.406 403.234C433.668 401.939 432.43 400.084 431.901 397.982C431.33 395.925 430.757 394.001 429.715 393.605C429.073 393.34 428.375 393.244 427.685 393.325C426.996 393.405 426.339 393.661 425.776 394.067C424.326 395.085 423.572 395.898 424.901 397.107C426.23 398.316 427.674 400.724 427.528 401.483C427.381 402.243 425.738 400.992 425.3 401.955C424.861 402.919 427.117 403.407 428.403 403.65C429.69 403.893 430.801 402.943 431.905 404.109C433.009 405.275 438.547 409.362 438.547 409.362L448.992 416.366L451.04 411.805L451.037 411.806Z" fill="#FFD0C0"/>
<path fill-rule="evenodd" clip-rule="evenodd" d="M459.178 416.999L450.992 411.344C450.992 411.344 449.143 414.482 449.411 417.242C449.68 420.003 453.789 420.744 453.789 420.744L459.178 416.999Z" fill="url(#paint8_linear_0_1)"/>
<path fill-rule="evenodd" clip-rule="evenodd" d="M434.846 420.035C434.846 420.035 426.784 416.023 424.024 413.743C421.263 411.463 421.397 410.766 421.397 410.766C421.397 410.766 424.072 406.597 423.148 405.864C422.224 405.132 421.397 406.739 421.397 406.739C421.397 406.739 421.746 401.759 420.522 400.612C419.762 400.049 418.841 399.745 417.895 399.745C416.949 399.745 416.028 400.049 415.268 400.612C413.923 401.776 413.856 402.362 413.856 402.362C414.168 403.868 414.642 405.335 415.268 406.739C416.271 408.595 417.443 410.354 418.77 411.993C418.77 411.993 424.026 420.388 426.151 422.01C428.54 423.54 431.049 424.874 433.653 426L434.845 420.037L434.846 420.035Z" fill="#FFD0C0"/>
<path fill-rule="evenodd" clip-rule="evenodd" d="M442.196 419.809C443.058 419.391 443.497 419.172 443.769 419.338C444.65 420.563 445.397 421.879 445.997 423.263C446.213 423.489 448.236 423.629 450.386 420.731C452.537 417.834 451.025 416.818 451.025 416.818C450.364 416.194 449.798 415.478 449.343 414.692C448.24 414.637 447.134 414.676 446.037 414.806L442.596 417.098L441.712 418.474C441.712 418.474 441.909 419.896 442.196 419.809Z" fill="#FFD0C0"/>
<path fill-rule="evenodd" clip-rule="evenodd" d="M437.29 411.969C436.874 413.346 438.351 415.287 438.351 415.287C438.895 417.073 439.949 418.661 441.383 419.856C442.281 420.558 443.182 418.323 443.182 418.323C443.501 418.271 443.786 418.098 443.979 417.839C444.172 417.581 444.257 417.258 444.217 416.938C444.335 415.643 444.452 414.344 444.452 414.344L439.283 409.67C438.572 410.395 437.906 411.164 437.29 411.971" fill="#FFD0C0"/>
<path fill-rule="evenodd" clip-rule="evenodd" d="M440.574 416.168L440.33 415.797C440.161 415.523 439.971 415.178 439.759 414.754C439.547 414.34 439.255 413.972 438.899 413.673L438.575 413.421C436.382 412.069 434.27 412.723 435.134 409.338C435.503 408.289 436.182 407.377 437.08 406.722C438.948 405.606 440.239 405.521 442.487 405.463C443.271 405.355 444.065 405.361 444.847 405.482C445.109 405.511 445.369 405.564 445.621 405.642C449.068 406.848 449.925 415.583 449.925 415.583C449.863 416.117 449.674 416.628 449.375 417.075C449.076 417.521 448.674 417.89 448.204 418.151C447.734 418.412 447.209 418.557 446.671 418.574C446.134 418.592 445.6 418.481 445.114 418.251C445.069 417.427 443.003 416.938 442.824 415.923C442.769 415.614 443.68 415.094 442.984 414.502C441.932 413.605 441.381 414.337 441.282 414.734L441.774 415.687C441.843 415.746 441.885 415.83 441.893 415.92C442.266 417.094 442.743 418.232 443.318 419.322C443.592 419.843 442.645 419.845 442.067 420.134C441.488 420.423 440.15 419.052 439.983 418.746C439.817 418.439 440.144 418.315 440.679 417.821C441.215 417.328 440.581 416.185 440.574 416.171V416.168Z" fill="#092930"/>
<path fill-rule="evenodd" clip-rule="evenodd" d="M495.286 497.787C495.286 497.787 499.895 499.869 499.247 501.288C498.599 502.708 497.142 503.698 497.496 504.79C497.851 505.882 498.568 507.233 496.621 509.167C494.675 511.101 492.781 513.252 490.97 511.794C489.158 510.336 489.757 508.845 490.493 508.565C490.835 508.445 491.133 508.224 491.348 507.932C491.563 507.639 491.686 507.289 491.699 506.926C491.66 506.296 493.194 502.581 493.622 501.288C494.094 500.084 494.65 498.914 495.286 497.787Z" fill="url(#paint9_linear_0_1)"/>
<path fill-rule="evenodd" clip-rule="evenodd" d="M472.171 449.636C472.171 449.636 475.437 451.486 476.548 461.017C477.659 470.548 478.022 474.249 479.063 475.463C480.228 476.826 483.546 478.265 486.178 482.903C488.786 487.499 490.964 492.549 493.182 495.16C495.513 497.905 495.808 498.257 495.808 498.257L493.702 501.821C493.702 501.821 489.728 497.836 484.614 493.669C479.618 489.598 474.525 486.331 471.665 480.256C468.804 474.182 464.291 463.642 464.291 463.642C464.291 463.642 470.36 449.676 472.171 449.636Z" fill="url(#paint10_linear_0_1)"/>
<path fill-rule="evenodd" clip-rule="evenodd" d="M469.547 453.11C469.547 453.11 469.154 463.37 463.303 464.716C457.453 466.062 451.028 466.851 451.223 468.02C451.621 473.628 451.007 479.262 449.41 484.653C448.707 486.66 448.123 488.707 447.659 490.782C447.659 490.782 444.953 490.07 444.559 489.031C444.164 487.992 441.641 468.427 443.281 462.768C444.921 457.108 448.835 455.913 451.545 454.887C454.254 453.862 469.544 453.11 469.544 453.11" fill="url(#paint11_linear_0_1)"/>
<path fill-rule="evenodd" clip-rule="evenodd" d="M447.715 490.505C447.715 490.505 447.159 494.552 446.379 495.16C446.379 495.16 444.225 495.143 443.675 494.285C443.124 493.427 443.567 493.64 442.408 493.41C441.074 493.145 433.776 492.312 434.529 488.156C435.301 483.898 440.919 485.062 444.498 488.793C446.501 490.881 447.715 490.505 447.715 490.505Z" fill="url(#paint12_linear_0_1)"/>
<path fill-rule="evenodd" clip-rule="evenodd" d="M443.766 423.831C445.192 421.783 447.025 420.05 449.151 418.742C452.154 417.151 456.342 414.678 459.178 416.998C462.015 419.318 465.863 427.651 467.504 434.93C468.56 439.977 470.124 444.903 472.173 449.634C473.333 452.097 464.406 457.105 454.664 455.762L451.547 454.886C451.174 451.511 450.152 448.239 448.535 445.252C445.755 439.873 434.733 427.163 443.766 423.821V423.831Z" fill="#159BA1"/>
<path fill-rule="evenodd" clip-rule="evenodd" d="M444.465 422.907C443.94 423.13 443.375 423.245 442.805 423.245C442.234 423.245 441.67 423.13 441.144 422.907C439.518 422.192 434.531 419.87 434.531 419.87C434.531 419.87 432.23 420.656 432.357 426.449C432.357 426.449 434.642 428.33 436.982 430.307C439.842 432.723 444.043 433.215 445.307 431.694C446.415 430.36 448.594 425.493 444.465 422.907Z" fill="url(#paint13_linear_0_1)"/>
<path fill-rule="evenodd" clip-rule="evenodd" d="M309.531 309.316C309.167 309.316 308.811 309.209 308.509 309.006C308.206 308.804 307.97 308.517 307.831 308.181C307.692 307.845 307.656 307.475 307.727 307.118C307.798 306.761 307.973 306.434 308.23 306.176C308.487 305.919 308.815 305.744 309.172 305.673C309.529 305.602 309.898 305.638 310.234 305.778C310.571 305.917 310.858 306.153 311.06 306.455C311.262 306.758 311.37 307.113 311.37 307.477C311.37 307.965 311.176 308.433 310.831 308.777C310.486 309.122 310.018 309.316 309.531 309.316Z" fill="#DCCCCC"/>
<path fill-rule="evenodd" clip-rule="evenodd" d="M74.8303 304.962C74.4665 304.962 74.1109 304.854 73.8084 304.652C73.5059 304.45 73.2701 304.163 73.1309 303.826C72.9917 303.49 72.9553 303.121 73.0262 302.764C73.0972 302.407 73.2724 302.079 73.5296 301.822C73.7869 301.565 74.1146 301.39 74.4714 301.319C74.8282 301.248 75.1981 301.284 75.5342 301.423C75.8703 301.562 76.1576 301.798 76.3597 302.101C76.5618 302.403 76.6697 302.759 76.6697 303.123C76.6694 303.61 76.4755 304.078 76.1306 304.423C75.7858 304.768 75.318 304.962 74.8303 304.962Z" fill="white" fill-opacity="0.3"/>
<path fill-rule="evenodd" clip-rule="evenodd" d="M209.422 359.075C209.058 359.075 208.703 358.967 208.4 358.765C208.098 358.563 207.862 358.275 207.723 357.939C207.583 357.603 207.547 357.233 207.618 356.877C207.689 356.52 207.864 356.192 208.121 355.935C208.379 355.677 208.706 355.502 209.063 355.431C209.42 355.36 209.79 355.397 210.126 355.536C210.462 355.675 210.749 355.911 210.951 356.213C211.153 356.516 211.261 356.872 211.261 357.235C211.261 357.723 211.067 358.191 210.722 358.536C210.377 358.881 209.91 359.074 209.422 359.075Z" fill="white" fill-opacity="0.5"/>
<path fill-rule="evenodd" clip-rule="evenodd" d="M177.998 322.12C177.634 322.12 177.279 322.012 176.976 321.81C176.674 321.608 176.438 321.321 176.299 320.985C176.16 320.649 176.123 320.279 176.194 319.922C176.265 319.565 176.44 319.237 176.698 318.98C176.955 318.723 177.283 318.548 177.639 318.477C177.996 318.406 178.366 318.442 178.702 318.581C179.038 318.721 179.326 318.956 179.528 319.259C179.73 319.561 179.838 319.917 179.838 320.281C179.838 320.769 179.644 321.236 179.299 321.581C178.954 321.926 178.486 322.12 177.998 322.12Z" fill="#DCCCCC"/>
<path fill-rule="evenodd" clip-rule="evenodd" d="M166.462 351.097C166.098 351.097 165.742 350.989 165.44 350.787C165.137 350.585 164.902 350.297 164.762 349.961C164.623 349.625 164.587 349.255 164.658 348.898C164.729 348.542 164.904 348.214 165.161 347.957C165.418 347.699 165.746 347.524 166.103 347.453C166.46 347.382 166.829 347.419 167.166 347.558C167.502 347.697 167.789 347.933 167.991 348.235C168.193 348.538 168.301 348.894 168.301 349.257C168.301 349.745 168.107 350.213 167.762 350.558C167.417 350.903 166.949 351.096 166.462 351.097Z" fill="white" fill-opacity="0.5"/>
<path fill-rule="evenodd" clip-rule="evenodd" d="M388.1 316.287C387.736 316.287 387.38 316.179 387.078 315.977C386.775 315.775 386.539 315.488 386.4 315.152C386.261 314.816 386.225 314.446 386.296 314.089C386.366 313.732 386.542 313.404 386.799 313.147C387.056 312.89 387.384 312.715 387.741 312.644C388.097 312.573 388.467 312.609 388.803 312.748C389.14 312.888 389.427 313.123 389.629 313.426C389.831 313.728 389.939 314.084 389.939 314.448C389.939 314.936 389.745 315.403 389.4 315.748C389.055 316.093 388.587 316.287 388.1 316.287Z" fill="white" fill-opacity="0.3"/>
<path fill-rule="evenodd" clip-rule="evenodd" d="M348.811 206.891C348.447 206.891 348.092 206.783 347.789 206.581C347.487 206.379 347.251 206.091 347.112 205.755C346.973 205.419 346.936 205.049 347.007 204.692C347.078 204.336 347.253 204.008 347.511 203.751C347.768 203.493 348.095 203.318 348.452 203.247C348.809 203.176 349.179 203.213 349.515 203.352C349.851 203.491 350.138 203.727 350.341 204.029C350.543 204.332 350.65 204.687 350.65 205.051C350.65 205.539 350.456 206.007 350.111 206.352C349.767 206.697 349.299 206.89 348.811 206.891Z" fill="#DCCCCC"/>
<path fill-rule="evenodd" clip-rule="evenodd" d="M301.94 180.087C301.576 180.087 301.221 179.98 300.918 179.777C300.616 179.575 300.38 179.288 300.241 178.952C300.102 178.616 300.065 178.246 300.136 177.889C300.207 177.532 300.382 177.205 300.639 176.947C300.897 176.69 301.224 176.515 301.581 176.444C301.938 176.373 302.308 176.409 302.644 176.549C302.98 176.688 303.267 176.924 303.469 177.226C303.672 177.529 303.779 177.884 303.779 178.248C303.779 178.736 303.585 179.204 303.24 179.548C302.896 179.893 302.428 180.087 301.94 180.087Z" fill="#DCCCCC"/>
<path fill-rule="evenodd" clip-rule="evenodd" d="M340.767 110.79C340.404 110.79 340.048 110.682 339.746 110.48C339.443 110.278 339.207 109.991 339.068 109.655C338.929 109.319 338.892 108.949 338.963 108.592C339.034 108.235 339.21 107.907 339.467 107.65C339.724 107.393 340.052 107.218 340.409 107.147C340.765 107.076 341.135 107.112 341.471 107.251C341.807 107.391 342.095 107.626 342.297 107.929C342.499 108.231 342.607 108.587 342.607 108.951C342.607 109.438 342.413 109.906 342.068 110.251C341.723 110.596 341.255 110.79 340.767 110.79Z" fill="white" fill-opacity="0.3"/>
<path fill-rule="evenodd" clip-rule="evenodd" d="M371.293 275.824C370.929 275.824 370.573 275.716 370.271 275.514C369.968 275.312 369.732 275.025 369.593 274.689C369.454 274.353 369.418 273.983 369.489 273.626C369.56 273.269 369.735 272.941 369.992 272.684C370.249 272.427 370.577 272.252 370.934 272.181C371.291 272.11 371.66 272.146 371.996 272.286C372.333 272.425 372.62 272.661 372.822 272.963C373.024 273.265 373.132 273.621 373.132 273.985C373.132 274.473 372.938 274.94 372.593 275.285C372.248 275.63 371.78 275.824 371.293 275.824Z" fill="white" fill-opacity="0.5"/>
<g opacity="0.782">
<path d="M232.13 281.313C268.18 281.313 297.404 264.078 297.404 242.818C297.404 221.558 268.18 204.323 232.13 204.323C196.081 204.323 166.857 221.558 166.857 242.818C166.857 264.078 196.081 281.313 232.13 281.313Z" fill="black" fill-opacity="0.3"/>
<g opacity="0.4">
<path fill-rule="evenodd" clip-rule="evenodd" d="M178.494 178.862C178.49 178.734 178.511 178.607 178.557 178.489C178.603 178.37 178.672 178.261 178.761 178.17C178.85 178.078 178.956 178.005 179.073 177.956C179.19 177.906 179.317 177.88 179.444 177.88C179.571 177.88 179.697 177.906 179.815 177.956C179.932 178.005 180.038 178.078 180.127 178.17C180.215 178.261 180.285 178.37 180.331 178.489C180.377 178.607 180.398 178.734 180.394 178.862V252.997C180.398 253.124 180.377 253.251 180.331 253.37C180.285 253.489 180.215 253.597 180.127 253.689C180.038 253.78 179.932 253.853 179.815 253.903C179.697 253.952 179.571 253.978 179.444 253.978C179.317 253.978 179.19 253.952 179.073 253.903C178.956 253.853 178.85 253.78 178.761 253.689C178.672 253.597 178.603 253.489 178.557 253.37C178.511 253.251 178.49 253.124 178.494 252.997V178.862Z" fill="url(#paint14_linear_0_1)"/>
<path fill-rule="evenodd" clip-rule="evenodd" d="M264.819 74.9023C264.819 74.8066 264.857 74.7148 264.925 74.6472C264.993 74.5795 265.084 74.5415 265.18 74.5415C265.276 74.5415 265.368 74.5795 265.435 74.6472C265.503 74.7148 265.541 74.8066 265.541 74.9023V103.155C265.541 103.25 265.503 103.342 265.435 103.41C265.368 103.477 265.276 103.515 265.18 103.515C265.084 103.515 264.993 103.477 264.925 103.41C264.857 103.342 264.819 103.25 264.819 103.155V74.9023Z" fill="url(#paint15_linear_0_1)"/>
<path fill-rule="evenodd" clip-rule="evenodd" d="M175.967 72.353C175.967 72.2573 176.005 72.1655 176.073 72.0979C176.141 72.0302 176.232 71.9922 176.328 71.9922C176.424 71.9922 176.515 72.0302 176.583 72.0979C176.651 72.1655 176.689 72.2573 176.689 72.353V100.605C176.689 100.701 176.651 100.793 176.583 100.86C176.515 100.928 176.424 100.966 176.328 100.966C176.232 100.966 176.141 100.928 176.073 100.86C176.005 100.793 175.967 100.701 175.967 100.605V72.353Z" fill="url(#paint16_linear_0_1)"/>
<path fill-rule="evenodd" clip-rule="evenodd" d="M255.569 222.627C255.569 222.531 255.607 222.439 255.675 222.372C255.743 222.304 255.835 222.266 255.93 222.266C256.026 222.266 256.118 222.304 256.185 222.372C256.253 222.439 256.291 222.531 256.291 222.627V250.878C256.291 250.974 256.253 251.066 256.185 251.133C256.118 251.201 256.026 251.239 255.93 251.239C255.835 251.239 255.743 251.201 255.675 251.133C255.607 251.066 255.569 250.974 255.569 250.878V222.627Z" fill="url(#paint17_linear_0_1)"/>
<path fill-rule="evenodd" clip-rule="evenodd" d="M194.436 35.896C194.425 35.8426 194.426 35.7875 194.439 35.7346C194.452 35.6817 194.477 35.6323 194.511 35.5901C194.546 35.5479 194.589 35.5139 194.638 35.4905C194.688 35.4672 194.741 35.4551 194.796 35.4551C194.85 35.4551 194.904 35.4672 194.954 35.4905C195.003 35.5139 195.046 35.5479 195.081 35.5901C195.115 35.6323 195.14 35.6817 195.153 35.7346C195.166 35.7875 195.167 35.8426 195.156 35.896V70.5118C195.168 70.5656 195.167 70.6213 195.155 70.6749C195.142 70.7284 195.117 70.7785 195.083 70.8213C195.048 70.8641 195.005 70.8987 194.955 70.9224C194.905 70.9462 194.851 70.9585 194.796 70.9585C194.741 70.9585 194.687 70.9462 194.637 70.9224C194.587 70.8987 194.544 70.8641 194.509 70.8213C194.474 70.7785 194.45 70.7284 194.437 70.6749C194.425 70.6213 194.424 70.5656 194.436 70.5118V35.896Z" fill="url(#paint18_linear_0_1)"/>
<path fill-rule="evenodd" clip-rule="evenodd" d="M274.274 144.158C274.274 143.725 274.434 143.371 274.634 143.371C274.833 143.371 274.994 143.721 274.994 144.158V205.146C274.994 205.579 274.831 205.932 274.634 205.932C274.436 205.932 274.274 205.582 274.274 205.146V144.158Z" fill="url(#paint19_linear_0_1)"/>
<path fill-rule="evenodd" clip-rule="evenodd" d="M216.325 170.748C216.325 170.345 216.487 170.018 216.685 170.018C216.883 170.018 217.046 170.345 217.046 170.748V227.744C217.046 228.148 216.884 228.474 216.685 228.474C216.486 228.474 216.325 228.148 216.325 227.744V170.748Z" fill="url(#paint20_linear_0_1)"/>
<path d="M179.443 174.699C180.313 174.699 181.017 173.994 181.017 173.125C181.017 172.256 180.313 171.551 179.443 171.551C178.574 171.551 177.869 172.256 177.869 173.125C177.869 173.994 178.574 174.699 179.443 174.699Z" fill="url(#paint21_radial_0_1)"/>
<path fill-rule="evenodd" clip-rule="evenodd" d="M292.501 34.7597C292.501 34.3999 292.926 34.1079 293.45 34.1079C293.974 34.1079 294.401 34.4028 294.401 34.7597V85.5631C294.401 85.9229 293.977 86.2149 293.45 86.2149C292.923 86.2149 292.501 85.92 292.501 85.5631V34.7597Z" fill="url(#paint22_linear_0_1)"/>
<path d="M293.45 30.8979C294.319 30.8979 295.024 30.1932 295.024 29.3239C295.024 28.4547 294.319 27.75 293.45 27.75C292.581 27.75 291.876 28.4547 291.876 29.3239C291.876 30.1932 292.581 30.8979 293.45 30.8979Z" fill="url(#paint23_radial_0_1)"/>
<path d="M216.444 161.875C217.313 161.875 218.018 161.17 218.018 160.301C218.018 159.432 217.313 158.727 216.444 158.727C215.575 158.727 214.87 159.432 214.87 160.301C214.87 161.17 215.575 161.875 216.444 161.875Z" fill="url(#paint24_radial_0_1)"/>
<path d="M182.495 58.6479C183.364 58.6479 184.069 57.9432 184.069 57.0739C184.069 56.2047 183.364 55.5 182.495 55.5C181.626 55.5 180.921 56.2047 180.921 57.0739C180.921 57.9432 181.626 58.6479 182.495 58.6479Z" fill="url(#paint25_radial_0_1)"/>
<path d="M194.795 33.9394C195.665 33.9394 196.369 33.2347 196.369 32.3654C196.369 31.4962 195.665 30.7915 194.795 30.7915C193.926 30.7915 193.221 31.4962 193.221 32.3654C193.221 33.2347 193.926 33.9394 194.795 33.9394Z" fill="url(#paint26_radial_0_1)"/>
<path d="M281.759 116.55C282.628 116.55 283.333 115.846 283.333 114.976C283.333 114.107 282.628 113.402 281.759 113.402C280.89 113.402 280.185 114.107 280.185 114.976C280.185 115.846 280.89 116.55 281.759 116.55Z" fill="url(#paint27_radial_0_1)"/>
<path d="M234.571 207.803C235.441 207.803 236.145 207.098 236.145 206.229C236.145 205.36 235.441 204.655 234.571 204.655C233.702 204.655 232.998 205.36 232.998 206.229C232.998 207.098 233.702 207.803 234.571 207.803Z" fill="url(#paint28_radial_0_1)"/>
<path d="M217.921 56.3529C218.79 56.3529 219.495 55.6483 219.495 54.779C219.495 53.9098 218.79 53.2051 217.921 53.2051C217.052 53.2051 216.347 53.9098 216.347 54.779C216.347 55.6483 217.052 56.3529 217.921 56.3529Z" fill="url(#paint29_radial_0_1)"/>
<path d="M287.899 223.298C288.768 223.298 289.472 222.593 289.472 221.724C289.472 220.855 288.768 220.15 287.899 220.15C287.029 220.15 286.325 220.855 286.325 221.724C286.325 222.593 287.029 223.298 287.899 223.298Z" fill="url(#paint30_radial_0_1)"/>
<path d="M281.194 61.6991C282.063 61.6991 282.768 60.9945 282.768 60.1252C282.768 59.2559 282.063 58.5513 281.194 58.5513C280.325 58.5513 279.62 59.2559 279.62 60.1252C279.62 60.9945 280.325 61.6991 281.194 61.6991Z" fill="url(#paint31_radial_0_1)"/>
<path d="M248.819 38.5737C249.688 38.5737 250.392 37.869 250.392 36.9997C250.392 36.1305 249.688 35.4258 248.819 35.4258C247.949 35.4258 247.245 36.1305 247.245 36.9997C247.245 37.869 247.949 38.5737 248.819 38.5737Z" fill="url(#paint32_radial_0_1)"/>
</g>
<path fill-rule="evenodd" clip-rule="evenodd" d="M297.405 242.818C297.405 264.063 268.156 281.313 232.128 281.313C196.099 281.313 166.85 264.063 166.85 242.818V0H297.405V242.818Z" fill="url(#paint33_linear_0_1)"/>
</g>
<path d="M231.949 99.1646L211.132 109.914L205.843 112.742H205.734V139.829L211.132 137.034V115.438L231.949 104.755V99.1646Z" fill="url(#paint34_linear_0_1)"/>
<path d="M205.734 139.829V112.742L200.373 109.946V143.056H200.484L232.73 159.595V153.871" fill="url(#paint35_linear_0_1)"/>
<path d="M232.726 153.872V159.595L263.781 143.256V137.633L232.726 153.872Z" fill="url(#paint36_linear_0_1)"/>
<path d="M231.949 98.8331V99.1654L226.477 101.994L205.734 112.743L200.373 109.914L226.293 96.4697L226.882 96.1748L231.949 98.8331Z" fill="url(#paint37_linear_0_1)"/>
<path d="M258.757 135.47L232.948 148.349L211.132 137.034L205.734 139.829L211.132 142.624L232.726 153.877L263.821 137.605L261.344 136.54L258.757 135.47Z" fill="url(#paint38_linear_0_1)"/>
<path d="M226.589 96.5021V102.392L231.654 105.054L231.802 104.956V99.0651L226.736 96.4028L226.589 96.5021Z" fill="url(#paint39_linear_0_1)"/>
<path d="M232.245 130.613L253.061 119.831L258.312 117.036H258.423V89.9478L253.062 92.7427V114.339L232.245 124.988V130.613Z" fill="url(#paint40_linear_0_1)"/>
<path d="M258.423 89.9468V117.035L263.785 119.827V86.7193H263.674L231.432 70.1807V75.9042" fill="url(#paint41_linear_0_1)"/>
<path d="M231.432 75.9042V70.1807L200.373 86.5197V92.144L231.432 75.9042Z" fill="url(#paint42_linear_0_1)"/>
<path d="M232.245 130.945V130.613L237.717 127.751L258.423 117.035L263.821 119.83L237.866 133.279L237.311 133.611L232.245 130.945Z" fill="url(#paint43_linear_0_1)"/>
<path d="M205.439 94.3069L231.243 81.4283L253.057 92.7428L258.418 89.9478L253.062 87.1185L231.434 75.9043L200.373 92.1765L202.851 93.2412L205.439 94.3069Z" fill="url(#paint44_linear_0_1)"/>
<path d="M237.606 133.274V127.384L232.54 124.722L232.356 124.789V130.712L237.421 133.374L237.606 133.274Z" fill="url(#paint45_linear_0_1)"/>
<g clip-path="url(#clip0_0_1)">
<path d="M483.32 296.52L489.65 300.17C491.59 301.29 493.33 301.29 494.3 300.17C495.27 299.05 495.27 297.04 494.3 294.8L488.22 280.75H483.52L489.56 294.69L483.32 291.09V296.51V296.52Z" fill="#149BA1"/>
<path d="M484.51 290.44H477.48L484.51 298.55V290.44Z" fill="#149BA1"/>
<path d="M463.38 285.01L475.55 292.03V286.61L463.48 279.64L466.6 276.04L461.9 270.62L458.73 274.28C457.76 275.4 457.76 277.41 458.73 279.65C459.7 281.89 461.44 283.9 463.38 285.02V285.01Z" fill="#149BA1"/>
<path d="M467.16 278.06V269.95H460.14L467.16 278.06Z" fill="#149BA1"/>
<path d="M470.48 271.29L476.52 264.32L479.64 271.52H484.34L481.17 264.21C480.2 261.97 478.46 259.96 476.52 258.84C474.58 257.72 472.84 257.72 471.87 258.84L465.79 265.86L470.49 271.28L470.48 271.29Z" fill="#149BA1"/>
<path d="M477.87 270.15L484.9 278.26V270.15H477.87Z" fill="#149BA1"/>
</g>
<defs>
<linearGradient id="paint0_linear_0_1" x1="-215.487" y1="-74.569" x2="-214.628" y2="-74.569" gradientUnits="userSpaceOnUse">
<stop stop-color="#F1F1F1" stop-opacity="0"/>
<stop offset="0.32" stop-color="#D7D7D7" stop-opacity="0.031"/>
<stop offset="0.59" stop-color="#797979" stop-opacity="0.122"/>
<stop offset="1" stop-opacity="0.122"/>
</linearGradient>
<linearGradient id="paint1_linear_0_1" x1="-215.619" y1="-74.5935" x2="-214.445" y2="-74.5935" gradientUnits="userSpaceOnUse">
<stop stop-color="#F1F1F1" stop-opacity="0"/>
<stop offset="0.32" stop-color="#D7D7D7" stop-opacity="0.039"/>
<stop offset="0.59" stop-color="#797979" stop-opacity="0.18"/>
<stop offset="1" stop-opacity="0"/>
</linearGradient>
<linearGradient id="paint2_linear_0_1" x1="-213.369" y1="-74.56" x2="-212.46" y2="-74.56" gradientUnits="userSpaceOnUse">
<stop stop-color="#093F9F"/>
<stop offset="0.21" stop-color="#093F9F"/>
<stop offset="1" stop-color="#00286F"/>
</linearGradient>
<linearGradient id="paint3_linear_0_1" x1="-215.603" y1="-74.5569" x2="-214.688" y2="-74.5569" gradientUnits="userSpaceOnUse">
<stop stop-color="#535353"/>
<stop offset="0.36" stop-color="#535353"/>
<stop offset="1" stop-color="#3C3C3C"/>
</linearGradient>
<linearGradient id="paint4_linear_0_1" x1="-215.578" y1="-74.5902" x2="-214.664" y2="-74.5902" gradientUnits="userSpaceOnUse">
<stop stop-color="#404041"/>
<stop offset="0.44" stop-color="#404041"/>
<stop offset="1" stop-color="#231F20"/>
</linearGradient>
<linearGradient id="paint5_linear_0_1" x1="-215.613" y1="-74.5595" x2="-214.701" y2="-74.5595" gradientUnits="userSpaceOnUse">
<stop stop-color="#404041"/>
<stop offset="0.44" stop-color="#404041"/>
<stop offset="1" stop-color="#231F20"/>
</linearGradient>
<linearGradient id="paint6_linear_0_1" x1="-215.614" y1="-74.605" x2="-214.703" y2="-74.605" gradientUnits="userSpaceOnUse">
<stop stop-color="#404041"/>
<stop offset="0.44" stop-color="#404041"/>
<stop offset="1" stop-color="#231F20"/>
</linearGradient>
<linearGradient id="paint7_linear_0_1" x1="-215.619" y1="-74.5675" x2="-214.7" y2="-74.5675" gradientUnits="userSpaceOnUse">
<stop stop-color="#093F9F"/>
<stop offset="0.21" stop-color="#093F9F"/>
<stop offset="1" stop-color="#00286F"/>
</linearGradient>
<linearGradient id="paint8_linear_0_1" x1="-215.547" y1="-74.5426" x2="-214.636" y2="-74.5426" gradientUnits="userSpaceOnUse">
<stop stop-color="#093F9F"/>
<stop offset="0.21" stop-color="#093F9F"/>
<stop offset="1" stop-color="#00286F"/>
</linearGradient>
<linearGradient id="paint9_linear_0_1" x1="-215.559" y1="-74.5504" x2="-214.653" y2="-74.5504" gradientUnits="userSpaceOnUse">
<stop stop-color="#535353"/>
<stop offset="0.36" stop-color="#535353"/>
<stop offset="1" stop-color="#3C3C3C"/>
</linearGradient>
<linearGradient id="paint10_linear_0_1" x1="-215.595" y1="-74.5687" x2="-214.681" y2="-74.5687" gradientUnits="userSpaceOnUse">
<stop stop-color="#404041"/>
<stop offset="0.44" stop-color="#404041"/>
<stop offset="1" stop-color="#231F20"/>
</linearGradient>
<linearGradient id="paint11_linear_0_1" x1="-215.646" y1="-74.565" x2="-214.734" y2="-74.565" gradientUnits="userSpaceOnUse">
<stop stop-color="#404041"/>
<stop offset="0.44" stop-color="#404041"/>
<stop offset="1" stop-color="#231F20"/>
</linearGradient>
<linearGradient id="paint12_linear_0_1" x1="-215.572" y1="-74.5621" x2="-214.658" y2="-74.5621" gradientUnits="userSpaceOnUse">
<stop stop-color="#404041"/>
<stop offset="0.44" stop-color="#404041"/>
<stop offset="1" stop-color="#231F20"/>
</linearGradient>
<linearGradient id="paint13_linear_0_1" x1="-215.591" y1="-74.5805" x2="-214.676" y2="-74.5805" gradientUnits="userSpaceOnUse">
<stop stop-color="#093F9F"/>
<stop offset="0.21" stop-color="#093F9F"/>
<stop offset="1" stop-color="#00286F"/>
</linearGradient>
<linearGradient id="paint14_linear_0_1" x1="-215.737" y1="-74.84" x2="-214.829" y2="-74.84" gradientUnits="userSpaceOnUse">
<stop stop-color="white"/>
<stop offset="1" stop-color="white" stop-opacity="0"/>
</linearGradient>
<linearGradient id="paint15_linear_0_1" x1="-215.697" y1="-74.5576" x2="-214.787" y2="-74.5576" gradientUnits="userSpaceOnUse">
<stop stop-color="white"/>
<stop offset="1" stop-color="white" stop-opacity="0"/>
</linearGradient>
<linearGradient id="paint16_linear_0_1" x1="-215.663" y1="-74.5572" x2="-214.753" y2="-74.5572" gradientUnits="userSpaceOnUse">
<stop stop-color="white"/>
<stop offset="1" stop-color="white" stop-opacity="0"/>
</linearGradient>
<linearGradient id="paint17_linear_0_1" x1="-215.694" y1="-74.5311" x2="-214.784" y2="-74.5311" gradientUnits="userSpaceOnUse">
<stop stop-color="white"/>
<stop offset="1" stop-color="white" stop-opacity="0"/>
</linearGradient>
<linearGradient id="paint18_linear_0_1" x1="-225.146" y1="-74.57" x2="-224.215" y2="-74.57" gradientUnits="userSpaceOnUse">
<stop stop-color="white"/>
<stop offset="1" stop-color="white" stop-opacity="0"/>
</linearGradient>
<linearGradient id="paint19_linear_0_1" x1="-215.005" y1="-74.5923" x2="-214.097" y2="-74.5923" gradientUnits="userSpaceOnUse">
<stop stop-color="white"/>
<stop offset="1" stop-color="white" stop-opacity="0"/>
</linearGradient>
<linearGradient id="paint20_linear_0_1" x1="-215.06" y1="-74.5657" x2="-214.151" y2="-74.5657" gradientUnits="userSpaceOnUse">
<stop stop-color="white"/>
<stop offset="1" stop-color="white" stop-opacity="0"/>
</linearGradient>
<radialGradient id="paint21_radial_0_1" cx="0" cy="0" r="1" gradientUnits="userSpaceOnUse" gradientTransform="translate(180.23 173.912) scale(1.57394)">
<stop stop-color="white"/>
<stop offset="1" stop-color="white" stop-opacity="0"/>
</radialGradient>
<linearGradient id="paint22_linear_0_1" x1="-215.486" y1="-74.5873" x2="-214.578" y2="-74.5873" gradientUnits="userSpaceOnUse">
<stop stop-color="white"/>
<stop offset="1" stop-color="white" stop-opacity="0"/>
</linearGradient>
<radialGradient id="paint23_radial_0_1" cx="0" cy="0" r="1" gradientUnits="userSpaceOnUse" gradientTransform="translate(294.236 30.1109) scale(1.57394)">
<stop stop-color="white"/>
<stop offset="1" stop-color="white" stop-opacity="0"/>
</radialGradient>
<radialGradient id="paint24_radial_0_1" cx="0" cy="0" r="1" gradientUnits="userSpaceOnUse" gradientTransform="translate(217.231 161.088) scale(1.57394)">
<stop stop-color="white"/>
<stop offset="1" stop-color="white" stop-opacity="0"/>
</radialGradient>
<radialGradient id="paint25_radial_0_1" cx="0" cy="0" r="1" gradientUnits="userSpaceOnUse" gradientTransform="translate(183.283 57.8609) scale(1.57394)">
<stop stop-color="white"/>
<stop offset="1" stop-color="white" stop-opacity="0"/>
</radialGradient>
<radialGradient id="paint26_radial_0_1" cx="0" cy="0" r="1" gradientUnits="userSpaceOnUse" gradientTransform="translate(195.582 33.1524) scale(1.57394)">
<stop stop-color="white"/>
<stop offset="1" stop-color="white" stop-opacity="0"/>
</radialGradient>
<radialGradient id="paint27_radial_0_1" cx="0" cy="0" r="1" gradientUnits="userSpaceOnUse" gradientTransform="translate(282.545 115.763) scale(1.57394)">
<stop stop-color="white"/>
<stop offset="1" stop-color="white" stop-opacity="0"/>
</radialGradient>
<radialGradient id="paint28_radial_0_1" cx="0" cy="0" r="1" gradientUnits="userSpaceOnUse" gradientTransform="translate(235.358 207.016) scale(1.57394)">
<stop stop-color="white"/>
<stop offset="1" stop-color="white" stop-opacity="0"/>
</radialGradient>
<radialGradient id="paint29_radial_0_1" cx="0" cy="0" r="1" gradientUnits="userSpaceOnUse" gradientTransform="translate(218.709 55.566) scale(1.57394)">
<stop stop-color="white"/>
<stop offset="1" stop-color="white" stop-opacity="0"/>
</radialGradient>
<radialGradient id="paint30_radial_0_1" cx="0" cy="0" r="1" gradientUnits="userSpaceOnUse" gradientTransform="translate(288.685 222.511) scale(1.57394)">
<stop stop-color="white"/>
<stop offset="1" stop-color="white" stop-opacity="0"/>
</radialGradient>
<radialGradient id="paint31_radial_0_1" cx="0" cy="0" r="1" gradientUnits="userSpaceOnUse" gradientTransform="translate(281.98 60.9122) scale(1.57394)">
<stop stop-color="white"/>
<stop offset="1" stop-color="white" stop-opacity="0"/>
</radialGradient>
<radialGradient id="paint32_radial_0_1" cx="0" cy="0" r="1" gradientUnits="userSpaceOnUse" gradientTransform="translate(249.605 37.7867) scale(1.57394)">
<stop stop-color="white"/>
<stop offset="1" stop-color="white" stop-opacity="0"/>
</radialGradient>
<linearGradient id="paint33_linear_0_1" x1="232.127" y1="0" x2="232.127" y2="281.313" gradientUnits="userSpaceOnUse">
<stop stop-color="#0DF5FF" stop-opacity="0"/>
<stop offset="1" stop-color="#159BA1"/>
</linearGradient>
<linearGradient id="paint34_linear_0_1" x1="218.842" y1="99.1646" x2="218.842" y2="139.829" gradientUnits="userSpaceOnUse">
<stop stop-color="#149BA1"/>
<stop offset="1" stop-color="#05D776"/>
</linearGradient>
<linearGradient id="paint35_linear_0_1" x1="216.552" y1="109.946" x2="216.552" y2="159.595" gradientUnits="userSpaceOnUse">
<stop stop-color="#149BA1"/>
<stop offset="1" stop-color="#05D776"/>
</linearGradient>
<linearGradient id="paint36_linear_0_1" x1="248.254" y1="137.633" x2="248.254" y2="159.595" gradientUnits="userSpaceOnUse">
<stop stop-color="#149BA1"/>
<stop offset="1" stop-color="#05D776"/>
</linearGradient>
<linearGradient id="paint37_linear_0_1" x1="216.161" y1="96.1748" x2="216.161" y2="112.743" gradientUnits="userSpaceOnUse">
<stop stop-color="#149BA1"/>
<stop offset="1" stop-color="#05D776"/>
</linearGradient>
<linearGradient id="paint38_linear_0_1" x1="234.778" y1="135.47" x2="234.778" y2="153.877" gradientUnits="userSpaceOnUse">
<stop stop-color="#149BA1"/>
<stop offset="1" stop-color="#05D776"/>
</linearGradient>
<linearGradient id="paint39_linear_0_1" x1="229.195" y1="96.4028" x2="229.195" y2="105.054" gradientUnits="userSpaceOnUse">
<stop stop-color="#149BA1"/>
<stop offset="1" stop-color="#05D776"/>
</linearGradient>
<linearGradient id="paint40_linear_0_1" x1="245.334" y1="89.9478" x2="245.334" y2="130.613" gradientUnits="userSpaceOnUse">
<stop stop-color="#149BA1"/>
<stop offset="1" stop-color="#05D776"/>
</linearGradient>
<linearGradient id="paint41_linear_0_1" x1="247.608" y1="70.1807" x2="247.608" y2="119.827" gradientUnits="userSpaceOnUse">
<stop stop-color="#149BA1"/>
<stop offset="1" stop-color="#05D776"/>
</linearGradient>
<linearGradient id="paint42_linear_0_1" x1="215.903" y1="70.1807" x2="215.903" y2="92.144" gradientUnits="userSpaceOnUse">
<stop stop-color="#149BA1"/>
<stop offset="1" stop-color="#05D776"/>
</linearGradient>
<linearGradient id="paint43_linear_0_1" x1="248.033" y1="117.035" x2="248.033" y2="133.611" gradientUnits="userSpaceOnUse">
<stop stop-color="#149BA1"/>
<stop offset="1" stop-color="#05D776"/>
</linearGradient>
<linearGradient id="paint44_linear_0_1" x1="229.396" y1="75.9043" x2="229.396" y2="94.3069" gradientUnits="userSpaceOnUse">
<stop stop-color="#149BA1"/>
<stop offset="1" stop-color="#05D776"/>
</linearGradient>
<linearGradient id="paint45_linear_0_1" x1="234.981" y1="124.722" x2="234.981" y2="133.374" gradientUnits="userSpaceOnUse">
<stop stop-color="#149BA1"/>
<stop offset="1" stop-color="#05D776"/>
</linearGradient>
<clipPath id="clip0_0_1">
<rect width="37.03" height="43.01" fill="white" transform="translate(458 258)"/>
</clipPath>
</defs>
</svg>
