<?xml version="1.0" standalone="no"?>
<!DOCTYPE svg PUBLIC "-//W3C//DTD SVG 20010904//EN"
 "http://www.w3.org/TR/2001/REC-SVG-20010904/DTD/svg10.dtd">
<svg version="1.0" xmlns="http://www.w3.org/2000/svg"
 width="700.000000pt" height="700.000000pt" viewBox="0 0 700.000000 700.000000"
 preserveAspectRatio="xMidYMid meet">
<metadata>
Created by potrace 1.14, written by Peter Selinger 2001-2017
</metadata>
<g transform="translate(0.000000,700.000000) scale(0.100000,-0.100000)"
fill="#000000" stroke="none">
<path d="M4220 6969 c-30 -17 -111 -60 -180 -96 -69 -36 -156 -82 -195 -103
-38 -20 -128 -68 -200 -105 -71 -37 -166 -87 -210 -110 -44 -23 -129 -68 -190
-100 -60 -32 -141 -75 -180 -95 -38 -20 -133 -70 -210 -110 -77 -40 -162 -85
-190 -100 -56 -31 -179 -96 -360 -190 -249 -129 -352 -183 -402 -212 l-51 -29
1 -220 2 -221 45 -18 c25 -10 113 -47 197 -82 l151 -64 1011 504 1010 503 93
-49 c51 -27 174 -91 273 -142 99 -51 230 -119 290 -150 61 -32 171 -89 245
-127 74 -39 205 -107 290 -151 85 -44 234 -121 330 -171 l175 -90 3 -848 2
-848 -222 -113 c-123 -62 -338 -171 -478 -243 -733 -376 -897 -458 -903 -453
-17 17 -23 -55 -23 -258 1 -125 4 -229 6 -231 6 -5 288 -152 350 -183 25 -12
50 -18 55 -14 6 4 78 42 160 85 83 43 204 106 270 140 66 34 190 98 275 142
85 45 214 111 285 148 72 37 209 108 305 158 96 50 238 123 315 164 77 40 209
107 293 150 l152 78 0 1295 0 1295 -172 87 c-95 48 -281 143 -413 211 -132 68
-361 185 -510 261 -148 76 -333 171 -410 211 -77 40 -228 118 -335 173 -107
54 -306 156 -441 226 -136 69 -248 126 -250 125 -2 0 -29 -14 -59 -30z"/>
<path d="M3815 4911 c-61 -31 -204 -106 -320 -165 -115 -60 -246 -128 -290
-151 -44 -23 -161 -84 -260 -135 -99 -51 -225 -116 -280 -145 -55 -29 -165
-86 -245 -127 -324 -168 -507 -262 -535 -278 l-30 -17 -1 -1292 -2 -1293 157
-80 c86 -44 237 -122 336 -173 99 -51 275 -141 390 -200 255 -130 541 -277
770 -395 94 -48 278 -143 410 -210 132 -67 290 -149 352 -181 l112 -59 128 66
c70 37 171 89 223 116 209 111 280 148 395 208 66 35 152 80 190 100 39 21
129 68 200 105 72 37 153 80 180 95 28 15 109 58 180 95 72 38 162 85 200 105
39 20 122 64 185 98 63 33 162 85 220 116 58 31 156 82 217 113 l113 58 0 223
0 222 -52 24 c-112 51 -324 136 -338 136 -8 0 -466 -225 -1018 -500 l-1003
-501 -152 79 c-84 44 -219 114 -302 157 -82 43 -195 101 -250 130 -55 29 -185
97 -290 151 -104 54 -253 131 -330 171 -77 40 -194 101 -260 134 l-120 62 0
843 c0 463 2 844 5 847 5 4 119 63 588 303 191 98 321 165 707 363 143 73 265
136 270 139 6 4 16 7 24 9 7 1 18 6 23 11 8 8 13 275 8 442 -1 32 -5 37 -53
60 -29 14 -117 60 -197 102 l-145 77 -110 -58z"/>
</g>
</svg>
