<svg xmlns="http://www.w3.org/2000/svg" width="102" height="102" viewBox="0 0 102 102" fill="none">
  <rect width="102" height="102" fill="#F5F5F5"/>
  <path d="M60.5625 41.4375V28.6875H28.6875V60.5625H41.4375V73.3125H73.3125V41.4375H60.5625ZM35.0625 35.0625H54.1875V54.1875H35.0625V35.0625ZM66.9375 66.9375H47.8125V60.5625H60.5625V47.8125H66.9375V66.9375Z" fill="#149BA1"/>
  <path d="M95.625 25.5V6.375H76.5V12.75H25.5V6.375H6.375V25.5H12.75V76.5H6.375V95.625H25.5V89.25H76.5V95.625H95.625V76.5H89.25V25.5H95.625ZM82.875 12.75H89.25V19.125H82.875V12.75ZM12.75 12.75H19.125V19.125H12.75V12.75ZM19.125 89.25H12.75V82.875H19.125V89.25ZM89.25 89.25H82.875V82.875H89.25V89.25ZM82.875 76.5H76.5V82.875H25.5V76.5H19.125V25.5H25.5V19.125H76.5V25.5H82.875V76.5Z" fill="#149BA1"/>
</svg>