<svg xmlns="http://www.w3.org/2000/svg" width="94" height="85" viewBox="0 0 94 85" fill="none">
  <path d="M59.1844 70.2214C55.7744 69.8214 52.3684 69.4124 48.9554 69.0334C45.9925 68.5516 42.9687 68.5854 40.0174 69.1334C39.3613 69.2904 38.7242 69.5184 38.1174 69.8134C37.8353 69.9571 37.6171 70.2013 37.5059 70.4978C37.3947 70.7943 37.3985 71.1216 37.5164 71.4155C37.6344 71.7093 37.8581 71.9484 38.1434 72.0857C38.4288 72.223 38.7551 72.2486 39.0584 72.1574C42.5584 70.7674 46.1124 71.3914 49.6704 71.7384C53.2884 72.0914 56.9124 72.5174 60.5394 72.6164C62.2684 72.606 63.9798 72.2687 65.5834 71.6224C68.5974 70.4964 69.7294 68.1364 69.0834 65.0074C68.8354 63.8074 69.1524 63.2914 70.3644 62.9574C72.2034 62.4524 74.0514 61.9804 75.8804 61.4424C76.6396 61.2268 77.3743 60.9325 78.0724 60.5644C81.0954 58.9374 84.1034 57.2764 87.1034 55.6104C88.1738 54.979 89.4207 54.7136 90.6554 54.8544C91.0397 54.874 91.4144 54.981 91.7511 55.1673C92.0878 55.3535 92.3777 55.6141 92.5985 55.9292C92.8194 56.2443 92.9656 56.6055 93.0258 56.9856C93.0861 57.3656 93.0589 57.7544 92.9464 58.1224C92.6331 59.4538 91.8524 60.6286 90.7464 61.4334C85.1974 65.6844 79.6694 69.9664 74.0344 74.1014C72.3616 75.2918 70.5423 76.2615 68.6214 76.9864C62.3634 79.4224 56.0454 81.7034 49.7574 84.0634C46.9302 85.0922 43.8627 85.2661 40.9374 84.5634C32.7054 82.8174 24.4434 81.1934 16.1944 79.5234C15.5604 79.3944 14.9134 79.3354 14.2944 79.1674C11.6734 78.4544 9.10838 79.2674 6.52138 79.4314C6.14138 79.4544 5.76238 79.5144 5.38238 79.5314C5.1993 79.5582 5.01264 79.5471 4.83406 79.4986C4.65549 79.4501 4.48883 79.3653 4.34449 79.2495C4.20016 79.1337 4.08126 78.9894 3.99521 78.8256C3.90916 78.6617 3.85782 78.4819 3.84438 78.2974C3.27638 75.2704 2.69938 72.2434 2.13438 69.2174C1.44772 65.5274 0.765717 61.835 0.0883834 58.1404C0.0109283 57.9315 -0.0161741 57.7072 0.00927417 57.4859C0.0347225 57.2646 0.112005 57.0523 0.234849 56.8665C0.357692 56.6806 0.522635 56.5263 0.716286 56.4161C0.909937 56.306 1.12684 56.243 1.34938 56.2324C1.92038 56.1004 2.50138 56.0044 3.07538 55.8954C5.03211 55.5803 6.92082 54.9341 8.66038 53.9844C12.3504 51.8554 16.4664 51.6014 20.6324 52.1264C24.4115 52.6835 28.0776 53.8401 31.4924 55.5524C34.7304 57.0774 37.9924 58.5524 41.3094 59.8934C42.3643 60.2326 43.4774 60.3527 44.5804 60.2464C50.5395 59.8918 56.5177 60.4619 62.3024 61.9364C62.8689 62.0922 63.421 62.2966 63.9524 62.5474C64.574 62.8199 65.1267 63.2282 65.5699 63.7424C66.0131 64.2565 66.3354 64.8633 66.5134 65.5184C66.6482 65.8563 66.7148 66.2175 66.7092 66.5813C66.7036 66.9451 66.626 67.3042 66.4809 67.6378C66.3357 67.9714 66.1259 68.2729 65.8636 68.525C65.6012 68.7771 65.2915 68.9747 64.9524 69.1064C63.1248 69.8639 61.1626 70.2432 59.1844 70.2214Z" fill="#149BA1"/>
  <path d="M76.9812 33.4964C71.2182 38.3284 70.1292 42.3684 72.5612 49.4784C72.2672 49.4944 71.9902 49.5284 71.7162 49.5284C62.5829 49.5284 53.4495 49.5284 44.3162 49.5284C42.956 49.5937 41.605 49.2729 40.4195 48.6029C39.2339 47.933 38.262 46.9413 37.6162 45.7424C36.9306 44.5665 36.5874 43.2223 36.6254 41.8617C36.6634 40.5011 37.0811 39.1782 37.8312 38.0424C38.9558 36.2392 40.5036 34.7377 42.3402 33.6684C45.8146 31.5638 49.698 30.2247 53.7312 29.7404C59.994 28.7488 66.4052 29.3351 72.3842 31.4464C73.9222 31.9984 75.3742 32.7704 76.9812 33.4964Z" fill="#149BA1"/>
  <path d="M59.7122 0.000352812C62.309 0.00930756 64.8447 0.788551 66.9984 2.23943C69.1521 3.6903 70.8269 5.74758 71.8107 8.1508C72.7945 10.554 73.0432 13.1951 72.5252 15.7397C72.0072 18.2843 70.7459 20.6181 68.9009 22.4454C67.0558 24.2728 64.7101 25.5117 62.1606 26.0052C59.6111 26.4986 56.9726 26.2246 54.5789 25.2177C52.1853 24.2108 50.1442 22.5163 48.7141 20.3488C47.284 18.1812 46.5292 15.6381 46.5452 13.0414C46.5491 11.3193 46.8932 9.61492 47.5579 8.02625C48.2225 6.43759 49.1946 4.99592 50.4181 3.78408C51.6416 2.57225 53.0926 1.61414 54.6876 0.9648C56.2825 0.315464 57.9901 -0.0122995 59.7122 0.000352812Z" fill="#149BA1"/>
  <path d="M93.1124 43.8313C93.1132 45.7543 92.5442 47.6343 91.4773 49.2342C90.4104 50.834 88.8935 52.0819 87.1179 52.8203C85.3424 53.5586 83.3879 53.7544 81.5012 53.3829C79.6145 53.0113 77.8801 52.0891 76.5171 50.7326C75.1541 49.3762 74.2236 47.6463 73.8429 45.7614C73.4623 43.8765 73.6487 41.9211 74.3785 40.1421C75.1083 38.363 76.3488 36.84 77.9435 35.7654C79.5382 34.6909 81.4155 34.1128 83.3384 34.1043C84.6216 34.0913 85.8946 34.3337 87.0832 34.8173C88.2718 35.3009 89.3524 36.0162 90.262 36.9214C91.1716 37.8266 91.892 38.9037 92.3814 40.09C92.8707 41.2763 93.1192 42.5481 93.1124 43.8313ZM81.4774 45.7393C81.4774 46.7293 81.4544 47.6073 81.4844 48.4793C81.4557 48.9086 81.5695 49.3354 81.8082 49.6934C82.0469 50.0514 82.3971 50.3207 82.8044 50.4593C83.0926 50.554 83.3995 50.5777 83.6988 50.5283C83.9982 50.479 84.2812 50.3582 84.5239 50.1761C84.7665 49.994 84.9617 49.756 85.0927 49.4824C85.2237 49.2088 85.2867 48.9075 85.2764 48.6043C85.3164 47.6803 85.2834 46.7493 85.2834 45.7393C86.2404 45.7393 87.0594 45.7393 87.8744 45.7393C89.2274 45.7293 90.0744 45.0163 90.0744 43.8843C90.0695 43.6117 90.0076 43.3432 89.8928 43.0959C89.7779 42.8486 89.6127 42.628 89.4076 42.4484C89.2025 42.2687 88.9621 42.1339 88.7019 42.0526C88.4416 41.9713 88.1673 41.9453 87.8964 41.9763C87.0544 41.9663 86.2134 41.9763 85.4204 41.9763C85.3731 41.8887 85.3365 41.7957 85.3114 41.6993C85.2984 40.9373 85.3114 40.1713 85.2714 39.4123C85.2629 39.0044 85.1838 38.6011 85.0374 38.2203C84.8648 37.8592 84.5776 37.5653 84.2205 37.3845C83.8635 37.2036 83.4567 37.1459 83.0634 37.2203C82.6508 37.2787 82.2715 37.4791 81.9908 37.787C81.7101 38.095 81.5455 38.4911 81.5254 38.9073C81.4524 39.8913 81.5094 40.8843 81.5094 41.9773C80.4634 41.9773 79.5624 41.9543 78.6604 41.9843C78.4023 41.9779 78.1456 42.0234 77.9055 42.1183C77.6655 42.2132 77.4469 42.3554 77.263 42.5366C77.0791 42.7177 76.9335 42.934 76.8349 43.1726C76.7364 43.4112 76.6869 43.6672 76.6894 43.9253C76.699 44.1753 76.7581 44.4208 76.8633 44.6477C76.9685 44.8746 77.1177 45.0784 77.3023 45.2472C77.4868 45.4161 77.703 45.5466 77.9384 45.6312C78.1738 45.7159 78.4236 45.7529 78.6734 45.7403C79.5494 45.7523 80.4314 45.7383 81.4774 45.7383V45.7393Z" fill="#149BA1"/>
</svg>