<svg width="729" height="514" viewBox="0 0 729 514" fill="none" preserveAspectRatio="xMinYMid meet" xmlns="http://www.w3.org/2000/svg">
<g filter="url(#filter0_b_0_1)">
<rect x="64.8281" y="285.859" width="314.727" height="227.358" rx="11.4241" fill="url(#paint0_linear_0_1)"/>
<rect x="65.2089" y="286.24" width="313.965" height="226.596" rx="11.0433" stroke="url(#paint1_linear_0_1)" stroke-width="0.761606"/>
</g>
<path d="M166.689 458.748H162.928V446.562H166.855C168.037 446.562 169.049 446.806 169.89 447.294C170.731 447.778 171.375 448.474 171.824 449.382C172.272 450.287 172.496 451.369 172.496 452.631C172.496 453.9 172.27 454.993 171.818 455.909C171.365 456.822 170.707 457.524 169.842 458.016C168.978 458.504 167.926 458.748 166.689 458.748ZM164.404 457.439H166.594C167.601 457.439 168.436 457.244 169.099 456.855C169.761 456.467 170.255 455.913 170.58 455.195C170.905 454.477 171.068 453.623 171.068 452.631C171.068 451.647 170.907 450.8 170.586 450.09C170.265 449.376 169.785 448.829 169.146 448.448C168.507 448.063 167.712 447.871 166.76 447.871H164.404V457.439ZM177.47 458.962C176.891 458.962 176.366 458.853 175.893 458.635C175.421 458.412 175.047 458.093 174.769 457.677C174.491 457.256 174.352 456.748 174.352 456.153C174.352 455.63 174.456 455.205 174.662 454.88C174.868 454.551 175.144 454.293 175.489 454.107C175.834 453.92 176.215 453.781 176.631 453.69C177.052 453.595 177.474 453.519 177.899 453.464C178.454 453.393 178.904 453.339 179.249 453.303C179.598 453.264 179.852 453.198 180.011 453.107C180.174 453.016 180.255 452.857 180.255 452.631V452.583C180.255 451.996 180.094 451.54 179.773 451.215C179.456 450.89 178.974 450.727 178.327 450.727C177.657 450.727 177.131 450.874 176.75 451.167C176.369 451.461 176.102 451.774 175.947 452.107L174.614 451.631C174.852 451.076 175.17 450.644 175.566 450.334C175.967 450.021 176.403 449.803 176.875 449.68C177.351 449.553 177.819 449.489 178.279 449.489C178.573 449.489 178.91 449.525 179.291 449.596C179.676 449.664 180.047 449.805 180.404 450.019C180.765 450.233 181.064 450.556 181.302 450.989C181.54 451.421 181.659 452 181.659 452.726V458.748H180.255V457.51H180.183C180.088 457.708 179.93 457.921 179.707 458.147C179.485 458.373 179.19 458.565 178.821 458.724C178.452 458.882 178.002 458.962 177.47 458.962ZM177.684 457.7C178.24 457.7 178.708 457.591 179.089 457.373C179.473 457.155 179.763 456.873 179.957 456.528C180.156 456.183 180.255 455.82 180.255 455.439V454.154C180.195 454.226 180.064 454.291 179.862 454.35C179.664 454.406 179.434 454.456 179.172 454.499C178.914 454.539 178.662 454.575 178.416 454.606C178.174 454.634 177.978 454.658 177.827 454.678C177.462 454.725 177.121 454.803 176.804 454.91C176.49 455.013 176.237 455.17 176.042 455.38C175.852 455.586 175.757 455.868 175.757 456.225C175.757 456.713 175.937 457.082 176.298 457.331C176.663 457.577 177.125 457.7 177.684 457.7ZM188.197 449.608V450.798H183.46V449.608H188.197ZM184.841 447.419H186.245V456.13C186.245 456.526 186.303 456.824 186.418 457.022C186.537 457.216 186.687 457.347 186.87 457.415C187.056 457.478 187.253 457.51 187.459 457.51C187.614 457.51 187.741 457.502 187.84 457.486C187.939 457.466 188.018 457.45 188.078 457.439L188.363 458.7C188.268 458.736 188.135 458.771 187.965 458.807C187.794 458.847 187.578 458.867 187.316 458.867C186.919 458.867 186.531 458.781 186.15 458.611C185.773 458.44 185.46 458.18 185.21 457.831C184.964 457.482 184.841 457.042 184.841 456.51V447.419ZM192.998 458.962C192.419 458.962 191.894 458.853 191.422 458.635C190.95 458.412 190.575 458.093 190.297 457.677C190.019 457.256 189.881 456.748 189.881 456.153C189.881 455.63 189.984 455.205 190.19 454.88C190.396 454.551 190.672 454.293 191.017 454.107C191.362 453.92 191.743 453.781 192.159 453.69C192.58 453.595 193.002 453.519 193.427 453.464C193.982 453.393 194.432 453.339 194.777 453.303C195.127 453.264 195.38 453.198 195.539 453.107C195.702 453.016 195.783 452.857 195.783 452.631V452.583C195.783 451.996 195.622 451.54 195.301 451.215C194.984 450.89 194.502 450.727 193.855 450.727C193.185 450.727 192.659 450.874 192.278 451.167C191.898 451.461 191.63 451.774 191.475 452.107L190.142 451.631C190.38 451.076 190.698 450.644 191.094 450.334C191.495 450.021 191.931 449.803 192.403 449.68C192.879 449.553 193.347 449.489 193.808 449.489C194.101 449.489 194.438 449.525 194.819 449.596C195.204 449.664 195.575 449.805 195.932 450.019C196.293 450.233 196.592 450.556 196.83 450.989C197.068 451.421 197.187 452 197.187 452.726V458.748H195.783V457.51H195.712C195.616 457.708 195.458 457.921 195.236 458.147C195.013 458.373 194.718 458.565 194.349 458.724C193.98 458.882 193.53 458.962 192.998 458.962ZM193.213 457.7C193.768 457.7 194.236 457.591 194.617 457.373C195.002 457.155 195.291 456.873 195.485 456.528C195.684 456.183 195.783 455.82 195.783 455.439V454.154C195.723 454.226 195.593 454.291 195.39 454.35C195.192 454.406 194.962 454.456 194.7 454.499C194.442 454.539 194.19 454.575 193.944 454.606C193.702 454.634 193.506 454.658 193.355 454.678C192.99 454.725 192.649 454.803 192.332 454.91C192.019 455.013 191.765 455.17 191.57 455.38C191.38 455.586 191.285 455.868 191.285 456.225C191.285 456.713 191.465 457.082 191.826 457.331C192.191 457.577 192.653 457.7 193.213 457.7ZM204.653 458.748V446.562H208.77C209.726 446.562 210.508 446.734 211.115 447.08C211.726 447.421 212.178 447.883 212.471 448.466C212.765 449.049 212.912 449.7 212.912 450.417C212.912 451.135 212.765 451.788 212.471 452.375C212.182 452.962 211.734 453.43 211.127 453.779C210.52 454.124 209.742 454.297 208.794 454.297H205.843V452.988H208.747C209.401 452.988 209.927 452.875 210.323 452.649C210.72 452.423 211.008 452.117 211.186 451.732C211.369 451.344 211.46 450.905 211.46 450.417C211.46 449.93 211.369 449.493 211.186 449.108C211.008 448.724 210.718 448.422 210.317 448.204C209.917 447.982 209.385 447.871 208.723 447.871H206.129V458.748H204.653ZM215.098 458.748V449.608H216.455V450.989H216.55C216.717 450.536 217.018 450.17 217.455 449.888C217.891 449.606 218.383 449.465 218.93 449.465C219.033 449.465 219.162 449.467 219.317 449.471C219.472 449.475 219.589 449.481 219.668 449.489V450.917C219.62 450.905 219.511 450.888 219.341 450.864C219.174 450.836 218.998 450.822 218.811 450.822C218.367 450.822 217.97 450.915 217.621 451.102C217.276 451.284 217.002 451.538 216.8 451.863C216.602 452.185 216.503 452.552 216.503 452.964V458.748H215.098ZM224.767 458.938C223.942 458.938 223.218 458.742 222.595 458.349C221.977 457.956 221.493 457.407 221.144 456.701C220.798 455.995 220.626 455.17 220.626 454.226C220.626 453.274 220.798 452.442 221.144 451.732C221.493 451.022 221.977 450.471 222.595 450.078C223.218 449.686 223.942 449.489 224.767 449.489C225.592 449.489 226.314 449.686 226.933 450.078C227.556 450.471 228.04 451.022 228.385 451.732C228.734 452.442 228.908 453.274 228.908 454.226C228.908 455.17 228.734 455.995 228.385 456.701C228.04 457.407 227.556 457.956 226.933 458.349C226.314 458.742 225.592 458.938 224.767 458.938ZM224.767 457.677C225.394 457.677 225.91 457.516 226.314 457.195C226.719 456.873 227.018 456.451 227.213 455.927C227.407 455.404 227.504 454.836 227.504 454.226C227.504 453.615 227.407 453.045 227.213 452.518C227.018 451.99 226.719 451.564 226.314 451.239C225.91 450.913 225.394 450.751 224.767 450.751C224.14 450.751 223.625 450.913 223.22 451.239C222.816 451.564 222.516 451.99 222.322 452.518C222.127 453.045 222.03 453.615 222.03 454.226C222.03 454.836 222.127 455.404 222.322 455.927C222.516 456.451 222.816 456.873 223.22 457.195C223.625 457.516 224.14 457.677 224.767 457.677ZM235.027 449.608V450.798H230.29V449.608H235.027ZM231.671 447.419H233.075V456.13C233.075 456.526 233.132 456.824 233.247 457.022C233.366 457.216 233.517 457.347 233.7 457.415C233.886 457.478 234.082 457.51 234.289 457.51C234.443 457.51 234.57 457.502 234.67 457.486C234.769 457.466 234.848 457.45 234.908 457.439L235.193 458.7C235.098 458.736 234.965 458.771 234.794 458.807C234.624 458.847 234.408 458.867 234.146 458.867C233.749 458.867 233.361 458.781 232.98 458.611C232.603 458.44 232.29 458.18 232.04 457.831C231.794 457.482 231.671 457.042 231.671 456.51V447.419ZM240.872 458.938C239.992 458.938 239.232 458.744 238.594 458.355C237.959 457.962 237.469 457.415 237.124 456.713C236.783 456.007 236.612 455.185 236.612 454.249C236.612 453.313 236.783 452.488 237.124 451.774C237.469 451.056 237.949 450.497 238.564 450.096C239.183 449.692 239.905 449.489 240.73 449.489C241.206 449.489 241.676 449.569 242.14 449.727C242.604 449.886 243.026 450.144 243.407 450.501C243.788 450.854 244.091 451.322 244.318 451.905C244.544 452.488 244.657 453.206 244.657 454.059V454.654H237.612V453.44H243.229C243.229 452.924 243.126 452.464 242.919 452.06C242.717 451.655 242.427 451.336 242.051 451.102C241.678 450.868 241.237 450.751 240.73 450.751C240.17 450.751 239.686 450.89 239.278 451.167C238.873 451.441 238.562 451.798 238.344 452.238C238.126 452.679 238.016 453.151 238.016 453.654V454.464C238.016 455.154 238.135 455.739 238.373 456.219C238.615 456.695 238.951 457.058 239.379 457.308C239.807 457.554 240.305 457.677 240.872 457.677C241.241 457.677 241.575 457.625 241.872 457.522C242.174 457.415 242.433 457.256 242.652 457.046C242.87 456.832 243.038 456.566 243.157 456.249L244.514 456.629C244.371 457.089 244.131 457.494 243.794 457.843C243.457 458.188 243.04 458.458 242.544 458.652C242.049 458.843 241.491 458.938 240.872 458.938ZM250.506 458.938C249.649 458.938 248.911 458.736 248.292 458.331C247.673 457.926 247.197 457.369 246.864 456.659C246.531 455.949 246.364 455.138 246.364 454.226C246.364 453.297 246.535 452.478 246.876 451.768C247.221 451.054 247.701 450.497 248.316 450.096C248.935 449.692 249.657 449.489 250.482 449.489C251.124 449.489 251.704 449.608 252.219 449.846C252.735 450.084 253.157 450.417 253.487 450.846C253.816 451.274 254.02 451.774 254.099 452.345H252.695C252.588 451.929 252.35 451.56 251.981 451.239C251.616 450.913 251.124 450.751 250.506 450.751C249.958 450.751 249.478 450.893 249.066 451.179C248.657 451.461 248.338 451.859 248.108 452.375C247.882 452.887 247.769 453.488 247.769 454.178C247.769 454.884 247.88 455.499 248.102 456.022C248.328 456.546 248.645 456.953 249.054 457.242C249.466 457.532 249.95 457.677 250.506 457.677C250.871 457.677 251.202 457.613 251.499 457.486C251.797 457.359 252.049 457.177 252.255 456.939C252.461 456.701 252.608 456.415 252.695 456.082H254.099C254.02 456.621 253.824 457.107 253.51 457.54C253.201 457.968 252.79 458.309 252.279 458.563C251.771 458.813 251.18 458.938 250.506 458.938ZM260.127 449.608V450.798H255.391V449.608H260.127ZM256.771 447.419H258.175V456.13C258.175 456.526 258.233 456.824 258.348 457.022C258.467 457.216 258.617 457.347 258.8 457.415C258.986 457.478 259.183 457.51 259.389 457.51C259.544 457.51 259.671 457.502 259.77 457.486C259.869 457.466 259.948 457.45 260.008 457.439L260.293 458.7C260.198 458.736 260.065 458.771 259.895 458.807C259.724 458.847 259.508 458.867 259.246 458.867C258.85 458.867 258.461 458.781 258.08 458.611C257.703 458.44 257.39 458.18 257.14 457.831C256.894 457.482 256.771 457.042 256.771 456.51V447.419ZM262.239 458.748V449.608H263.643V458.748H262.239ZM262.953 448.085C262.679 448.085 262.443 447.992 262.245 447.805C262.051 447.619 261.953 447.395 261.953 447.133C261.953 446.871 262.051 446.647 262.245 446.461C262.443 446.274 262.679 446.181 262.953 446.181C263.227 446.181 263.461 446.274 263.655 446.461C263.854 446.647 263.953 446.871 263.953 447.133C263.953 447.395 263.854 447.619 263.655 447.805C263.461 447.992 263.227 448.085 262.953 448.085ZM269.928 458.938C269.103 458.938 268.379 458.742 267.756 458.349C267.137 457.956 266.654 457.407 266.304 456.701C265.959 455.995 265.787 455.17 265.787 454.226C265.787 453.274 265.959 452.442 266.304 451.732C266.654 451.022 267.137 450.471 267.756 450.078C268.379 449.686 269.103 449.489 269.928 449.489C270.753 449.489 271.475 449.686 272.094 450.078C272.717 450.471 273.201 451.022 273.546 451.732C273.895 452.442 274.069 453.274 274.069 454.226C274.069 455.17 273.895 455.995 273.546 456.701C273.201 457.407 272.717 457.956 272.094 458.349C271.475 458.742 270.753 458.938 269.928 458.938ZM269.928 457.677C270.555 457.677 271.07 457.516 271.475 457.195C271.88 456.873 272.179 456.451 272.373 455.927C272.568 455.404 272.665 454.836 272.665 454.226C272.665 453.615 272.568 453.045 272.373 452.518C272.179 451.99 271.88 451.564 271.475 451.239C271.07 450.913 270.555 450.751 269.928 450.751C269.301 450.751 268.786 450.913 268.381 451.239C267.976 451.564 267.677 451.99 267.483 452.518C267.288 453.045 267.191 453.615 267.191 454.226C267.191 454.836 267.288 455.404 267.483 455.927C267.677 456.451 267.976 456.873 268.381 457.195C268.786 457.516 269.301 457.677 269.928 457.677ZM277.617 453.25V458.748H276.213V449.608H277.569V451.036H277.688C277.903 450.572 278.228 450.199 278.664 449.918C279.101 449.632 279.664 449.489 280.354 449.489C280.973 449.489 281.514 449.616 281.978 449.87C282.442 450.12 282.803 450.501 283.061 451.012C283.319 451.52 283.448 452.163 283.448 452.94V458.748H282.044V453.036C282.044 452.318 281.857 451.758 281.485 451.358C281.112 450.953 280.6 450.751 279.949 450.751C279.501 450.751 279.101 450.848 278.747 451.042C278.398 451.237 278.123 451.52 277.92 451.893C277.718 452.266 277.617 452.718 277.617 453.25Z" fill="#05D776"/>
<g clip-path="url(#clip0_0_1)">
<path d="M247.866 408.97H196.515C194.153 408.97 192.136 408.139 190.464 406.477C188.793 404.815 187.957 402.809 187.957 400.46V366.42C187.957 365.268 188.369 364.271 189.194 363.429C190.019 362.586 191.033 362.165 192.236 362.165H224.33C224.33 361.855 224.587 361.235 225.099 360.304C225.612 359.373 226.113 358.509 226.604 357.711L227.406 356.581C227.718 355.739 228.342 355.04 229.278 354.486C230.214 353.932 231.195 353.655 232.22 353.655H248.267C249.337 353.655 250.34 353.932 251.276 354.486C252.212 355.04 252.836 355.739 253.148 356.581C255.333 359.417 256.425 361.279 256.425 362.165V400.46C256.425 402.809 255.589 404.815 253.917 406.477C252.246 408.139 250.229 408.97 247.866 408.97ZM230.749 379.185C230.749 376.836 229.914 374.831 228.242 373.168C226.57 371.506 224.553 370.675 222.191 370.675C219.828 370.675 217.811 371.506 216.14 373.168C214.468 374.831 213.632 376.836 213.632 379.185C213.632 380.914 214.134 382.498 215.137 383.939C216.14 385.379 217.444 386.41 219.048 387.03L213.632 400.46H230.749L225.333 387.03C226.938 386.41 228.242 385.379 229.245 383.939C230.248 382.498 230.749 380.914 230.749 379.185ZM191.033 352.326C191.345 351.484 191.969 350.785 192.905 350.231C193.841 349.677 194.822 349.4 195.847 349.4H211.894C212.964 349.4 213.967 349.677 214.903 350.231C215.839 350.785 216.485 351.484 216.842 352.326L220.051 357.91H187.957L191.033 352.326Z" fill="url(#paint2_linear_0_1)"/>
</g>
<g filter="url(#filter1_b_0_1)">
<rect x="412.889" y="282.881" width="315.72" height="227.358" rx="11.4241" fill="url(#paint3_linear_0_1)"/>
<rect x="413.269" y="283.262" width="314.958" height="226.596" rx="11.0433" stroke="url(#paint4_linear_0_1)" stroke-width="0.761606"/>
</g>
<path d="M520.172 455.77V443.584H527.479V444.893H521.648V449.01H526.932V450.319H521.648V455.77H520.172ZM532.505 455.984C531.926 455.984 531.401 455.875 530.928 455.656C530.456 455.434 530.082 455.115 529.804 454.699C529.526 454.278 529.387 453.77 529.387 453.175C529.387 452.652 529.491 452.227 529.697 451.902C529.903 451.573 530.179 451.315 530.524 451.128C530.869 450.942 531.25 450.803 531.666 450.712C532.087 450.617 532.509 450.541 532.934 450.486C533.489 450.414 533.939 450.361 534.284 450.325C534.633 450.286 534.887 450.22 535.046 450.129C535.209 450.038 535.29 449.879 535.29 449.653V449.605C535.29 449.018 535.129 448.562 534.808 448.237C534.491 447.912 534.009 447.749 533.362 447.749C532.692 447.749 532.166 447.896 531.785 448.189C531.404 448.483 531.137 448.796 530.982 449.129L529.649 448.653C529.887 448.098 530.205 447.666 530.601 447.356C531.002 447.043 531.438 446.825 531.91 446.702C532.386 446.575 532.854 446.511 533.314 446.511C533.608 446.511 533.945 446.547 534.326 446.618C534.711 446.686 535.082 446.827 535.439 447.041C535.8 447.255 536.099 447.578 536.337 448.011C536.575 448.443 536.694 449.022 536.694 449.748V455.77H535.29V454.532H535.218C535.123 454.73 534.965 454.942 534.742 455.169C534.52 455.395 534.225 455.587 533.856 455.746C533.487 455.904 533.037 455.984 532.505 455.984ZM532.719 454.722C533.275 454.722 533.743 454.613 534.124 454.395C534.508 454.177 534.798 453.895 534.992 453.55C535.191 453.205 535.29 452.842 535.29 452.461V451.176C535.23 451.247 535.099 451.313 534.897 451.372C534.699 451.428 534.469 451.478 534.207 451.521C533.949 451.561 533.697 451.597 533.451 451.628C533.209 451.656 533.013 451.68 532.862 451.7C532.497 451.747 532.156 451.825 531.839 451.932C531.525 452.035 531.272 452.192 531.077 452.402C530.887 452.608 530.792 452.89 530.792 453.247C530.792 453.735 530.972 454.104 531.333 454.353C531.698 454.599 532.16 454.722 532.719 454.722ZM545.731 448.677L544.469 449.034C544.39 448.824 544.273 448.62 544.118 448.421C543.967 448.219 543.761 448.052 543.499 447.921C543.238 447.791 542.902 447.725 542.494 447.725C541.935 447.725 541.468 447.854 541.096 448.112C540.727 448.366 540.542 448.689 540.542 449.082C540.542 449.431 540.669 449.706 540.923 449.909C541.177 450.111 541.574 450.28 542.113 450.414L543.47 450.748C544.287 450.946 544.896 451.249 545.296 451.658C545.697 452.063 545.897 452.584 545.897 453.223C545.897 453.747 545.747 454.215 545.445 454.627C545.148 455.04 544.731 455.365 544.196 455.603C543.66 455.841 543.037 455.96 542.327 455.96C541.395 455.96 540.624 455.758 540.013 455.353C539.402 454.948 539.015 454.357 538.852 453.58L540.185 453.247C540.312 453.739 540.552 454.107 540.905 454.353C541.262 454.599 541.728 454.722 542.303 454.722C542.958 454.722 543.478 454.583 543.862 454.306C544.251 454.024 544.445 453.687 544.445 453.294C544.445 452.977 544.334 452.711 544.112 452.497C543.89 452.279 543.549 452.116 543.089 452.009L541.566 451.652C540.729 451.454 540.114 451.146 539.721 450.73C539.332 450.309 539.138 449.784 539.138 449.153C539.138 448.637 539.283 448.181 539.572 447.785C539.866 447.388 540.265 447.077 540.768 446.85C541.276 446.624 541.851 446.511 542.494 446.511C543.398 446.511 544.108 446.71 544.624 447.106C545.144 447.503 545.513 448.027 545.731 448.677ZM551.986 446.63V447.82H547.249V446.63H551.986ZM548.63 444.441H550.034V453.152C550.034 453.548 550.092 453.846 550.207 454.044C550.326 454.238 550.476 454.369 550.659 454.437C550.845 454.5 551.042 454.532 551.248 454.532C551.403 454.532 551.53 454.524 551.629 454.508C551.728 454.488 551.807 454.472 551.867 454.461L552.152 455.722C552.057 455.758 551.924 455.793 551.754 455.829C551.583 455.869 551.367 455.889 551.105 455.889C550.708 455.889 550.32 455.803 549.939 455.633C549.562 455.462 549.249 455.202 548.999 454.853C548.753 454.504 548.63 454.064 548.63 453.532V444.441ZM562.261 455.936C561.46 455.936 560.77 455.789 560.191 455.496C559.612 455.202 559.165 454.8 558.852 454.288C558.539 453.776 558.382 453.191 558.382 452.533C558.382 452.025 558.489 451.575 558.703 451.182C558.921 450.785 559.221 450.418 559.602 450.081C559.987 449.74 560.429 449.399 560.929 449.058L562.69 447.749C563.035 447.523 563.311 447.281 563.517 447.023C563.727 446.765 563.832 446.428 563.832 446.011C563.832 445.702 563.695 445.403 563.422 445.113C563.152 444.823 562.797 444.679 562.357 444.679C562.047 444.679 561.774 444.758 561.536 444.917C561.301 445.071 561.117 445.27 560.982 445.512C560.851 445.75 560.786 445.996 560.786 446.249C560.786 446.535 560.863 446.825 561.018 447.118C561.177 447.408 561.377 447.705 561.619 448.011C561.865 448.312 562.119 448.622 562.38 448.939L567.973 455.77H566.284L561.666 450.2C561.238 449.685 560.849 449.217 560.5 448.796C560.151 448.376 559.873 447.961 559.667 447.553C559.461 447.144 559.358 446.702 559.358 446.226C559.358 445.678 559.479 445.198 559.721 444.786C559.967 444.369 560.31 444.046 560.75 443.816C561.194 443.582 561.714 443.465 562.309 443.465C562.92 443.465 563.445 443.584 563.886 443.822C564.326 444.056 564.665 444.367 564.903 444.756C565.141 445.141 565.26 445.559 565.26 446.011C565.26 446.595 565.115 447.1 564.826 447.529C564.536 447.957 564.142 448.356 563.642 448.725L561.214 450.533C560.667 450.938 560.296 451.331 560.102 451.712C559.907 452.092 559.81 452.366 559.81 452.533C559.81 452.914 559.909 453.269 560.107 453.598C560.306 453.927 560.585 454.193 560.946 454.395C561.307 454.597 561.73 454.699 562.214 454.699C562.674 454.699 563.122 454.601 563.559 454.407C563.995 454.209 564.39 453.923 564.743 453.55C565.1 453.177 565.381 452.729 565.587 452.205C565.798 451.682 565.903 451.093 565.903 450.438H567.259C567.259 451.247 567.166 451.908 566.98 452.42C566.793 452.931 566.583 453.332 566.349 453.622C566.115 453.911 565.927 454.127 565.784 454.27C565.736 454.33 565.693 454.389 565.653 454.449C565.613 454.508 565.57 454.568 565.522 454.627C565.129 455.067 564.634 455.397 564.035 455.615C563.436 455.829 562.845 455.936 562.261 455.936ZM581.095 446.63C581.023 446.027 580.734 445.559 580.226 445.226C579.718 444.893 579.096 444.726 578.358 444.726C577.818 444.726 577.346 444.814 576.942 444.988C576.541 445.163 576.228 445.403 576.002 445.708C575.779 446.013 575.668 446.361 575.668 446.749C575.668 447.075 575.746 447.354 575.9 447.588C576.059 447.818 576.261 448.011 576.507 448.165C576.753 448.316 577.011 448.441 577.281 448.54C577.551 448.635 577.798 448.713 578.025 448.772L579.262 449.105C579.58 449.189 579.933 449.304 580.321 449.451C580.714 449.597 581.089 449.798 581.446 450.052C581.807 450.301 582.104 450.623 582.338 451.015C582.572 451.408 582.689 451.89 582.689 452.461C582.689 453.12 582.517 453.715 582.172 454.246C581.831 454.778 581.331 455.2 580.672 455.514C580.018 455.827 579.223 455.984 578.286 455.984C577.414 455.984 576.658 455.843 576.019 455.561C575.385 455.28 574.885 454.887 574.52 454.383C574.159 453.879 573.955 453.294 573.907 452.628H575.43C575.47 453.088 575.625 453.469 575.894 453.77C576.168 454.068 576.513 454.29 576.93 454.437C577.35 454.58 577.802 454.651 578.286 454.651C578.85 454.651 579.355 454.56 579.804 454.377C580.252 454.191 580.607 453.933 580.869 453.604C581.131 453.271 581.261 452.882 581.261 452.438C581.261 452.033 581.148 451.704 580.922 451.45C580.696 451.196 580.399 450.99 580.03 450.831C579.661 450.672 579.262 450.533 578.834 450.414L577.334 449.986C576.382 449.712 575.629 449.322 575.073 448.814C574.518 448.306 574.24 447.642 574.24 446.821C574.24 446.138 574.425 445.543 574.794 445.036C575.167 444.524 575.666 444.127 576.293 443.846C576.924 443.56 577.628 443.417 578.405 443.417C579.191 443.417 579.889 443.558 580.5 443.84C581.111 444.117 581.595 444.498 581.952 444.982C582.313 445.466 582.503 446.015 582.523 446.63H581.095ZM588.757 455.96C587.876 455.96 587.117 455.766 586.478 455.377C585.843 454.984 585.354 454.437 585.008 453.735C584.667 453.029 584.497 452.207 584.497 451.271C584.497 450.335 584.667 449.51 585.008 448.796C585.354 448.078 585.834 447.519 586.448 447.118C587.067 446.714 587.789 446.511 588.614 446.511C589.09 446.511 589.56 446.591 590.024 446.749C590.488 446.908 590.911 447.166 591.292 447.523C591.672 447.876 591.976 448.344 592.202 448.927C592.428 449.51 592.541 450.228 592.541 451.081V451.676H585.496V450.462H591.113C591.113 449.946 591.01 449.486 590.804 449.082C590.601 448.677 590.312 448.358 589.935 448.124C589.562 447.89 589.122 447.773 588.614 447.773C588.055 447.773 587.571 447.912 587.162 448.189C586.758 448.463 586.446 448.82 586.228 449.26C586.01 449.7 585.901 450.173 585.901 450.676V451.485C585.901 452.176 586.02 452.761 586.258 453.241C586.5 453.717 586.835 454.08 587.264 454.33C587.692 454.576 588.19 454.699 588.757 454.699C589.126 454.699 589.459 454.647 589.757 454.544C590.058 454.437 590.318 454.278 590.536 454.068C590.754 453.854 590.923 453.588 591.042 453.271L592.398 453.651C592.256 454.111 592.016 454.516 591.678 454.865C591.341 455.21 590.925 455.48 590.429 455.674C589.933 455.865 589.376 455.96 588.757 455.96ZM598.39 455.96C597.533 455.96 596.795 455.758 596.177 455.353C595.558 454.948 595.082 454.391 594.749 453.681C594.415 452.971 594.249 452.16 594.249 451.247C594.249 450.319 594.419 449.5 594.761 448.79C595.106 448.076 595.586 447.519 596.2 447.118C596.819 446.714 597.541 446.511 598.366 446.511C599.009 446.511 599.588 446.63 600.104 446.868C600.619 447.106 601.042 447.439 601.371 447.868C601.7 448.296 601.905 448.796 601.984 449.367H600.58C600.473 448.951 600.235 448.582 599.866 448.261C599.501 447.935 599.009 447.773 598.39 447.773C597.843 447.773 597.363 447.915 596.95 448.201C596.542 448.483 596.222 448.881 595.992 449.397C595.766 449.909 595.653 450.51 595.653 451.2C595.653 451.906 595.764 452.521 595.986 453.044C596.212 453.568 596.53 453.975 596.938 454.264C597.351 454.554 597.835 454.699 598.39 454.699C598.755 454.699 599.086 454.635 599.384 454.508C599.681 454.381 599.933 454.199 600.139 453.961C600.346 453.723 600.492 453.437 600.58 453.104H601.984C601.905 453.643 601.708 454.129 601.395 454.562C601.085 454.99 600.675 455.331 600.163 455.585C599.655 455.835 599.064 455.96 598.39 455.96ZM609.796 452.033V446.63H611.201V455.77H609.796V454.223H609.701C609.487 454.687 609.154 455.081 608.702 455.407C608.249 455.728 607.678 455.889 606.988 455.889C606.417 455.889 605.909 455.764 605.465 455.514C605.02 455.26 604.671 454.879 604.418 454.371C604.164 453.86 604.037 453.215 604.037 452.438V446.63H605.441V452.342C605.441 453.009 605.627 453.54 606 453.937C606.377 454.334 606.857 454.532 607.44 454.532C607.789 454.532 608.144 454.443 608.505 454.264C608.87 454.086 609.176 453.812 609.421 453.443C609.671 453.074 609.796 452.604 609.796 452.033ZM613.772 455.77V446.63H615.129V448.011H615.224C615.391 447.558 615.692 447.192 616.129 446.91C616.565 446.628 617.057 446.487 617.604 446.487C617.707 446.487 617.836 446.489 617.991 446.493C618.146 446.497 618.263 446.503 618.342 446.511V447.939C618.294 447.927 618.185 447.91 618.015 447.886C617.848 447.858 617.672 447.844 617.485 447.844C617.041 447.844 616.644 447.937 616.295 448.124C615.95 448.306 615.676 448.56 615.474 448.885C615.276 449.207 615.177 449.574 615.177 449.986V455.77H613.772ZM623.56 455.96C622.68 455.96 621.92 455.766 621.281 455.377C620.647 454.984 620.157 454.437 619.812 453.735C619.471 453.029 619.3 452.207 619.3 451.271C619.3 450.335 619.471 449.51 619.812 448.796C620.157 448.078 620.637 447.519 621.252 447.118C621.87 446.714 622.592 446.511 623.417 446.511C623.893 446.511 624.364 446.591 624.828 446.749C625.292 446.908 625.714 447.166 626.095 447.523C626.476 447.876 626.779 448.344 627.005 448.927C627.231 449.51 627.345 450.228 627.345 451.081V451.676H620.3V450.462H625.917C625.917 449.946 625.813 449.486 625.607 449.082C625.405 448.677 625.115 448.358 624.738 448.124C624.366 447.89 623.925 447.773 623.417 447.773C622.858 447.773 622.374 447.912 621.966 448.189C621.561 448.463 621.25 448.82 621.032 449.26C620.813 449.7 620.704 450.173 620.704 450.676V451.485C620.704 452.176 620.823 452.761 621.061 453.241C621.303 453.717 621.638 454.08 622.067 454.33C622.495 454.576 622.993 454.699 623.56 454.699C623.929 454.699 624.262 454.647 624.56 454.544C624.861 454.437 625.121 454.278 625.339 454.068C625.558 453.854 625.726 453.588 625.845 453.271L627.202 453.651C627.059 454.111 626.819 454.516 626.482 454.865C626.145 455.21 625.728 455.48 625.232 455.674C624.736 455.865 624.179 455.96 623.56 455.96Z" fill="#05D776"/>
<g clip-path="url(#clip1_0_1)">
<path d="M559.828 362.307H575.713V359.66C575.713 357.553 574.877 355.533 573.387 354.044C571.898 352.554 569.877 351.717 567.771 351.717C565.664 351.717 563.644 352.554 562.154 354.044C560.665 355.533 559.828 357.553 559.828 359.66V362.307Z" fill="url(#paint5_linear_0_1)"/>
<path d="M555.856 372.898H579.684V370.25H555.856V372.898Z" fill="url(#paint6_linear_0_1)"/>
<path d="M579.684 379.516H555.856V376.869H579.684V379.516Z" fill="url(#paint7_linear_0_1)"/>
<path d="M555.856 386.135H579.684V383.488H555.856V386.135Z" fill="url(#paint8_linear_0_1)"/>
<path fill-rule="evenodd" clip-rule="evenodd" d="M536 338.479H599.541V402.021H536V338.479ZM550.561 362.307C549.859 362.307 549.186 362.586 548.689 363.083C548.193 363.579 547.914 364.253 547.914 364.955V391.43C547.914 392.133 548.193 392.806 548.689 393.302C549.186 393.799 549.859 394.078 550.561 394.078H584.98C585.682 394.078 586.355 393.799 586.852 393.302C587.348 392.806 587.627 392.133 587.627 391.43V364.955C587.627 364.253 587.348 363.579 586.852 363.083C586.355 362.586 585.682 362.307 584.98 362.307H581.008V359.66C581.008 352.349 575.082 346.422 567.771 346.422C560.459 346.422 554.533 352.349 554.533 359.66V362.307H550.561Z" fill="url(#paint9_linear_0_1)"/>
</g>
<g filter="url(#filter2_b_0_1)">
<rect x="0.951172" y="21.8422" width="314.727" height="227.358" rx="11.4241" fill="url(#paint10_linear_0_1)"/>
<rect x="1.33197" y="22.223" width="313.965" height="226.596" rx="11.0433" stroke="url(#paint11_linear_0_1)" stroke-width="0.761606"/>
</g>
<path d="M111.177 181.85H112.938L117.079 191.965H117.222L121.363 181.85H123.124V194.036H121.744V184.778H121.625L117.817 194.036H116.484L112.676 184.778H112.557V194.036H111.177V181.85ZM128.582 194.25C128.003 194.25 127.477 194.141 127.005 193.923C126.533 193.701 126.158 193.382 125.881 192.965C125.603 192.545 125.464 192.037 125.464 191.442C125.464 190.918 125.567 190.494 125.774 190.168C125.98 189.839 126.256 189.581 126.601 189.395C126.946 189.209 127.327 189.07 127.743 188.978C128.164 188.883 128.586 188.808 129.01 188.752C129.566 188.681 130.016 188.627 130.361 188.592C130.71 188.552 130.964 188.487 131.123 188.395C131.285 188.304 131.367 188.145 131.367 187.919V187.872C131.367 187.285 131.206 186.829 130.885 186.503C130.567 186.178 130.085 186.015 129.439 186.015C128.768 186.015 128.243 186.162 127.862 186.456C127.481 186.749 127.213 187.063 127.059 187.396L125.726 186.92C125.964 186.364 126.281 185.932 126.678 185.623C127.079 185.309 127.515 185.091 127.987 184.968C128.463 184.841 128.931 184.778 129.391 184.778C129.685 184.778 130.022 184.813 130.403 184.885C130.787 184.952 131.158 185.093 131.515 185.307C131.876 185.521 132.176 185.845 132.414 186.277C132.652 186.71 132.771 187.289 132.771 188.015V194.036H131.367V192.798H131.295C131.2 192.997 131.041 193.209 130.819 193.435C130.597 193.661 130.302 193.854 129.933 194.012C129.564 194.171 129.114 194.25 128.582 194.25ZM128.796 192.989C129.352 192.989 129.82 192.88 130.2 192.662C130.585 192.443 130.875 192.162 131.069 191.817C131.267 191.472 131.367 191.109 131.367 190.728V189.443C131.307 189.514 131.176 189.579 130.974 189.639C130.776 189.694 130.546 189.744 130.284 189.788C130.026 189.827 129.774 189.863 129.528 189.895C129.286 189.923 129.09 189.946 128.939 189.966C128.574 190.014 128.233 190.091 127.916 190.198C127.602 190.301 127.348 190.458 127.154 190.668C126.964 190.875 126.868 191.156 126.868 191.513C126.868 192.001 127.049 192.37 127.41 192.62C127.775 192.866 128.237 192.989 128.796 192.989ZM135.334 194.036V184.897H136.69V186.277H136.786C136.952 185.825 137.254 185.458 137.69 185.176C138.126 184.895 138.618 184.754 139.166 184.754C139.269 184.754 139.398 184.756 139.552 184.76C139.707 184.764 139.824 184.77 139.903 184.778V186.206C139.856 186.194 139.747 186.176 139.576 186.152C139.41 186.124 139.233 186.111 139.047 186.111C138.602 186.111 138.206 186.204 137.857 186.39C137.512 186.573 137.238 186.827 137.036 187.152C136.837 187.473 136.738 187.84 136.738 188.253V194.036H135.334ZM142.877 190.704L142.853 188.967H143.139L147.137 184.897H148.875L144.614 189.205H144.495L142.877 190.704ZM141.568 194.036V181.85H142.972V194.036H141.568ZM147.375 194.036L143.805 189.514L144.805 188.538L149.16 194.036H147.375ZM154.137 194.226C153.257 194.226 152.497 194.032 151.859 193.643C151.224 193.251 150.734 192.703 150.389 192.001C150.048 191.295 149.877 190.474 149.877 189.538C149.877 188.602 150.048 187.777 150.389 187.063C150.734 186.345 151.214 185.785 151.829 185.385C152.448 184.98 153.17 184.778 153.995 184.778C154.471 184.778 154.941 184.857 155.405 185.016C155.869 185.174 156.291 185.432 156.672 185.789C157.053 186.142 157.356 186.61 157.583 187.193C157.809 187.777 157.922 188.495 157.922 189.347V189.942H150.877V188.729H156.494C156.494 188.213 156.391 187.753 156.184 187.348C155.982 186.944 155.692 186.624 155.316 186.39C154.943 186.156 154.502 186.039 153.995 186.039C153.435 186.039 152.951 186.178 152.543 186.456C152.138 186.729 151.827 187.086 151.609 187.527C151.391 187.967 151.281 188.439 151.281 188.943V189.752C151.281 190.442 151.4 191.027 151.638 191.507C151.88 191.983 152.216 192.346 152.644 192.596C153.072 192.842 153.57 192.965 154.137 192.965C154.506 192.965 154.84 192.913 155.137 192.81C155.439 192.703 155.698 192.545 155.917 192.334C156.135 192.12 156.303 191.854 156.422 191.537L157.779 191.918C157.636 192.378 157.396 192.783 157.059 193.132C156.722 193.477 156.305 193.746 155.809 193.941C155.314 194.131 154.756 194.226 154.137 194.226ZM164.032 184.897V186.087H159.296V184.897H164.032ZM160.677 182.707H162.081V191.418C162.081 191.815 162.138 192.112 162.253 192.31C162.372 192.505 162.523 192.636 162.706 192.703C162.892 192.767 163.088 192.798 163.295 192.798C163.449 192.798 163.576 192.79 163.675 192.775C163.775 192.755 163.854 192.739 163.913 192.727L164.199 193.988C164.104 194.024 163.971 194.06 163.8 194.096C163.63 194.135 163.414 194.155 163.152 194.155C162.755 194.155 162.366 194.07 161.986 193.899C161.609 193.729 161.295 193.469 161.045 193.12C160.8 192.771 160.677 192.33 160.677 191.799V182.707ZM166.145 197.463V184.897H167.501V186.349H167.668C167.771 186.19 167.914 185.988 168.096 185.742C168.283 185.492 168.548 185.27 168.894 185.075C169.243 184.877 169.715 184.778 170.31 184.778C171.079 184.778 171.758 184.97 172.345 185.355C172.932 185.74 173.39 186.285 173.719 186.991C174.048 187.697 174.213 188.53 174.213 189.49C174.213 190.458 174.048 191.297 173.719 192.007C173.39 192.713 172.934 193.261 172.351 193.649C171.767 194.034 171.095 194.226 170.333 194.226C169.746 194.226 169.276 194.129 168.923 193.935C168.57 193.737 168.299 193.512 168.108 193.263C167.918 193.009 167.771 192.798 167.668 192.632H167.549V197.463H166.145ZM167.525 189.466C167.525 190.157 167.626 190.765 167.828 191.293C168.031 191.817 168.326 192.227 168.715 192.525C169.104 192.818 169.58 192.965 170.143 192.965C170.73 192.965 171.22 192.81 171.613 192.501C172.009 192.188 172.307 191.767 172.505 191.239C172.708 190.708 172.809 190.117 172.809 189.466C172.809 188.824 172.71 188.245 172.511 187.729C172.317 187.209 172.021 186.799 171.625 186.497C171.232 186.192 170.738 186.039 170.143 186.039C169.572 186.039 169.092 186.184 168.703 186.474C168.314 186.759 168.021 187.16 167.823 187.675C167.624 188.187 167.525 188.784 167.525 189.466ZM177.759 181.85V194.036H176.355V181.85H177.759ZM183.02 194.25C182.441 194.25 181.916 194.141 181.444 193.923C180.972 193.701 180.597 193.382 180.319 192.965C180.041 192.545 179.903 192.037 179.903 191.442C179.903 190.918 180.006 190.494 180.212 190.168C180.418 189.839 180.694 189.581 181.039 189.395C181.384 189.209 181.765 189.07 182.181 188.978C182.602 188.883 183.024 188.808 183.449 188.752C184.004 188.681 184.454 188.627 184.8 188.592C185.149 188.552 185.402 188.487 185.561 188.395C185.724 188.304 185.805 188.145 185.805 187.919V187.872C185.805 187.285 185.644 186.829 185.323 186.503C185.006 186.178 184.524 186.015 183.877 186.015C183.207 186.015 182.681 186.162 182.3 186.456C181.92 186.749 181.652 187.063 181.497 187.396L180.164 186.92C180.402 186.364 180.72 185.932 181.116 185.623C181.517 185.309 181.953 185.091 182.425 184.968C182.901 184.841 183.37 184.778 183.83 184.778C184.123 184.778 184.46 184.813 184.841 184.885C185.226 184.952 185.597 185.093 185.954 185.307C186.315 185.521 186.614 185.845 186.852 186.277C187.09 186.71 187.209 187.289 187.209 188.015V194.036H185.805V192.798H185.734C185.638 192.997 185.48 193.209 185.258 193.435C185.036 193.661 184.74 193.854 184.371 194.012C184.002 194.171 183.552 194.25 183.02 194.25ZM183.235 192.989C183.79 192.989 184.258 192.88 184.639 192.662C185.024 192.443 185.313 192.162 185.508 191.817C185.706 191.472 185.805 191.109 185.805 190.728V189.443C185.746 189.514 185.615 189.579 185.412 189.639C185.214 189.694 184.984 189.744 184.722 189.788C184.464 189.827 184.212 189.863 183.967 189.895C183.725 189.923 183.528 189.946 183.377 189.966C183.013 190.014 182.671 190.091 182.354 190.198C182.041 190.301 181.787 190.458 181.592 190.668C181.402 190.875 181.307 191.156 181.307 191.513C181.307 192.001 181.487 192.37 181.848 192.62C182.213 192.866 182.675 192.989 183.235 192.989ZM193.485 194.226C192.628 194.226 191.89 194.024 191.272 193.62C190.653 193.215 190.177 192.658 189.844 191.948C189.51 191.238 189.344 190.426 189.344 189.514C189.344 188.586 189.514 187.767 189.856 187.057C190.201 186.343 190.681 185.785 191.295 185.385C191.914 184.98 192.636 184.778 193.461 184.778C194.104 184.778 194.683 184.897 195.199 185.135C195.714 185.373 196.137 185.706 196.466 186.134C196.795 186.563 197 187.063 197.079 187.634H195.675C195.568 187.217 195.33 186.848 194.961 186.527C194.596 186.202 194.104 186.039 193.485 186.039C192.938 186.039 192.458 186.182 192.045 186.468C191.637 186.749 191.317 187.148 191.087 187.664C190.861 188.175 190.748 188.776 190.748 189.466C190.748 190.172 190.859 190.787 191.081 191.311C191.307 191.834 191.625 192.241 192.033 192.531C192.446 192.82 192.93 192.965 193.485 192.965C193.85 192.965 194.181 192.902 194.479 192.775C194.776 192.648 195.028 192.465 195.234 192.227C195.441 191.989 195.587 191.704 195.675 191.37H197.079C197 191.91 196.803 192.396 196.49 192.828C196.18 193.257 195.77 193.598 195.258 193.852C194.75 194.101 194.159 194.226 193.485 194.226ZM202.964 194.226C202.083 194.226 201.323 194.032 200.685 193.643C200.05 193.251 199.56 192.703 199.215 192.001C198.874 191.295 198.703 190.474 198.703 189.538C198.703 188.602 198.874 187.777 199.215 187.063C199.56 186.345 200.04 185.785 200.655 185.385C201.274 184.98 201.996 184.778 202.821 184.778C203.297 184.778 203.767 184.857 204.231 185.016C204.695 185.174 205.117 185.432 205.498 185.789C205.879 186.142 206.182 186.61 206.409 187.193C206.635 187.777 206.748 188.495 206.748 189.347V189.942H199.703V188.729H205.32C205.32 188.213 205.217 187.753 205.01 187.348C204.808 186.944 204.518 186.624 204.142 186.39C203.769 186.156 203.328 186.039 202.821 186.039C202.261 186.039 201.777 186.178 201.369 186.456C200.964 186.729 200.653 187.086 200.435 187.527C200.217 187.967 200.107 188.439 200.107 188.943V189.752C200.107 190.442 200.227 191.027 200.465 191.507C200.706 191.983 201.042 192.346 201.47 192.596C201.898 192.842 202.396 192.965 202.964 192.965C203.332 192.965 203.666 192.913 203.963 192.81C204.265 192.703 204.524 192.545 204.743 192.334C204.961 192.12 205.129 191.854 205.248 191.537L206.605 191.918C206.462 192.378 206.222 192.783 205.885 193.132C205.548 193.477 205.131 193.746 204.635 193.941C204.14 194.131 203.582 194.226 202.964 194.226Z" fill="#05D776"/>
<g clip-path="url(#clip2_0_1)">
<path d="M172.035 71.8665V151.293L192.335 135.123V82.9001L172.035 71.8665ZM162.594 133.945L146.248 141.083V78.7699L162.594 83.6083V133.945ZM124.297 132.115L136.807 128.809V89.0358L124.356 87.0303L124.297 132.115Z" fill="url(#paint12_linear_0_1)"/>
</g>
<g filter="url(#filter3_b_0_1)">
<rect x="349.012" y="21.842" width="315.72" height="227.358" rx="11.4241" fill="url(#paint13_linear_0_1)"/>
<rect x="349.393" y="22.2228" width="314.958" height="226.596" rx="11.0433" stroke="url(#paint14_linear_0_1)" stroke-width="0.761606"/>
</g>
<path d="M441.849 182.545H443.61L447.751 192.66H447.894L452.035 182.545H453.796V194.73H452.416V185.472H452.297L448.489 194.73H447.156L443.348 185.472H443.229V194.73H441.849V182.545ZM460.277 194.921C459.452 194.921 458.728 194.725 458.106 194.332C457.487 193.939 457.003 193.39 456.654 192.684C456.309 191.978 456.136 191.153 456.136 190.208C456.136 189.256 456.309 188.425 456.654 187.715C457.003 187.005 457.487 186.454 458.106 186.061C458.728 185.669 459.452 185.472 460.277 185.472C461.102 185.472 461.824 185.669 462.443 186.061C463.066 186.454 463.55 187.005 463.895 187.715C464.244 188.425 464.419 189.256 464.419 190.208C464.419 191.153 464.244 191.978 463.895 192.684C463.55 193.39 463.066 193.939 462.443 194.332C461.824 194.725 461.102 194.921 460.277 194.921ZM460.277 193.659C460.904 193.659 461.42 193.499 461.824 193.178C462.229 192.856 462.529 192.434 462.723 191.91C462.917 191.387 463.014 190.819 463.014 190.208C463.014 189.598 462.917 189.028 462.723 188.501C462.529 187.973 462.229 187.547 461.824 187.222C461.42 186.896 460.904 186.734 460.277 186.734C459.651 186.734 459.135 186.896 458.73 187.222C458.326 187.547 458.026 187.973 457.832 188.501C457.638 189.028 457.54 189.598 457.54 190.208C457.54 190.819 457.638 191.387 457.832 191.91C458.026 192.434 458.326 192.856 458.73 193.178C459.135 193.499 459.651 193.659 460.277 193.659ZM467.966 189.233V194.73H466.562V185.591H467.919V187.019H468.038C468.252 186.555 468.577 186.182 469.014 185.901C469.45 185.615 470.013 185.472 470.703 185.472C471.322 185.472 471.864 185.599 472.328 185.853C472.792 186.103 473.153 186.484 473.411 186.995C473.668 187.503 473.797 188.146 473.797 188.923V194.73H472.393V189.018C472.393 188.3 472.207 187.741 471.834 187.341C471.461 186.936 470.949 186.734 470.299 186.734C469.851 186.734 469.45 186.831 469.097 187.025C468.748 187.22 468.472 187.503 468.27 187.876C468.068 188.249 467.966 188.701 467.966 189.233ZM480.195 194.921C479.315 194.921 478.555 194.727 477.916 194.338C477.282 193.945 476.792 193.398 476.447 192.696C476.106 191.989 475.935 191.168 475.935 190.232C475.935 189.296 476.106 188.471 476.447 187.757C476.792 187.039 477.272 186.48 477.887 186.079C478.505 185.674 479.227 185.472 480.052 185.472C480.528 185.472 480.998 185.552 481.463 185.71C481.927 185.869 482.349 186.127 482.73 186.484C483.111 186.837 483.414 187.305 483.64 187.888C483.866 188.471 483.979 189.189 483.979 190.042V190.637H476.935V189.423H482.551C482.551 188.907 482.448 188.447 482.242 188.043C482.04 187.638 481.75 187.319 481.373 187.085C481 186.851 480.56 186.734 480.052 186.734C479.493 186.734 479.009 186.872 478.601 187.15C478.196 187.424 477.885 187.781 477.666 188.221C477.448 188.661 477.339 189.133 477.339 189.637V190.446C477.339 191.137 477.458 191.722 477.696 192.202C477.938 192.678 478.273 193.041 478.702 193.291C479.13 193.536 479.628 193.659 480.195 193.659C480.564 193.659 480.897 193.608 481.195 193.505C481.496 193.398 481.756 193.239 481.974 193.029C482.192 192.815 482.361 192.549 482.48 192.231L483.837 192.612C483.694 193.072 483.454 193.477 483.117 193.826C482.78 194.171 482.363 194.441 481.867 194.635C481.371 194.826 480.814 194.921 480.195 194.921ZM486.742 198.158C486.504 198.158 486.292 198.138 486.105 198.098C485.919 198.062 485.79 198.027 485.718 197.991L486.075 196.753C486.416 196.841 486.718 196.872 486.98 196.849C487.242 196.825 487.474 196.708 487.676 196.498C487.882 196.291 488.071 195.956 488.241 195.492L488.503 194.778L485.123 185.591H486.647L489.169 192.874H489.265L491.787 185.591H493.311L489.431 196.063C489.257 196.535 489.04 196.926 488.783 197.235C488.525 197.549 488.225 197.781 487.884 197.932C487.547 198.082 487.166 198.158 486.742 198.158ZM500.067 194.73V182.545H504.184C505.14 182.545 505.922 182.717 506.529 183.062C507.139 183.404 507.592 183.866 507.885 184.449C508.179 185.032 508.326 185.682 508.326 186.4C508.326 187.118 508.179 187.771 507.885 188.358C507.596 188.945 507.147 189.413 506.541 189.762C505.934 190.107 505.156 190.28 504.208 190.28H501.257V188.971H504.16C504.815 188.971 505.341 188.858 505.737 188.632C506.134 188.406 506.422 188.1 506.6 187.715C506.782 187.327 506.874 186.888 506.874 186.4C506.874 185.912 506.782 185.476 506.6 185.091C506.422 184.707 506.132 184.405 505.731 184.187C505.331 183.965 504.799 183.854 504.137 183.854H501.542V194.73H500.067ZM510.512 194.73V185.591H511.869V186.972H511.964C512.131 186.519 512.432 186.152 512.868 185.871C513.305 185.589 513.797 185.448 514.344 185.448C514.447 185.448 514.576 185.45 514.731 185.454C514.885 185.458 515.002 185.464 515.082 185.472V186.9C515.034 186.888 514.925 186.87 514.755 186.847C514.588 186.819 514.411 186.805 514.225 186.805C513.781 186.805 513.384 186.898 513.035 187.085C512.69 187.267 512.416 187.521 512.214 187.846C512.016 188.168 511.916 188.534 511.916 188.947V194.73H510.512ZM520.181 194.921C519.356 194.921 518.632 194.725 518.009 194.332C517.39 193.939 516.906 193.39 516.557 192.684C516.212 191.978 516.04 191.153 516.04 190.208C516.04 189.256 516.212 188.425 516.557 187.715C516.906 187.005 517.39 186.454 518.009 186.061C518.632 185.669 519.356 185.472 520.181 185.472C521.006 185.472 521.728 185.669 522.347 186.061C522.97 186.454 523.454 187.005 523.799 187.715C524.148 188.425 524.322 189.256 524.322 190.208C524.322 191.153 524.148 191.978 523.799 192.684C523.454 193.39 522.97 193.939 522.347 194.332C521.728 194.725 521.006 194.921 520.181 194.921ZM520.181 193.659C520.808 193.659 521.323 193.499 521.728 193.178C522.133 192.856 522.432 192.434 522.626 191.91C522.821 191.387 522.918 190.819 522.918 190.208C522.918 189.598 522.821 189.028 522.626 188.501C522.432 187.973 522.133 187.547 521.728 187.222C521.323 186.896 520.808 186.734 520.181 186.734C519.554 186.734 519.039 186.896 518.634 187.222C518.229 187.547 517.93 187.973 517.736 188.501C517.541 189.028 517.444 189.598 517.444 190.208C517.444 190.819 517.541 191.387 517.736 191.91C517.93 192.434 518.229 192.856 518.634 193.178C519.039 193.499 519.554 193.659 520.181 193.659ZM530.44 185.591V186.781H525.704V185.591H530.44ZM527.085 183.402H528.489V192.112C528.489 192.509 528.546 192.807 528.661 193.005C528.78 193.199 528.931 193.33 529.114 193.398C529.3 193.461 529.496 193.493 529.703 193.493C529.857 193.493 529.984 193.485 530.083 193.469C530.183 193.449 530.262 193.433 530.321 193.421L530.607 194.683C530.512 194.719 530.379 194.754 530.208 194.79C530.038 194.83 529.822 194.849 529.56 194.849C529.163 194.849 528.774 194.764 528.394 194.594C528.017 194.423 527.703 194.163 527.453 193.814C527.208 193.465 527.085 193.025 527.085 192.493V183.402ZM536.286 194.921C535.406 194.921 534.646 194.727 534.007 194.338C533.373 193.945 532.883 193.398 532.538 192.696C532.197 191.989 532.026 191.168 532.026 190.232C532.026 189.296 532.197 188.471 532.538 187.757C532.883 187.039 533.363 186.48 533.978 186.079C534.596 185.674 535.318 185.472 536.143 185.472C536.619 185.472 537.09 185.552 537.554 185.71C538.018 185.869 538.44 186.127 538.821 186.484C539.202 186.837 539.505 187.305 539.731 187.888C539.957 188.471 540.071 189.189 540.071 190.042V190.637H533.026V189.423H538.643C538.643 188.907 538.539 188.447 538.333 188.043C538.131 187.638 537.841 187.319 537.464 187.085C537.092 186.851 536.651 186.734 536.143 186.734C535.584 186.734 535.1 186.872 534.692 187.15C534.287 187.424 533.976 187.781 533.758 188.221C533.539 188.661 533.43 189.133 533.43 189.637V190.446C533.43 191.137 533.549 191.722 533.787 192.202C534.029 192.678 534.364 193.041 534.793 193.291C535.221 193.536 535.719 193.659 536.286 193.659C536.655 193.659 536.988 193.608 537.286 193.505C537.587 193.398 537.847 193.239 538.065 193.029C538.284 192.815 538.452 192.549 538.571 192.231L539.928 192.612C539.785 193.072 539.545 193.477 539.208 193.826C538.871 194.171 538.454 194.441 537.958 194.635C537.462 194.826 536.905 194.921 536.286 194.921ZM545.919 194.921C545.063 194.921 544.325 194.719 543.706 194.314C543.087 193.909 542.611 193.352 542.278 192.642C541.945 191.932 541.778 191.121 541.778 190.208C541.778 189.28 541.949 188.461 542.29 187.751C542.635 187.037 543.115 186.48 543.73 186.079C544.349 185.674 545.071 185.472 545.896 185.472C546.538 185.472 547.117 185.591 547.633 185.829C548.149 186.067 548.571 186.4 548.9 186.829C549.23 187.257 549.434 187.757 549.513 188.328H548.109C548.002 187.912 547.764 187.543 547.395 187.222C547.03 186.896 546.538 186.734 545.919 186.734C545.372 186.734 544.892 186.876 544.48 187.162C544.071 187.444 543.752 187.842 543.522 188.358C543.295 188.87 543.182 189.471 543.182 190.161C543.182 190.867 543.293 191.482 543.516 192.005C543.742 192.529 544.059 192.936 544.468 193.225C544.88 193.515 545.364 193.659 545.919 193.659C546.284 193.659 546.616 193.596 546.913 193.469C547.211 193.342 547.462 193.16 547.669 192.922C547.875 192.684 548.022 192.398 548.109 192.065H549.513C549.434 192.604 549.238 193.09 548.924 193.523C548.615 193.951 548.204 194.292 547.693 194.546C547.185 194.796 546.594 194.921 545.919 194.921ZM555.541 185.591V186.781H550.804V185.591H555.541ZM552.185 183.402H553.589V192.112C553.589 192.509 553.647 192.807 553.762 193.005C553.881 193.199 554.031 193.33 554.214 193.398C554.4 193.461 554.597 193.493 554.803 193.493C554.958 193.493 555.084 193.485 555.184 193.469C555.283 193.449 555.362 193.433 555.422 193.421L555.707 194.683C555.612 194.719 555.479 194.754 555.309 194.79C555.138 194.83 554.922 194.849 554.66 194.849C554.263 194.849 553.875 194.764 553.494 194.594C553.117 194.423 552.804 194.163 552.554 193.814C552.308 193.465 552.185 193.025 552.185 192.493V183.402ZM557.653 194.73V185.591H559.057V194.73H557.653ZM558.367 184.068C558.093 184.068 557.857 183.975 557.659 183.788C557.464 183.602 557.367 183.378 557.367 183.116C557.367 182.854 557.464 182.63 557.659 182.444C557.857 182.257 558.093 182.164 558.367 182.164C558.641 182.164 558.875 182.257 559.069 182.444C559.267 182.63 559.367 182.854 559.367 183.116C559.367 183.378 559.267 183.602 559.069 183.788C558.875 183.975 558.641 184.068 558.367 184.068ZM565.342 194.921C564.517 194.921 563.793 194.725 563.17 194.332C562.551 193.939 562.067 193.39 561.718 192.684C561.373 191.978 561.201 191.153 561.201 190.208C561.201 189.256 561.373 188.425 561.718 187.715C562.067 187.005 562.551 186.454 563.17 186.061C563.793 185.669 564.517 185.472 565.342 185.472C566.167 185.472 566.889 185.669 567.508 186.061C568.13 186.454 568.614 187.005 568.959 187.715C569.309 188.425 569.483 189.256 569.483 190.208C569.483 191.153 569.309 191.978 568.959 192.684C568.614 193.39 568.13 193.939 567.508 194.332C566.889 194.725 566.167 194.921 565.342 194.921ZM565.342 193.659C565.969 193.659 566.484 193.499 566.889 193.178C567.293 192.856 567.593 192.434 567.787 191.91C567.982 191.387 568.079 190.819 568.079 190.208C568.079 189.598 567.982 189.028 567.787 188.501C567.593 187.973 567.293 187.547 566.889 187.222C566.484 186.896 565.969 186.734 565.342 186.734C564.715 186.734 564.199 186.896 563.795 187.222C563.39 187.547 563.091 187.973 562.896 188.501C562.702 189.028 562.605 189.598 562.605 190.208C562.605 190.819 562.702 191.387 562.896 191.91C563.091 192.434 563.39 192.856 563.795 193.178C564.199 193.499 564.715 193.659 565.342 193.659ZM573.031 189.233V194.73H571.627V185.591H572.983V187.019H573.102C573.316 186.555 573.642 186.182 574.078 185.901C574.514 185.615 575.078 185.472 575.768 185.472C576.387 185.472 576.928 185.599 577.392 185.853C577.856 186.103 578.217 186.484 578.475 186.995C578.733 187.503 578.862 188.146 578.862 188.923V194.73H577.458V189.018C577.458 188.3 577.271 187.741 576.898 187.341C576.525 186.936 576.014 186.734 575.363 186.734C574.915 186.734 574.514 186.831 574.161 187.025C573.812 187.22 573.537 187.503 573.334 187.876C573.132 188.249 573.031 188.701 573.031 189.233Z" fill="#05D776"/>
<path d="M503.562 84.0591L527.715 91.6046C528.388 91.8149 528.977 92.235 529.395 92.8036C529.813 93.3721 530.038 94.0594 530.038 94.7651V100.606H536.657C537.534 100.606 538.376 100.955 538.997 101.576C539.617 102.196 539.966 103.038 539.966 103.916V110.535H496.943V103.916C496.943 103.038 497.292 102.196 497.913 101.576C498.533 100.955 499.375 100.606 500.253 100.606H523.419V97.1975L503.562 90.989L483.706 97.1975V121.701C483.705 123.727 484.17 125.726 485.064 127.544C485.958 129.362 487.257 130.951 488.862 132.188L489.487 132.638L503.562 142.239L516.079 133.701H500.253C499.375 133.701 498.533 133.352 497.913 132.731C497.292 132.111 496.943 131.269 496.943 130.391V117.153H539.966V130.391C539.966 131.269 539.617 132.111 538.997 132.731C538.376 133.352 537.534 133.701 536.657 133.701L526 133.704C524.72 135.392 523.164 136.881 521.367 138.105L503.562 150.248L485.758 138.109C483.085 136.287 480.899 133.84 479.387 130.98C477.876 128.12 477.087 124.935 477.087 121.701V94.7651C477.087 94.06 477.313 93.3734 477.731 92.8055C478.149 92.2376 478.737 91.818 479.41 91.6079L503.562 84.0591Z" fill="url(#paint15_linear_0_1)"/>
<defs>
<filter id="filter0_b_0_1" x="26.7478" y="247.779" width="390.887" height="303.519" filterUnits="userSpaceOnUse" color-interpolation-filters="sRGB">
<feFlood flood-opacity="0" result="BackgroundImageFix"/>
<feGaussianBlur in="BackgroundImageFix" stdDeviation="19.0402"/>
<feComposite in2="SourceAlpha" operator="in" result="effect1_backgroundBlur_0_1"/>
<feBlend mode="normal" in="SourceGraphic" in2="effect1_backgroundBlur_0_1" result="shape"/>
</filter>
<filter id="filter1_b_0_1" x="374.808" y="244.801" width="391.88" height="303.519" filterUnits="userSpaceOnUse" color-interpolation-filters="sRGB">
<feFlood flood-opacity="0" result="BackgroundImageFix"/>
<feGaussianBlur in="BackgroundImageFix" stdDeviation="19.0402"/>
<feComposite in2="SourceAlpha" operator="in" result="effect1_backgroundBlur_0_1"/>
<feBlend mode="normal" in="SourceGraphic" in2="effect1_backgroundBlur_0_1" result="shape"/>
</filter>
<filter id="filter2_b_0_1" x="-37.1291" y="-16.2381" width="390.887" height="303.519" filterUnits="userSpaceOnUse" color-interpolation-filters="sRGB">
<feFlood flood-opacity="0" result="BackgroundImageFix"/>
<feGaussianBlur in="BackgroundImageFix" stdDeviation="19.0402"/>
<feComposite in2="SourceAlpha" operator="in" result="effect1_backgroundBlur_0_1"/>
<feBlend mode="normal" in="SourceGraphic" in2="effect1_backgroundBlur_0_1" result="shape"/>
</filter>
<filter id="filter3_b_0_1" x="310.931" y="-16.2383" width="391.88" height="303.519" filterUnits="userSpaceOnUse" color-interpolation-filters="sRGB">
<feFlood flood-opacity="0" result="BackgroundImageFix"/>
<feGaussianBlur in="BackgroundImageFix" stdDeviation="19.0402"/>
<feComposite in2="SourceAlpha" operator="in" result="effect1_backgroundBlur_0_1"/>
<feBlend mode="normal" in="SourceGraphic" in2="effect1_backgroundBlur_0_1" result="shape"/>
</filter>
<linearGradient id="paint0_linear_0_1" x1="222.192" y1="217.003" x2="222.192" y2="615.341" gradientUnits="userSpaceOnUse">
<stop stop-color="white" stop-opacity="0.03"/>
<stop offset="1" stop-color="white" stop-opacity="0"/>
</linearGradient>
<linearGradient id="paint1_linear_0_1" x1="413.234" y1="513.217" x2="88.6774" y2="201.147" gradientUnits="userSpaceOnUse">
<stop stop-color="#F5FBF2" stop-opacity="0.44"/>
<stop offset="1" stop-color="#F5FBF2" stop-opacity="0"/>
</linearGradient>
<linearGradient id="paint2_linear_0_1" x1="222.191" y1="349.4" x2="311.537" y2="378.464" gradientUnits="userSpaceOnUse">
<stop stop-color="#05D2FF"/>
<stop offset="0.609375" stop-color="#253FE0" stop-opacity="0.619792"/>
<stop offset="1" stop-color="#060ED0" stop-opacity="0.28"/>
</linearGradient>
<linearGradient id="paint3_linear_0_1" x1="570.749" y1="214.025" x2="570.749" y2="612.362" gradientUnits="userSpaceOnUse">
<stop stop-color="white" stop-opacity="0.03"/>
<stop offset="1" stop-color="white" stop-opacity="0"/>
</linearGradient>
<linearGradient id="paint4_linear_0_1" x1="762.393" y1="510.239" x2="437.799" y2="197.147" gradientUnits="userSpaceOnUse">
<stop stop-color="#F5FBF2" stop-opacity="0.44"/>
<stop offset="1" stop-color="#F5FBF2" stop-opacity="0"/>
</linearGradient>
<linearGradient id="paint5_linear_0_1" x1="567.771" y1="351.717" x2="587.193" y2="359.963" gradientUnits="userSpaceOnUse">
<stop stop-color="#00DD9C"/>
<stop offset="0.609375" stop-color="#253FE0" stop-opacity="0.619792"/>
<stop offset="1" stop-color="#060ED0" stop-opacity="0.28"/>
</linearGradient>
<linearGradient id="paint6_linear_0_1" x1="567.77" y1="370.25" x2="572.362" y2="381.946" gradientUnits="userSpaceOnUse">
<stop stop-color="#00DD9C"/>
<stop offset="0.609375" stop-color="#253FE0" stop-opacity="0.619792"/>
<stop offset="1" stop-color="#060ED0" stop-opacity="0.28"/>
</linearGradient>
<linearGradient id="paint7_linear_0_1" x1="567.77" y1="376.869" x2="572.362" y2="388.565" gradientUnits="userSpaceOnUse">
<stop stop-color="#00DD9C"/>
<stop offset="0.609375" stop-color="#253FE0" stop-opacity="0.619792"/>
<stop offset="1" stop-color="#060ED0" stop-opacity="0.28"/>
</linearGradient>
<linearGradient id="paint8_linear_0_1" x1="567.77" y1="383.488" x2="572.362" y2="395.184" gradientUnits="userSpaceOnUse">
<stop stop-color="#00DD9C"/>
<stop offset="0.609375" stop-color="#253FE0" stop-opacity="0.619792"/>
<stop offset="1" stop-color="#060ED0" stop-opacity="0.28"/>
</linearGradient>
<linearGradient id="paint9_linear_0_1" x1="567.771" y1="338.479" x2="652.662" y2="362.506" gradientUnits="userSpaceOnUse">
<stop stop-color="#00DD9C"/>
<stop offset="0.609375" stop-color="#253FE0" stop-opacity="0.619792"/>
<stop offset="1" stop-color="#060ED0" stop-opacity="0.28"/>
</linearGradient>
<linearGradient id="paint10_linear_0_1" x1="158.315" y1="-47.014" x2="158.315" y2="351.324" gradientUnits="userSpaceOnUse">
<stop stop-color="white" stop-opacity="0.03"/>
<stop offset="1" stop-color="white" stop-opacity="0"/>
</linearGradient>
<linearGradient id="paint11_linear_0_1" x1="349.357" y1="249.2" x2="24.8004" y2="-62.8702" gradientUnits="userSpaceOnUse">
<stop stop-color="#F5FBF2" stop-opacity="0.44"/>
<stop offset="1" stop-color="#F5FBF2" stop-opacity="0"/>
</linearGradient>
<linearGradient id="paint12_linear_0_1" x1="158.316" y1="71.8665" x2="251.047" y2="94.3484" gradientUnits="userSpaceOnUse">
<stop stop-color="#F7BC51"/>
<stop offset="0.609375" stop-color="#60E7CE" stop-opacity="0.5"/>
<stop offset="1" stop-color="#060ED0" stop-opacity="0.28"/>
</linearGradient>
<linearGradient id="paint13_linear_0_1" x1="506.872" y1="-47.0142" x2="506.872" y2="351.323" gradientUnits="userSpaceOnUse">
<stop stop-color="white" stop-opacity="0.03"/>
<stop offset="1" stop-color="white" stop-opacity="0"/>
</linearGradient>
<linearGradient id="paint14_linear_0_1" x1="698.517" y1="249.2" x2="373.922" y2="-63.8919" gradientUnits="userSpaceOnUse">
<stop stop-color="#F5FBF2" stop-opacity="0.44"/>
<stop offset="1" stop-color="#F5FBF2" stop-opacity="0"/>
</linearGradient>
<linearGradient id="paint15_linear_0_1" x1="508.527" y1="84.0591" x2="593.146" y2="106.811" gradientUnits="userSpaceOnUse">
<stop stop-color="#FD5A14"/>
<stop offset="0.609375" stop-color="#FFF06B" stop-opacity="0.59"/>
<stop offset="1" stop-color="#060ED0" stop-opacity="0.28"/>
</linearGradient>
<clipPath id="clip0_0_1">
<rect width="68.546" height="59.5697" fill="white" transform="translate(187.918 349.4)"/>
</clipPath>
<clipPath id="clip1_0_1">
<rect width="63.5411" height="63.5411" fill="white" transform="translate(536 338.479)"/>
</clipPath>
<clipPath id="clip2_0_1">
<rect width="79.4263" height="79.4263" fill="white" transform="translate(118.602 71.8665)"/>
</clipPath>
</defs>
</svg>
