<svg width="400" height="464" viewBox="0 0 500 464" fill="none" xmlns="http://www.w3.org/2000/svg">
<g clip-path="url(#clip0_466_297)">
<path d="M250.367 46.1898L276.515 49.4001C303.324 52.6877 327.937 73.7355 343.936 111.695L317.788 108.485C301.788 70.5269 277.166 49.4722 250.367 46.1898Z" fill="#BEFFE3"/>
<path d="M232.439 408.513L206.288 405.308C232.751 408.557 261.345 394.501 285.882 362.33C335.29 297.563 349.569 183.919 317.779 108.493L343.936 111.695C375.73 187.119 361.45 300.767 312.041 365.533C287.496 397.706 258.901 411.764 232.447 408.511" fill="#FF698D"/>
<path d="M317.788 108.484L343.936 111.694C375.73 187.119 361.449 300.765 312.042 365.531C287.496 397.706 258.901 411.761 232.448 408.509L206.287 405.307C232.75 408.556 261.345 394.501 285.881 362.328C335.29 297.56 349.567 183.915 317.777 108.489" fill="#BEFFE3"/>
<path d="M317.788 108.485C349.581 183.908 335.301 297.556 285.892 362.324C236.483 427.093 170.664 418.441 138.872 343.013C107.08 267.586 121.358 153.937 170.764 89.1738C220.171 24.4102 285.997 33.0489 317.788 108.485Z" fill="#149BA1"/>
<path d="M300.469 131.185C326.105 192.008 314.591 283.653 274.748 335.881C234.904 388.109 181.823 381.139 156.187 320.315C130.55 259.491 142.067 167.838 181.908 115.614C221.749 63.3911 274.831 70.3555 300.471 131.181" fill="#E9ECF5"/>
<path d="M281.447 156.12C300.324 200.908 291.844 268.384 262.508 306.842C233.173 345.299 194.088 340.167 175.213 295.376C156.338 250.585 164.817 183.11 194.15 144.656C223.482 106.201 262.569 111.332 281.447 156.12Z" fill="#0ED17C"/>
<path d="M263.756 179.309C276.346 209.18 270.69 254.186 251.123 279.833C231.557 305.48 205.488 302.055 192.903 272.187C180.318 242.318 185.966 197.307 205.535 171.664C225.104 146.02 251.171 149.44 263.759 179.31" fill="#E9ECF5"/>
<path d="M247.966 200.002C254.945 216.562 251.809 241.511 240.962 255.728C230.114 269.945 215.668 268.047 208.688 251.489C201.707 234.931 204.844 209.98 215.689 195.764C226.534 181.548 240.986 183.444 247.974 200.007" fill="#149BA1"/>
<path d="M126.888 158.967C107.55 135.78 90.1249 109.556 69.6095 97.9411C49.0942 86.3258 45.2457 99.6571 49.5374 115.19L126.888 158.967Z" fill="#0ED17C"/>
<path d="M222.653 211.045L171.536 178.465C171.989 178.74 172.315 179.183 172.442 179.697L222.569 211.215L222.653 211.045Z" fill="#BFBEED"/>
<path d="M222.561 211.218L172.435 179.7C172.529 180.032 172.576 180.376 172.574 180.721L222.427 211.456L222.561 211.218Z" fill="#EDECF8"/>
<path d="M221.625 212.964L222.432 211.458L172.58 180.721C172.51 182.43 171.869 184.065 170.758 185.366L221.625 212.964Z" fill="#EDECF8"/>
<path d="M221.625 212.964L170.758 185.365C170.314 185.918 169.778 186.39 169.173 186.76C168.825 187.014 168.416 187.172 167.987 187.217C167.559 187.261 167.126 187.191 166.733 187.013L221.084 213.972L221.625 212.964Z" fill="#BFBEED"/>
<path d="M172.581 180.723C172.529 181.927 172.192 183.101 171.598 184.15C171.005 185.198 170.171 186.091 169.165 186.755C168.833 187.048 168.417 187.229 167.976 187.273C167.535 187.317 167.091 187.222 166.707 187.002C166.323 186.781 166.017 186.445 165.833 186.042C165.65 185.639 165.597 185.189 165.683 184.754C165.736 183.552 166.074 182.379 166.667 181.332C167.261 180.284 168.093 179.392 169.098 178.728C169.43 178.436 169.846 178.255 170.286 178.21C170.726 178.166 171.17 178.26 171.554 178.48C171.938 178.7 172.243 179.035 172.428 179.437C172.612 179.839 172.666 180.289 172.581 180.723Z" fill="#23232A"/>
<path d="M155.611 166.951L190.05 186.317C190.574 186.676 190.992 187.169 191.261 187.744C191.53 188.32 191.639 188.956 191.579 189.588L157.138 170.224C157.199 169.593 157.091 168.957 156.824 168.381C156.557 167.806 156.141 167.312 155.619 166.951" fill="#FFC400"/>
<path d="M155.61 166.951L190.05 186.317C190.709 186.715 191.183 187.358 191.368 188.105L156.928 168.741C156.743 167.994 156.268 167.35 155.61 166.951Z" fill="#FFC400"/>
<path d="M156.928 168.741L191.368 188.106C191.505 188.589 191.574 189.088 191.572 189.589L157.131 170.225C157.132 169.723 157.062 169.224 156.928 168.741Z" fill="#FFC400"/>
<path d="M183.067 198.724L148.626 179.359C149.198 179.617 149.828 179.718 150.452 179.652C151.076 179.587 151.671 179.358 152.177 178.988C153.636 178.022 154.847 176.725 155.709 175.203C156.572 173.68 157.062 171.976 157.139 170.228L191.579 189.594C191.501 191.341 191.011 193.045 190.148 194.567C189.286 196.089 188.076 197.386 186.618 198.352C186.111 198.722 185.516 198.951 184.893 199.017C184.269 199.082 183.639 198.981 183.067 198.724Z" fill="#FFC400"/>
<path d="M157.13 170.225L191.571 189.589C191.469 192.07 190.536 194.446 188.922 196.334L154.482 176.969C156.096 175.081 157.028 172.706 157.13 170.225Z" fill="#FFC400"/>
<path d="M154.486 176.96L188.926 196.324C188.275 197.125 187.491 197.808 186.608 198.343C186.102 198.714 185.507 198.943 184.883 199.009C184.259 199.075 183.629 198.974 183.057 198.717L148.616 179.352C149.188 179.61 149.818 179.711 150.441 179.646C151.065 179.581 151.66 179.351 152.166 178.981C153.049 178.444 153.834 177.761 154.486 176.96Z" fill="#FFA200"/>
<path d="M157.129 170.223C157.052 171.971 156.562 173.675 155.7 175.197C154.837 176.719 153.627 178.016 152.168 178.981C149.399 180.598 147.129 179.305 147.103 176.083C147.181 174.334 147.671 172.629 148.534 171.107C149.398 169.584 150.609 168.288 152.07 167.323C154.834 165.707 157.103 167.002 157.129 170.223Z" fill="#FF9900"/>
<path d="M127.395 159.018C97.5522 154.369 66.0905 152.92 45.571 141.304C25.0515 129.689 34.5081 119.548 50.0433 115.234L127.395 159.018Z" fill="#0ED17C"/>
<path d="M49.9927 114.701L154.247 167.93C154.647 168.207 154.967 168.585 155.172 169.026C155.377 169.468 155.461 169.955 155.415 170.44L49.9927 114.701Z" fill="#FE8EA7"/>
<path d="M49.9927 114.701L154.247 167.93C154.751 168.238 155.113 168.733 155.253 169.307L49.9927 114.701Z" fill="#0ED17C"/>
<path d="M49.992 114.702L155.251 169.302C155.355 169.67 155.408 170.05 155.408 170.432L49.992 114.702Z" fill="#0ED17C"/>
<path d="M148.908 177.424L49.9923 114.702L155.407 170.435C155.347 171.772 154.971 173.077 154.311 174.241C153.65 175.406 152.723 176.397 151.605 177.135C151.22 177.418 150.767 177.593 150.292 177.643C149.817 177.693 149.337 177.616 148.901 177.42" fill="#FF698D"/>
<path d="M49.9923 114.702L155.407 170.435C155.329 172.333 154.616 174.151 153.382 175.596L49.9923 114.702Z" fill="#0ED17C"/>
<path d="M49.9922 114.702L153.381 175.595C152.884 176.207 152.286 176.73 151.612 177.14C151.226 177.422 150.773 177.596 150.297 177.645C149.822 177.695 149.342 177.618 148.906 177.422L49.9922 114.702Z" fill="#0ED17C"/>
<path d="M128.265 156.265C119.643 139.141 116.524 121.019 95.9999 109.404C75.4763 97.7883 57.1655 105.658 49.99 114.693L128.265 156.265Z" fill="#BEFFE3"/>
<path d="M125.886 160.458C106.753 161.872 91.0197 166.929 70.5043 155.318C49.9888 143.707 45.8839 125.888 49.9541 115.089L125.886 160.458Z" fill="#BEFFE3"/>
<path d="M127.521 230.167C98.9383 220.414 70.4089 207.073 46.8448 207.817C23.2806 208.561 26.9311 221.938 38.6765 232.976L127.521 230.167Z" fill="#0ED17C"/>
<path d="M226.323 224.673L175.799 223.627C176.329 223.628 176.838 223.837 177.214 224.209L226.189 224.922L226.323 224.673Z" fill="#BFBEED"/>
<path d="M226.189 224.922L177.225 224.209C177.477 224.444 177.696 224.713 177.875 225.008L226.003 225.289L226.189 224.922Z" fill="#EDECF8"/>
<path d="M225.994 225.284L177.866 225.002C178.696 226.498 178.999 228.229 178.727 229.917L224.732 227.637L225.994 225.284Z" fill="#EDECF8"/>
<path d="M224.735 227.636L178.73 229.916C178.634 230.619 178.419 231.301 178.093 231.932C177.929 232.329 177.662 232.676 177.32 232.936C176.978 233.197 176.573 233.362 176.146 233.415L223.85 229.287L224.735 227.636Z" fill="#BFBEED"/>
<path d="M177.867 225.003C178.448 226.058 178.771 227.236 178.81 228.44C178.849 229.644 178.602 230.84 178.09 231.931C177.044 233.882 175.243 233.916 174.072 232.029C173.492 230.974 173.17 229.797 173.132 228.594C173.094 227.391 173.34 226.196 173.852 225.107C174.898 223.155 176.7 223.124 177.867 225.003Z" fill="#23232A"/>
<path d="M156.207 222.06L195.703 220.7C196.337 220.736 196.95 220.941 197.477 221.294C198.005 221.647 198.429 222.134 198.706 222.705L159.207 224.066C158.931 223.495 158.507 223.008 157.98 222.655C157.453 222.302 156.84 222.097 156.207 222.06Z" fill="#FFC400"/>
<path d="M156.207 222.058L195.703 220.698C196.086 220.697 196.464 220.771 196.818 220.916C197.171 221.061 197.493 221.274 197.763 221.544L158.265 222.903C157.995 222.634 157.673 222.42 157.32 222.275C156.966 222.13 156.588 222.056 156.205 222.058" fill="#FFC400"/>
<path d="M158.261 222.901L197.76 221.54C198.127 221.883 198.445 222.274 198.706 222.702L159.207 224.063C158.947 223.634 158.629 223.243 158.261 222.901Z" fill="#FFC400"/>
<path d="M196.193 234.928L156.695 236.288C157.317 236.21 157.907 235.969 158.405 235.589C158.903 235.209 159.291 234.703 159.53 234.124C160.274 232.541 160.633 230.805 160.577 229.057C160.522 227.309 160.054 225.599 159.211 224.066L198.704 222.708C199.548 224.241 200.016 225.951 200.072 227.7C200.128 229.448 199.769 231.185 199.025 232.768C198.786 233.346 198.397 233.851 197.899 234.231C197.401 234.611 196.811 234.853 196.19 234.931" fill="#FFC400"/>
<path d="M159.207 224.065L198.705 222.708C199.907 224.877 200.346 227.386 199.951 229.834L160.453 231.196C160.849 228.747 160.41 226.235 159.207 224.065Z" fill="#FFC400"/>
<path d="M160.455 231.195L199.952 229.833C199.814 230.856 199.5 231.848 199.023 232.764C198.784 233.343 198.396 233.848 197.898 234.228C197.4 234.608 196.81 234.849 196.188 234.927L156.693 236.288C157.315 236.211 157.905 235.97 158.403 235.589C158.901 235.209 159.29 234.704 159.529 234.125C160.004 233.209 160.317 232.218 160.456 231.196" fill="#FFA200"/>
<path d="M159.206 224.065C160.049 225.598 160.517 227.308 160.573 229.056C160.629 230.805 160.27 232.541 159.527 234.124C158.002 236.945 155.391 237.018 153.693 234.282C152.849 232.748 152.381 231.036 152.326 229.287C152.27 227.537 152.63 225.8 153.376 224.216C154.895 221.402 157.505 221.327 159.206 224.065Z" fill="#FF9900"/>
<path d="M127.98 229.946C100.074 241.486 72.4483 256.601 48.8841 257.345C25.32 258.089 28.1166 244.512 39.1376 232.753L127.98 229.946Z" fill="#0ED17C"/>
<path d="M38.8166 232.324L155.548 223.604C156.032 223.632 156.5 223.79 156.904 224.059C157.307 224.329 157.631 224.702 157.842 225.139L38.8166 232.324Z" fill="#FE8EA7"/>
<path d="M38.8165 232.323L155.548 223.603C155.839 223.602 156.129 223.659 156.398 223.769C156.668 223.88 156.914 224.043 157.12 224.249L38.8165 232.323Z" fill="#0ED17C"/>
<path d="M38.8147 232.323L157.123 224.251C157.404 224.513 157.647 224.812 157.845 225.14L38.8147 232.323Z" fill="#0ED17C"/>
<path d="M155.933 234.488L38.814 232.323L157.846 225.141C158.492 226.314 158.851 227.622 158.894 228.96C158.937 230.298 158.663 231.627 158.094 232.839C157.913 233.28 157.617 233.666 157.237 233.955C156.857 234.245 156.407 234.429 155.933 234.488Z" fill="#FF698D"/>
<path d="M38.815 232.324L157.845 225.14C158.769 226.801 159.107 228.724 158.804 230.6L38.815 232.324Z" fill="#0ED17C"/>
<path d="M38.8165 232.324L158.805 230.6C158.699 231.381 158.46 232.139 158.097 232.839C157.914 233.28 157.618 233.665 157.239 233.955C156.859 234.244 156.409 234.428 155.935 234.488L38.8165 232.324Z" fill="#0ED17C"/>
<path d="M127.292 227.145C111.011 217 98.9185 203.142 75.356 203.887C51.7934 204.632 40.2355 220.869 38.8145 232.325L127.292 227.145Z" fill="#BEFFE3"/>
<path d="M127.442 231.963C111.831 243.111 101.034 255.612 77.4689 256.358C53.9039 257.103 41.1279 244.011 38.9825 232.675L127.442 231.963Z" fill="#BEFFE3"/>
<path d="M291.861 339.121L293.199 336.627C293.092 333.954 293.693 331.301 294.941 328.935L293.603 331.431C292.354 333.796 291.753 336.449 291.861 339.121Z" fill="#A7A6DF"/>
</g>
<path d="M500.353 279.237L472.258 291.739L447.304 273.512L475.401 261.01L500.353 279.237Z" fill="#A3FFD7"/>
<path d="M500.273 279.228L490.858 365.506L462.76 378.011L472.179 291.731L500.273 279.228Z" fill="#0ED17C"/>
<path d="M472.258 291.739L462.843 378.02L437.888 359.792L447.307 273.512L472.258 291.739Z" fill="#A3FFD7"/>
<path d="M454.442 326.316L426.347 338.818L401.392 320.59L429.489 308.088L454.442 326.316Z" fill="#A3FFD7"/>
<path d="M454.441 326.316L448.13 383.841L420.033 396.343L426.348 338.818L454.441 326.316Z" fill="#0ED17C"/>
<path d="M426.345 338.819L420.034 396.343L395.079 378.115L401.394 320.591L426.345 338.819Z" fill="#A3FFD7"/>
<path d="M409.172 373.076L381.078 385.578L356.122 367.351L384.219 354.848L409.172 373.076Z" fill="#BEFFE3"/>
<path d="M409.17 373.077L405.962 401.848L377.864 414.352L381.077 385.579L409.17 373.077Z" fill="#0ED17C"/>
<path d="M381.075 385.58L377.867 414.351L352.911 396.123L356.123 367.352L381.075 385.58Z" fill="#A3FFD7"/>
<defs>
<clipPath id="clip0_466_297">
<rect width="397" height="414" fill="white" transform="translate(44.6055 0.279175) rotate(6.15978)"/>
</clipPath>
</defs>
</svg>
