<svg width="500" height="400" viewBox="0 0 700 700" fill="none" xmlns="http://www.w3.org/2000/svg">
<mask id="mask0_0_1" style="mask-type:luminance" maskUnits="userSpaceOnUse" x="0" y="0" width="763" height="761">
<path d="M763 0H0V761H763V0Z" fill="white"/>
</mask>
<g mask="url(#mask0_0_1)">
<path d="M565.522 227.878L565.079 378.84L560.051 381.67L560.492 230.708L565.522 227.878Z" fill="#0ED17C"/>
<path d="M565.521 227.878L560.491 230.708C454.483 186.25 307.692 186.244 202.202 230.701L197.14 227.871C305.462 181.914 456.665 181.904 565.521 227.878Z" fill="#0ED17C"/>
<path d="M560.492 230.706L560.049 381.668C454.042 337.214 307.25 337.207 201.76 381.662L202.202 230.701C307.692 186.245 454.484 186.252 560.492 230.706Z" fill="white"/>
<path d="M202.203 230.701L201.76 381.663L196.697 378.833L197.14 227.871L202.203 230.701Z" fill="#0ED17C"/>
<path d="M527.798 260.778C500.432 252.166 471.195 246.106 441.174 242.683V251.652C471.195 255.073 500.432 261.135 527.798 269.745V260.778Z" fill="#ECEFFB"/>
<path d="M441.176 219.077V234.218C471.197 237.64 500.432 243.699 527.8 252.311V237.17C500.432 228.56 471.197 222.5 441.176 219.077Z" fill="#149BA1"/>
<path d="M527.798 278.212C500.432 269.6 471.195 263.54 441.174 260.118V269.087C471.195 272.51 500.432 278.571 527.798 287.18V278.212Z" fill="#ECEFFB"/>
<path d="M527.798 295.646C500.432 287.034 471.195 280.974 441.174 277.553V286.521C471.195 289.943 500.432 296.002 527.798 304.613V295.646Z" fill="#ECEFFB"/>
<path d="M527.798 313.079C500.432 304.468 471.195 298.408 441.174 294.985V303.954C471.195 307.375 500.432 313.437 527.798 322.047V313.079Z" fill="#ECEFFB"/>
<path d="M527.798 330.514C500.432 321.902 471.195 315.842 441.174 312.419V321.388C471.195 324.809 500.432 330.871 527.798 339.481V330.514Z" fill="#ECEFFB"/>
<path d="M424.457 216.604C393.152 214.438 361.709 215.034 330.517 218.389V325.151C361.709 321.798 393.152 321.201 424.457 323.366V216.604Z" fill="#149BA1"/>
<path d="M334.77 222.081C352.26 220.322 369.833 219.444 387.417 219.448C398.307 219.448 409.317 219.787 420.203 220.452V318.969C409.316 318.313 398.31 317.982 387.423 317.982C369.837 317.977 352.264 318.841 334.77 320.569L334.77 222.081Z" fill="white"/>
<path d="M384.094 293.169L357.881 265.771L334.769 292.576V320.57C352.264 318.841 369.837 317.978 387.422 317.983C398.312 317.983 409.315 318.314 420.203 318.969V265.854L384.094 293.169Z" fill="#ECEFFB"/>
<path d="M380.62 244.306C380.62 241.378 381.517 238.515 383.198 236.081C384.878 233.646 387.267 231.748 390.062 230.628C392.857 229.507 395.932 229.214 398.899 229.786C401.866 230.356 404.591 231.766 406.73 233.837C408.869 235.908 410.326 238.546 410.916 241.418C411.507 244.29 411.204 247.267 410.046 249.972C408.888 252.678 406.928 254.99 404.413 256.617C401.898 258.244 398.94 259.112 395.915 259.112C393.906 259.112 391.917 258.729 390.062 257.985C388.206 257.241 386.52 256.15 385.099 254.776C383.679 253.401 382.552 251.769 381.784 249.972C381.015 248.176 380.619 246.251 380.62 244.306Z" fill="#149BA1"/>
<path d="M511.973 368.735C512.41 367.92 513.082 367.246 513.907 366.794C513.92 366.788 513.925 366.777 513.938 366.769C514.558 366.991 515.151 367.226 515.169 367.214C519.025 368.839 519.277 369.309 521.141 372.487V372.502C521.37 372.944 521.622 373.375 521.895 373.793C522.298 374.304 521.426 374.838 521.025 374.33C520.991 374.285 520.963 374.238 520.931 374.192C521.377 374.958 520.443 375.449 519.838 374.69C519.996 375.167 519.327 375.395 518.926 374.647C518.539 373.924 518.165 373.215 517.48 372.735C517.441 372.709 516.786 372.361 516.748 372.338C516.754 372.373 517.486 373.273 517.421 373.731C517.352 374.219 516.833 374.481 516.605 374.009C516.532 373.857 516.446 373.723 516.363 373.585C516.04 373.239 515.668 372.938 515.261 372.69C514.788 372.425 514.382 372.064 514.07 371.63C513.801 371.245 512.986 369.671 511.971 368.735" fill="#FFD2B5"/>
<path d="M473.827 441.204C475.798 441.695 488.908 437.346 489.959 440.038C490.881 442.397 487.532 444.58 485.741 445.001C481.832 445.917 478.942 447.803 477.371 448.123C476.201 448.362 474.687 448.519 473.755 447.629C472.638 446.56 472.735 442.611 473.828 441.204" fill="#149BA1"/>
<path d="M477.371 447.47C478.941 447.149 481.833 445.264 485.741 444.347C487.241 443.995 489.826 442.407 490.086 440.512C490.435 442.683 487.411 444.609 485.741 445C481.834 445.918 478.941 447.803 477.371 448.123C476.2 448.361 474.688 448.518 473.755 447.628C473.514 447.37 473.338 447.061 473.244 446.725C474.602 447.819 476.2 447.708 477.371 447.47Z" fill="white"/>
<path d="M485.77 439.132C486.64 439.636 487.453 440.363 487.651 441.284C487.744 441.709 487.072 441.889 486.98 441.464C486.769 440.488 485.662 439.46 484.772 439.376C484.894 439.244 485.055 439.149 485.232 439.106C485.41 439.062 485.597 439.071 485.77 439.132Z" fill="white"/>
<path d="M483.98 439.385C484.85 439.89 485.692 440.652 485.892 441.573C485.982 441.996 485.311 442.178 485.219 441.753C485.007 440.777 483.9 439.748 483.013 439.664C483.126 439.528 483.279 439.427 483.452 439.378C483.625 439.328 483.81 439.331 483.981 439.385" fill="white"/>
<path d="M482.211 439.716C483.026 440.084 483.94 440.974 484.141 441.895C484.233 442.318 483.561 442.5 483.468 442.075C483.259 441.099 482.151 440.07 481.262 439.986C481.372 439.851 481.523 439.752 481.693 439.704C481.863 439.656 482.044 439.66 482.211 439.716Z" fill="white"/>
<path d="M476.856 441.824C477.741 441.848 478.608 441.576 479.311 441.055C479.462 436.574 480.297 416.05 483.236 403.848C484.61 398.15 486.407 383.894 486.433 370.949H473.692C473.84 372.113 474.001 373.304 474.166 374.512C475.332 383.032 476.649 392.684 473.945 403.739C471.723 412.821 473.408 435.808 473.841 441.155C474.791 441.567 475.815 441.794 476.855 441.824" fill="#FFD2B5"/>
<path d="M487.298 448.528C489.269 449.019 502.379 444.671 503.43 447.362C504.353 449.721 501.001 451.904 499.213 452.324C495.303 453.241 492.413 455.127 490.842 455.447C489.672 455.685 488.158 455.843 487.226 454.953C486.109 453.885 486.206 449.935 487.299 448.527" fill="#149BA1"/>
<path d="M490.84 454.793C492.411 454.472 495.302 452.587 499.21 451.67C500.711 451.318 503.295 449.729 503.557 447.835C503.903 450.006 500.88 451.932 499.21 452.323C495.303 453.241 492.411 455.127 490.84 455.446C489.67 455.684 488.157 455.841 487.225 454.951C486.983 454.693 486.807 454.384 486.713 454.048C488.071 455.141 489.67 455.031 490.84 454.793Z" fill="white"/>
<path d="M499.241 446.456C500.111 446.961 500.924 447.688 501.122 448.608C501.214 449.032 500.544 449.213 500.451 448.789C500.24 447.812 499.133 446.784 498.244 446.7C498.366 446.568 498.526 446.473 498.704 446.43C498.881 446.387 499.068 446.395 499.241 446.456Z" fill="white"/>
<path d="M497.451 446.708C498.321 447.213 499.162 447.975 499.363 448.896C499.453 449.319 498.782 449.501 498.69 449.076C498.478 448.1 497.371 447.071 496.484 446.986C496.597 446.851 496.75 446.75 496.923 446.701C497.096 446.651 497.28 446.653 497.452 446.708" fill="white"/>
<path d="M495.682 447.039C496.497 447.407 497.411 448.297 497.612 449.217C497.704 449.641 497.031 449.823 496.939 449.398C496.729 448.422 495.62 447.393 494.733 447.308C494.843 447.174 494.993 447.076 495.164 447.027C495.334 446.98 495.515 446.983 495.683 447.039" fill="white"/>
<path d="M490.254 449.409C491.138 449.432 492.003 449.16 492.705 448.639C492.856 444.158 493.691 423.635 496.63 411.432C498.507 403.645 500.8 382.093 499.371 368.09C495.858 368.953 489.819 370.393 486.487 370.917C486.505 374.365 487.02 378.136 487.562 382.096C488.724 390.616 490.044 400.272 487.34 411.323C485.118 420.406 486.805 443.393 487.239 448.74C487.79 449.407 489.094 449.407 490.254 449.407" fill="#FFD2B5"/>
<path d="M514.755 366.01C514.19 365.646 511.261 362.853 508.778 360.455C505.29 357.134 503.094 352.749 502.565 348.042C501.908 341.744 502.671 335.231 499.818 330.397C495.278 322.7 487.307 315.045 477.301 316.764C476.18 316.917 475.12 317.351 474.228 318.026C472.6 319.43 471.594 321.389 471.421 323.493C470.852 328.653 471.292 333.871 472.719 338.873C474.423 345.195 475.283 350.676 473.202 356.998C471.588 361.911 467.456 382.041 468.683 387.197C468.724 387.19 486.234 396.601 503.583 388.597C502.931 379.339 498.405 351.883 498.249 350.171C496.95 352.072 497.453 359.418 498.012 360.854C499.402 364.414 512.77 370.949 512.77 370.949C513.151 370.53 515.546 369.344 514.753 366.008" fill="#149BA1"/>
<path d="M489.735 297.695C487.669 296.536 485.215 296.211 482.903 296.79C479.63 297.586 476.733 300.014 475.242 303.146C473.7 306.38 473.853 309.656 475.305 312.433C475.254 312.534 480.896 324.681 482.104 326.075C484.222 325.95 489.738 324.465 490.416 324.119C489.837 322.507 489.314 319.2 490.051 317.671C491.469 317.904 492.87 317.827 493.899 317.217C496.643 315.59 496.332 310.469 496.072 307.864C495.674 303.888 493.393 299.715 489.735 297.695Z" fill="#FFD2B5"/>
<path d="M494.623 297.161C493.452 296.301 492.14 295.638 490.742 295.201C487.621 294.241 484.267 294.256 481.155 295.244C477.277 296.471 473.861 299.284 472.266 302.954C470.495 307.027 472.755 311.279 470.443 315.172C469.383 316.919 468.793 318.896 468.729 320.92C468.665 322.945 469.127 324.953 470.074 326.76C470.152 326.91 470.185 327.078 470.169 327.246C470.154 327.413 470.089 327.573 469.985 327.707C467.832 330.565 468.431 335.128 471.386 337.368C472.368 338.1 473.524 338.583 474.748 338.774C474.82 338.794 474.889 338.823 474.953 338.86C475.886 344.442 482.313 346.084 487.274 344.308C488.475 343.905 489.54 343.191 490.352 342.245C491.165 341.298 491.695 340.154 491.885 338.938C492.316 336.427 492.238 333.835 492.932 331.368C493.488 329.385 495.528 327.174 497.833 327.414C498.408 326.646 498.692 325.71 498.639 324.763C498.557 321.928 496.369 319.948 494.118 318.447C493.016 317.711 492.155 316.364 491.245 315.22C490.784 314.613 490.13 314.171 489.383 313.962C488.976 313.885 488.6 313.701 488.294 313.431C487.988 313.162 487.764 312.816 487.647 312.432C487.595 312.247 487.605 312.052 487.677 311.874C487.748 311.696 487.877 311.545 488.044 311.444C488.212 311.343 488.408 311.297 488.605 311.313C488.802 311.328 488.988 311.404 489.136 311.531C489.561 311.897 489.921 312.278 490.088 312.438C490.451 312.786 490.99 312.295 490.84 311.894C490.578 311.202 490.252 310.504 490.049 309.793C489.905 309.408 489.885 308.991 489.991 308.595C490.096 308.198 490.323 307.842 490.641 307.573C490.754 307.474 490.891 307.404 491.04 307.37C492.984 306.901 494.833 306.658 496.809 305.682C498.045 304.98 497.307 299.152 494.622 297.163" fill="#111470"/>
<mask id="mask1_0_1" style="mask-type:luminance" maskUnits="userSpaceOnUse" x="617" y="253" width="71" height="372">
<path d="M687.285 253.142H617.685V624.508H687.285V253.142Z" fill="white"/>
</mask>
<g mask="url(#mask1_0_1)">
<mask id="mask2_0_1" style="mask-type:luminance" maskUnits="userSpaceOnUse" x="617" y="253" width="71" height="372">
<path d="M687.285 253.142H617.685V624.508H687.285V253.142Z" fill="white"/>
</mask>
<g mask="url(#mask2_0_1)">
<path d="M618.892 256.065C659.358 286.455 679.622 322.694 679.733 358.978L677.9 411.771C679.096 417.887 679.707 424.096 679.733 430.321L676.808 514.595C678.16 475.537 658.325 433.553 619.145 400.195L618.892 256.065Z" fill="white"/>
<g style="mix-blend-mode:hue">
<mask id="mask3_0_1" style="mask-type:luminance" maskUnits="userSpaceOnUse" x="622" y="358" width="66" height="267">
<path d="M687.285 358.958H622.881V624.508H687.285V358.958Z" fill="white"/>
</mask>
<g mask="url(#mask3_0_1)">
<path d="M622.881 466.526C665.747 434.835 687.142 396.872 687.031 358.96L687.285 445.599C687.291 447.699 687.22 449.799 687.096 451.896L687.285 516.941C687.395 554.855 666 592.816 623.134 624.509L622.881 537.869C622.95 537.819 623.019 537.763 623.088 537.713L622.881 466.526Z" fill="white"/>
</g>
</g>
<mask id="mask4_0_1" style="mask-type:luminance" maskUnits="userSpaceOnUse" x="617" y="253" width="71" height="214">
<path d="M687.031 253.142H617.685V466.526H687.031V253.142Z" fill="white"/>
</mask>
<g mask="url(#mask4_0_1)">
<path d="M618.892 256.065C700.459 317.326 699.965 402.344 617.685 463.603L622.881 466.526C707.952 403.63 708.459 316.04 624.122 253.142L618.892 256.065Z" fill="#0ED17C"/>
</g>
<mask id="mask5_0_1" style="mask-type:luminance" maskUnits="userSpaceOnUse" x="617" y="463" width="7" height="162">
<path d="M623.134 463.603H617.685V624.508H623.134V463.603Z" fill="white"/>
</mask>
<g mask="url(#mask5_0_1)">
<path d="M617.686 463.603L622.882 466.526L623.134 553.167L622.925 553.049L623.134 624.509L617.938 621.587L617.686 534.945L617.895 535.064L617.686 463.603Z" fill="#0ED17C"/>
</g>
</g>
</g>
<path d="M653.931 349.256V357.146C645.246 343.949 634.819 331.906 622.913 321.321V314.382C635.405 325.562 645.725 336.938 653.931 349.256Z" fill="#ECEFFB"/>
<path d="M655.439 351.53C656.531 353.237 657.59 354.955 658.598 356.701V364.672C657.59 362.926 656.531 361.192 655.439 359.461V351.53Z" fill="#97CAFC"/>
<path d="M655.439 338.067C656.531 339.774 657.59 341.491 658.598 343.237V351.209C657.59 349.463 656.531 347.728 655.439 345.999V338.067Z" fill="#7B70FF"/>
<path d="M653.931 335.794V343.683C645.246 330.485 634.819 318.442 622.913 307.859V300.919C635.405 312.099 645.725 323.475 653.931 335.794Z" fill="#ECEFFB"/>
<path d="M653.931 322.33V330.22C645.246 317.023 634.819 304.98 622.913 294.396V287.455C635.405 298.636 645.725 310.012 653.931 322.33Z" fill="#ECEFFB"/>
<path d="M655.439 324.604C656.531 326.311 657.59 328.028 658.598 329.775V337.746C657.59 336.002 656.531 334.266 655.439 332.536V324.604Z" fill="#79BBFC"/>
<path d="M655.439 311.143C656.531 312.85 657.59 314.567 658.598 316.314V324.284C657.59 322.539 656.531 320.804 655.439 319.074V311.143Z" fill="#574CF2"/>
<path d="M653.931 308.867V316.757C645.246 303.56 634.819 291.516 622.913 280.932V273.993C635.405 285.173 645.725 296.549 653.931 308.867Z" fill="#ECEFFB"/>
<path d="M143.327 256.065C102.862 286.455 82.595 322.694 82.4878 358.978L84.3206 411.771C83.126 417.887 82.5125 424.096 82.4878 430.321L85.4131 514.595C84.058 475.537 103.896 433.553 143.072 400.195L143.327 256.065Z" fill="white"/>
<path d="M302.644 592.625C302.94 594.081 301.942 594.865 301.043 595.981C299.751 597.584 298.828 599.562 297.413 601.031C296.104 602.393 292.39 604.603 290.504 603.013C292.139 605.483 296.351 603.026 297.752 601.569C299.145 600.12 300.053 598.176 301.325 596.599C302.231 595.475 303.248 594.697 302.885 593.196C302.825 592.998 302.744 592.806 302.643 592.625" fill="white"/>
<path d="M295.616 597.919C295.213 597.663 294.76 597.49 294.285 597.411C293.81 597.333 293.323 597.351 292.855 597.464C292.704 597.501 292.572 597.594 292.49 597.723C292.406 597.851 292.379 598.006 292.411 598.155C293.398 597.97 294.42 598.105 295.321 598.537C295.715 598.755 296.006 598.135 295.616 597.919Z" fill="white"/>
<path d="M296.615 596.384C296.212 596.128 295.759 595.955 295.284 595.877C294.809 595.798 294.322 595.816 293.854 595.928C293.702 595.966 293.57 596.059 293.488 596.188C293.405 596.317 293.377 596.472 293.41 596.62C294.397 596.436 295.419 596.57 296.319 597.002C296.713 597.22 297.005 596.6 296.615 596.384Z" fill="white"/>
<path d="M297.589 594.918C297.186 594.661 296.732 594.488 296.257 594.41C295.782 594.331 295.295 594.348 294.827 594.461C294.675 594.499 294.544 594.591 294.462 594.72C294.379 594.85 294.351 595.004 294.384 595.153C295.37 594.969 296.392 595.103 297.293 595.534C297.687 595.753 297.978 595.133 297.589 594.918Z" fill="white"/>
<path d="M293.878 610.858C293.636 612.324 292.421 612.727 291.179 613.474C289.395 614.545 287.825 616.093 285.972 617.001C284.258 617.842 279.985 618.675 278.782 616.553C279.435 619.417 284.264 618.518 286.1 617.618C287.923 616.725 289.469 615.203 291.223 614.148C292.475 613.396 293.706 613.006 293.902 611.476C293.916 611.269 293.908 611.062 293.878 610.858Z" fill="white"/>
<path d="M285.393 613.48C285.107 613.104 284.743 612.791 284.325 612.558C283.907 612.326 283.443 612.18 282.964 612.129C282.808 612.114 282.652 612.157 282.528 612.251C282.404 612.344 282.323 612.481 282.301 612.631C283.293 612.788 284.204 613.256 284.894 613.963C285.187 614.298 285.681 613.815 285.392 613.481" fill="white"/>
<path d="M286.879 612.372C286.592 611.997 286.228 611.683 285.81 611.451C285.393 611.218 284.929 611.072 284.45 611.022C284.294 611.006 284.138 611.049 284.014 611.143C283.891 611.237 283.81 611.373 283.789 611.524C284.78 611.681 285.691 612.149 286.381 612.856C286.674 613.19 287.169 612.708 286.879 612.374" fill="white"/>
<path d="M288.315 611.318C288.028 610.943 287.665 610.629 287.247 610.397C286.829 610.164 286.365 610.018 285.886 609.968C285.73 609.952 285.574 609.995 285.45 610.089C285.327 610.183 285.246 610.319 285.224 610.47C286.216 610.627 287.127 611.095 287.817 611.802C288.11 612.137 288.604 611.653 288.315 611.32" fill="white"/>
<path d="M252.964 541.221L271.509 530.79L284.819 538.228L266.275 548.659L252.964 541.221Z" fill="#86A8D7"/>
</g>
<mask id="mask6_0_1" style="mask-type:luminance" maskUnits="userSpaceOnUse" x="259" y="540" width="34" height="19">
<path d="M259.595 551.178L273.254 558.753L292.287 548.128L278.628 540.553L259.595 551.178Z" fill="white"/>
</mask>
<g mask="url(#mask6_0_1)">
<path d="M292.286 548.128L278.627 540.552L259.596 551.176L273.254 558.751L292.286 548.128Z" fill="white"/>
</g>
<path d="M261.628 546.486C261.61 546.509 261.589 546.529 261.569 546.551C261.588 546.529 261.61 546.509 261.628 546.486Z" fill="#2A3875"/>
<path d="M261.778 546.276C261.768 546.294 261.756 546.311 261.746 546.326C261.757 546.31 261.768 546.294 261.778 546.276Z" fill="#2A3875"/>
<path d="M267.458 549.583C267.437 549.605 267.412 549.627 267.387 549.649C267.411 549.627 267.436 549.605 267.458 549.583Z" fill="#2A3875"/>
<path d="M267.702 549.271C267.691 549.289 267.68 549.307 267.669 549.322C267.68 549.306 267.691 549.289 267.702 549.271Z" fill="#2A3875"/>
<path d="M602.348 404.069C607.181 401.874 612.274 398.451 616.624 395.459C618.473 394.188 620.262 392.773 622.368 391.901C623.363 391.521 624.399 391.253 625.458 391.102C626.923 390.814 628.319 390.265 629.573 389.482C629.653 389.435 629.747 389.419 629.838 389.437C629.881 389.404 629.932 389.381 629.986 389.368C630.04 389.356 630.097 389.354 630.151 389.365C630.206 389.375 630.258 389.396 630.303 389.427C630.348 389.458 630.386 389.497 630.414 389.544C630.977 390.44 630.391 391.271 629.607 391.805C628.831 392.319 628.006 392.763 627.143 393.129C627.288 394.297 627.058 395.48 626.483 396.519C625.907 397.558 625.015 398.403 623.926 398.94C623.364 399.213 622.746 399.34 622.171 399.572C621.308 399.921 620.652 400.543 619.791 400.867C618.925 401.165 617.986 401.206 617.095 400.987C613.438 404.593 605.028 411.263 605.028 411.263C604.637 410.442 602.346 404.072 602.346 404.072" fill="#FFD2B5"/>
<path d="M564.464 502.686C567.09 503.334 571.899 502.979 574.181 501.647C576.079 501.7 584.546 497.591 585.948 501.148C587.176 504.265 582.713 507.151 580.328 507.706C575.123 508.915 571.274 511.409 569.183 511.829C567.624 512.146 565.608 512.353 564.368 511.177C562.877 509.766 563.008 504.546 564.464 502.685" fill="#149BA1"/>
<path d="M569.183 510.967C571.275 510.545 575.125 508.05 580.328 506.84C582.327 506.376 585.771 504.275 586.118 501.772C586.58 504.642 582.553 507.187 580.328 507.704C575.125 508.915 571.275 511.409 569.183 511.831C567.624 512.146 565.609 512.353 564.368 511.177C564.046 510.835 563.812 510.426 563.685 509.982C565.495 511.428 567.624 511.281 569.185 510.967" fill="white"/>
<path d="M580.52 500.022C581.68 500.69 582.761 501.65 583.027 502.868C583.15 503.428 582.256 503.667 582.131 503.105C581.851 501.816 580.376 500.456 579.193 500.344C579.451 499.962 580.099 499.888 580.52 500.021" fill="#4139E8"/>
<path d="M578.561 500.519C579.72 501.187 580.839 502.194 581.105 503.41C581.228 503.97 580.334 504.21 580.211 503.647C579.93 502.358 578.455 500.999 577.272 500.887C577.422 500.707 577.626 500.575 577.857 500.51C578.087 500.444 578.333 500.447 578.561 500.519Z" fill="#4139E8"/>
<path d="M576.676 501.074C577.761 501.56 578.979 502.737 579.245 503.954C579.367 504.513 578.473 504.753 578.35 504.192C578.067 502.903 576.594 501.543 575.411 501.431C575.557 501.253 575.758 501.124 575.985 501.06C576.211 500.996 576.453 501.001 576.676 501.074Z" fill="#4139E8"/>
<path d="M562.835 426.017C564.629 426.229 581.345 427.254 581.345 427.254C580.993 433.425 578.54 460.461 577.518 468.157C576.545 475.473 574.182 501.646 574.182 501.646C570.603 505.383 564.466 502.688 564.466 502.688C564.466 502.688 562.757 472.927 563.723 464.334C565.551 448.08 562.304 436.655 562.836 426.017" fill="#BEFFE3"/>
<path d="M574.735 508.878C577.36 509.526 582.17 509.17 584.451 507.837C586.35 507.89 594.817 503.781 596.219 507.338C597.446 510.456 592.984 513.341 590.599 513.896C585.393 515.106 581.543 517.6 579.453 518.023C577.895 518.338 575.879 518.545 574.638 517.369C573.148 515.958 573.279 510.738 574.735 508.878Z" fill="#149BA1"/>
<path d="M579.453 517.159C581.544 516.737 585.395 514.242 590.598 513.032C592.596 512.566 596.04 510.465 596.388 507.964C596.849 510.834 592.823 513.379 590.598 513.896C585.395 515.106 581.544 517.599 579.453 518.023C577.895 518.338 575.879 518.545 574.638 517.369C574.316 517.028 574.082 516.618 573.956 516.174C575.765 517.62 577.893 517.474 579.455 517.158" fill="white"/>
<path d="M590.792 506.213C591.951 506.879 593.033 507.84 593.299 509.059C593.421 509.619 592.527 509.857 592.402 509.296C592.122 508.007 590.648 506.647 589.464 506.535C589.722 506.153 590.37 506.079 590.792 506.212" fill="white"/>
<path d="M588.831 506.71C589.988 507.377 591.11 508.384 591.374 509.601C591.496 510.161 590.603 510.401 590.479 509.838C590.198 508.549 588.725 507.189 587.54 507.077C587.691 506.897 587.895 506.765 588.126 506.699C588.356 506.634 588.602 506.638 588.831 506.71Z" fill="white"/>
<path d="M586.946 507.265C588.032 507.751 589.249 508.927 589.515 510.145C589.638 510.704 588.743 510.944 588.621 510.382C588.337 509.093 586.865 507.733 585.681 507.621C585.827 507.443 586.028 507.313 586.254 507.249C586.481 507.185 586.722 507.19 586.946 507.264" fill="white"/>
<path d="M571.312 431.992C573.105 432.206 591.616 433.442 591.616 433.442C591.263 439.614 588.81 466.65 587.788 474.346C586.815 481.662 584.453 507.835 584.453 507.835C580.873 511.572 574.736 508.877 574.736 508.877C574.736 508.877 573.027 479.116 573.995 470.523C575.823 454.269 570.779 442.633 571.313 431.992" fill="#A3FFD7"/>
<path d="M564.335 383.407C564.423 381.808 565.034 380.276 566.08 379.03C567.127 377.784 568.557 376.887 570.165 376.467C573.243 375.699 576.509 376.135 579.754 377.381C584.866 379.381 589.524 382.317 593.468 386.026C596.16 388.533 597.771 391.793 598.989 395.139C599.927 397.72 600.998 400.254 601.986 402.817C602.64 402.443 604.03 401.621 604.03 401.621C608.265 405.481 607.046 410.76 607.046 410.76C607.046 410.76 600.69 415.638 599.197 415.63C595.081 415.608 593.112 407.605 592.279 405.502C593.779 420.751 593.323 433.769 592.94 434.84C576.414 442.024 561.939 434.032 561.9 431.324C561.805 424.693 563.653 394.312 564.334 383.406" fill="#149BA1"/>
<path d="M570.876 358.097C571.743 356.544 573.061 355.264 574.669 354.413C576.277 353.563 578.107 353.178 579.938 353.304C583.448 353.474 587.22 355.213 588.4 358.603C589.935 363.013 591.5 368.438 589.208 372.746C581.754 386.74 568.048 363.106 570.876 358.097Z" fill="#FFD2B5"/>
<path d="M574.142 370.78C574.143 370.702 574.166 370.626 574.207 370.558C574.248 370.492 574.307 370.436 574.377 370.397C574.448 370.358 574.527 370.337 574.609 370.337C574.689 370.337 574.769 370.356 574.84 370.394C577.297 371.81 582.628 371.417 582.628 371.751C582.628 371.751 583.649 378.781 584.032 381.002C584.061 381.115 584.043 381.235 583.983 381.337C583.923 381.439 583.825 381.515 583.709 381.549C580.906 382.484 577.929 381.78 575.666 379.981C574.753 379.256 573.906 378.424 573.786 377.246C573.574 375.167 574.023 372.865 574.144 370.779" fill="#FFD2B5"/>
<path d="M567.944 358.771C568.281 357.819 568.793 356.933 569.455 356.155C571.61 353.645 575.025 351.788 578.495 352.092C578.528 352.099 578.56 352.107 578.592 352.119L578.61 352.101C578.807 351.94 579.017 351.794 579.238 351.665C579.779 351.351 580.392 351.17 581.024 351.138C581.709 351.112 583.085 351.356 583.39 352.083C583.445 352.034 583.511 351.999 583.583 351.98C587.489 350.98 591.612 353.625 590.742 357.744C589.918 361.654 585.798 363.875 581.873 364.22C581.837 364.223 581.804 366.108 581.778 368.11C581.474 367.728 581.079 367.421 580.626 367.215C580.174 367.01 579.677 366.911 579.176 366.928C578.087 366.996 577.038 367.996 577.398 369.088C577.885 370.558 580.12 371.157 581.747 370.733C581.736 371.781 581.728 372.592 581.723 372.778C581.76 373.342 581.582 373.899 581.223 374.346C580.94 374.604 580.588 374.783 580.206 374.86C579.587 375.017 578.944 375.058 578.315 375.16C577.821 375.225 577.343 375.371 576.901 375.593C576.537 375.846 576.155 376.078 575.76 376.284C574.426 376.804 573.679 375.212 573.109 374.356C572.406 373.371 571.62 372.442 570.76 371.579C569.961 370.761 569.296 369.831 568.788 368.82C567.797 366.793 567.297 364.576 567.326 362.337C567.337 361.124 567.546 359.921 567.944 358.771" fill="#111470"/>
<path d="M231.281 252.82V241.237C231.281 240.788 230.947 240.606 230.54 240.83L221.073 243.69L221.069 242.732C221.069 242.144 220.632 241.905 220.1 242.201L214.773 243.861C214.492 244.037 214.257 244.273 214.089 244.553C213.921 244.831 213.824 245.145 213.806 245.467V246.27V246.426L213.812 248.352L213.84 257.821C213.84 258.264 214.174 258.448 214.581 258.221L230.543 254.038C230.758 253.905 230.936 253.725 231.064 253.513C231.191 253.301 231.265 253.063 231.28 252.819" fill="#0ED17C"/>
<path d="M231.281 277.185V265.6C231.281 265.152 230.947 264.97 230.54 265.196L221.073 268.056L221.069 267.096C221.069 266.508 220.632 266.27 220.1 266.564L214.773 268.225C214.492 268.401 214.257 268.638 214.089 268.917C213.921 269.196 213.824 269.51 213.806 269.832V270.633V270.792L213.812 272.717L213.84 282.187C213.84 282.63 214.174 282.812 214.581 282.587L230.543 278.403C230.757 278.27 230.935 278.09 231.063 277.878C231.191 277.667 231.265 277.429 231.28 277.185" fill="#0ED17C"/>
<path d="M231.281 301.549V289.964C231.281 289.516 230.947 289.334 230.54 289.56L221.073 292.42L221.069 291.46C221.069 290.872 220.632 290.634 220.1 290.928L214.773 292.589C214.492 292.765 214.257 293.002 214.089 293.281C213.921 293.56 213.824 293.874 213.806 294.196V294.999V295.156L213.812 297.081L213.84 306.551C213.84 306.994 214.174 307.176 214.581 306.951L230.543 302.767C230.757 302.634 230.935 302.454 231.063 302.242C231.191 302.031 231.265 301.793 231.28 301.549" fill="#0ED17C"/>
<path d="M231.281 325.914V314.329C231.281 313.881 230.947 313.699 230.54 313.925L221.073 316.785L221.069 315.826C221.069 315.238 220.632 314.999 220.1 315.294L214.773 316.954C214.492 317.13 214.257 317.367 214.089 317.647C213.921 317.926 213.824 318.24 213.806 318.562V319.363V319.521L213.812 321.447L213.84 330.916C213.84 331.36 214.174 331.542 214.581 331.316L230.543 327.133C230.757 326.999 230.935 326.82 231.063 326.608C231.191 326.396 231.265 326.158 231.28 325.914" fill="#149BA1"/>
<path d="M231.281 350.278V338.694C231.281 338.245 230.947 338.063 230.54 338.289L221.073 341.149L221.069 340.189C221.069 339.601 220.632 339.363 220.1 339.658L214.773 341.318C214.492 341.494 214.257 341.731 214.089 342.01C213.921 342.29 213.824 342.603 213.806 342.926V343.727V343.885L213.812 345.811L213.84 355.28C213.84 355.723 214.174 355.906 214.581 355.679L230.543 351.496C230.757 351.363 230.935 351.183 231.063 350.972C231.191 350.76 231.265 350.522 231.28 350.278" fill="#0ED17C"/>
<path d="M306.793 226.502C283.742 230.02 261.008 235.239 238.793 242.113V251.247C261.008 244.372 283.742 239.154 306.793 235.636V226.502Z" fill="#ECEFFB"/>
<path d="M306.793 249.527C283.742 253.045 261.008 258.264 238.793 265.138V274.271C261.008 267.397 283.742 262.178 306.793 258.66V249.527Z" fill="#ECEFFB"/>
<path d="M306.793 274.529C283.742 278.047 261.008 283.266 238.793 290.14V299.274C261.008 292.399 283.742 287.179 306.793 283.661V274.529Z" fill="#ECEFFB"/>
<path d="M306.793 298.436C283.742 301.954 261.008 307.173 238.793 314.047V323.181C261.008 316.307 283.742 311.088 306.793 307.57V298.436Z" fill="#ECEFFB"/>
<path d="M306.793 322.556C283.742 326.074 261.008 331.293 238.793 338.167V347.301C261.008 340.426 283.742 335.207 306.793 331.689V322.556Z" fill="#ECEFFB"/>
<path d="M249.565 337.633C244.732 335.438 239.639 332.015 235.289 329.024C233.439 327.752 231.651 326.338 229.545 325.466C228.551 325.086 227.514 324.818 226.456 324.667C224.99 324.379 223.595 323.829 222.34 323.048C222.261 323.001 222.167 322.984 222.076 323.001C222.032 322.969 221.981 322.946 221.927 322.933C221.873 322.921 221.817 322.919 221.762 322.93C221.708 322.939 221.656 322.96 221.611 322.992C221.566 323.022 221.528 323.062 221.5 323.108C220.937 324.005 221.522 324.836 222.306 325.369C223.082 325.884 223.907 326.328 224.77 326.694C224.626 327.862 224.856 329.045 225.431 330.084C226.006 331.122 226.899 331.967 227.988 332.505C228.549 332.778 229.166 332.905 229.742 333.138C230.604 333.485 231.262 334.108 232.122 334.431C232.989 334.728 233.928 334.77 234.819 334.55C238.475 338.156 246.886 344.827 246.886 344.827C247.277 344.005 249.568 337.636 249.568 337.636" fill="#FFD2B5"/>
<path d="M287.45 436.253C284.825 436.9 280.015 436.544 277.733 435.211C275.835 435.264 267.368 431.156 265.966 434.712C264.738 437.829 269.201 440.715 271.586 441.27C276.79 442.481 280.642 444.974 282.731 445.397C284.29 445.712 286.306 445.919 287.546 444.743C289.036 443.331 288.906 438.112 287.45 436.252" fill="#149BA1"/>
<path d="M282.732 444.533C280.64 444.11 276.79 441.617 271.585 440.406C269.588 439.941 266.144 437.841 265.797 435.338C265.335 438.208 269.361 440.753 271.585 441.271C276.79 442.481 280.641 444.974 282.732 445.397C284.29 445.712 286.307 445.919 287.547 444.743C287.869 444.402 288.103 443.992 288.229 443.548C286.42 444.994 284.291 444.848 282.73 444.533" fill="white"/>
<path d="M271.393 433.588C270.234 434.256 269.152 435.216 268.886 436.434C268.763 436.994 269.657 437.233 269.782 436.671C270.062 435.382 271.537 434.022 272.72 433.91C272.462 433.528 271.814 433.454 271.393 433.587" fill="#4139E8"/>
<path d="M273.356 434.084C272.197 434.752 271.077 435.758 270.811 436.975C270.689 437.535 271.583 437.774 271.705 437.212C271.986 435.923 273.462 434.563 274.645 434.451C274.494 434.272 274.29 434.14 274.06 434.074C273.829 434.008 273.584 434.012 273.355 434.083" fill="#4139E8"/>
<path d="M275.239 434.64C274.153 435.126 272.935 436.303 272.669 437.519C272.547 438.08 273.442 438.319 273.564 437.758C273.848 436.469 275.321 435.109 276.504 434.997C276.358 434.819 276.157 434.688 275.93 434.624C275.704 434.56 275.462 434.565 275.238 434.64" fill="#4139E8"/>
<path d="M289.079 359.581C287.286 359.794 270.569 360.818 270.569 360.818C270.921 366.99 273.375 394.026 274.398 401.722C275.371 409.038 277.734 435.211 277.734 435.211C281.313 438.946 287.45 436.254 287.45 436.254C287.45 436.254 289.159 406.493 288.193 397.901C286.365 381.646 289.612 370.222 289.08 359.583" fill="#A3FFD7"/>
<path d="M277.181 442.443C274.556 443.09 269.745 442.735 267.465 441.402C265.564 441.455 257.097 437.346 255.697 440.903C254.47 444.02 258.93 446.906 261.315 447.461C266.52 448.671 270.372 451.164 272.461 451.588C274.02 451.903 276.036 452.11 277.276 450.934C278.766 449.522 278.637 444.302 277.181 442.443Z" fill="#149BA1"/>
<path d="M272.463 450.723C270.371 450.3 266.521 447.807 261.316 446.596C259.319 446.131 255.875 444.029 255.527 441.529C255.066 444.398 259.092 446.943 261.316 447.46C266.521 448.671 270.372 451.164 272.463 451.588C274.021 451.903 276.038 452.11 277.277 450.933C277.6 450.592 277.833 450.183 277.96 449.738C276.15 451.185 274.022 451.038 272.461 450.723" fill="white"/>
<path d="M261.123 439.779C259.964 440.447 258.882 441.406 258.615 442.625C258.493 443.185 259.388 443.423 259.512 442.862C259.793 441.573 261.267 440.213 262.45 440.101C262.192 439.719 261.545 439.645 261.123 439.779Z" fill="white"/>
<path d="M263.085 440.276C261.925 440.944 260.806 441.951 260.54 443.167C260.418 443.727 261.312 443.967 261.435 443.404C261.715 442.115 263.191 440.756 264.374 440.644C264.224 440.463 264.02 440.332 263.789 440.266C263.559 440.201 263.313 440.203 263.085 440.275" fill="white"/>
<path d="M264.97 440.831C263.884 441.317 262.667 442.493 262.401 443.712C262.278 444.27 263.173 444.51 263.295 443.948C263.579 442.66 265.052 441.3 266.235 441.188C266.089 441.01 265.889 440.88 265.662 440.815C265.435 440.751 265.194 440.757 264.97 440.831Z" fill="white"/>
<path d="M280.603 365.558C278.81 365.772 260.299 367.009 260.299 367.009C260.652 373.18 263.103 400.216 264.127 407.912C265.1 415.228 267.463 441.401 267.463 441.401C271.042 445.138 277.179 442.443 277.179 442.443C277.179 442.443 278.888 412.681 277.92 404.089C276.093 387.834 281.136 376.199 280.603 365.558Z" fill="#BEFFE3"/>
<path d="M287.579 316.974C287.492 315.374 286.882 313.843 285.834 312.597C284.787 311.351 283.357 310.454 281.749 310.035C278.674 309.265 275.407 309.701 272.161 310.947C267.049 312.948 262.391 315.884 258.446 319.592C255.754 322.099 254.144 325.36 252.926 328.706C251.987 331.287 250.916 333.82 249.929 336.384C249.274 336.009 247.886 335.188 247.886 335.188C243.65 339.048 244.868 344.326 244.868 344.326C244.868 344.326 251.224 349.204 252.717 349.196C256.833 349.174 258.802 341.171 259.635 339.069C258.135 354.317 258.591 367.335 258.974 368.406C275.5 375.59 289.976 367.599 290.014 364.89C290.109 358.26 288.261 327.879 287.581 316.973" fill="#149BA1"/>
<path d="M281.04 291.662C280.173 290.108 278.855 288.828 277.247 287.978C275.639 287.128 273.809 286.742 271.978 286.869C268.468 287.039 264.697 288.778 263.516 292.167C261.982 296.578 260.416 302.003 262.709 306.311C270.162 320.306 283.868 296.672 281.04 291.663" fill="#FFD2B5"/>
<path d="M277.772 304.344C277.771 304.267 277.748 304.19 277.707 304.123C277.666 304.056 277.607 304.001 277.537 303.962C277.466 303.923 277.387 303.903 277.305 303.903C277.225 303.902 277.145 303.922 277.074 303.96C274.618 305.375 269.286 304.983 269.286 305.315C269.286 305.315 268.266 312.346 267.881 314.566C267.853 314.68 267.87 314.8 267.931 314.902C267.991 315.003 268.089 315.079 268.206 315.113C271.009 316.048 273.986 315.344 276.248 313.546C277.162 312.82 278.009 311.989 278.128 310.812C278.341 308.732 277.892 306.429 277.771 304.343" fill="#FFD2B5"/>
<path d="M283.972 292.337C283.635 291.385 283.123 290.499 282.46 289.721C280.306 287.209 276.891 285.354 273.42 285.658C273.388 285.664 273.355 285.673 273.324 285.685L273.306 285.668C273.109 285.506 272.899 285.361 272.677 285.232C272.137 284.917 271.524 284.736 270.892 284.705C270.206 284.678 268.83 284.923 268.525 285.649C268.471 285.6 268.405 285.565 268.333 285.547C264.429 284.546 260.303 287.192 261.174 291.311C261.998 295.22 266.118 297.442 270.043 297.787C270.078 297.789 270.112 299.674 270.138 301.676C270.442 301.294 270.837 300.987 271.289 300.781C271.742 300.576 272.239 300.478 272.739 300.494C273.829 300.562 274.878 301.562 274.517 302.655C274.033 304.124 271.796 304.724 270.168 304.3C270.18 305.346 270.188 306.158 270.193 306.345C270.156 306.908 270.334 307.465 270.693 307.912C270.976 308.17 271.327 308.348 271.71 308.427C272.328 308.583 272.971 308.622 273.601 308.726C274.095 308.792 274.574 308.938 275.016 309.159C275.381 309.412 275.761 309.644 276.156 309.851C277.491 310.37 278.236 308.778 278.807 307.922C279.511 306.937 280.296 306.008 281.156 305.144C281.955 304.326 282.62 303.397 283.127 302.387C284.118 300.36 284.618 298.142 284.59 295.903C284.579 294.69 284.37 293.487 283.971 292.337" fill="#111470"/>
</svg>
