<svg width="500" height="400" viewBox="0 0 700 700" fill="none" xmlns="http://www.w3.org/2000/svg">
<g clip-path="url(#clip0_317_117)">
<path d="M209.5 23.567L235.842 23.9529C262.848 24.345 289.578 42.6302 309.558 78.6537L283.216 78.2677C263.235 42.2459 236.496 23.9548 209.5 23.567Z" fill="#BEFFE3"/>
<path d="M230.553 385.722L204.21 385.341C230.868 385.732 257.789 368.689 278.732 334.071C320.906 264.376 322.908 149.857 283.208 78.2766L309.557 78.6537C349.261 150.231 347.258 264.755 305.083 334.448C284.133 369.07 257.211 386.115 230.561 385.719" fill="#FF698D"/>
<path d="M283.215 78.2674L309.557 78.6534C349.261 150.231 347.257 264.754 305.084 334.446C284.133 369.07 257.21 386.112 230.561 385.717L204.208 385.34C230.866 385.731 257.789 368.689 278.73 334.07C320.905 264.373 322.905 149.853 283.205 78.2732" fill="#BEFFE3"/>
<path d="M283.216 78.2677C322.918 149.844 320.916 264.368 278.741 334.064C236.567 403.76 170.2 402.221 130.498 330.64C90.7964 259.06 92.797 144.535 134.969 74.8443C177.141 5.15319 243.514 6.67879 283.216 78.2677Z" fill="#149BA1"/>
<path d="M268.432 102.695C300.447 160.417 298.833 252.768 264.824 308.97C230.814 365.172 177.292 363.937 145.277 306.215C113.262 248.493 114.878 156.133 148.886 99.9365C182.893 43.7398 236.415 44.9683 268.434 102.692" fill="#E9ECF5"/>
<path d="M252.196 129.528C275.77 172.031 274.579 240.028 249.539 281.411C224.5 322.794 185.09 321.886 161.518 279.379C137.945 236.872 139.136 168.877 164.173 127.496C189.209 86.1161 228.621 87.0234 252.196 129.528Z" fill="#0ED17C"/>
<path d="M237.095 154.481C252.818 182.828 252.024 228.182 235.322 255.781C218.62 283.379 192.334 282.771 176.617 254.425C160.9 226.08 161.685 180.723 178.39 153.127C195.094 125.532 221.378 126.135 237.099 154.482" fill="#E9ECF5"/>
<path d="M223.618 176.749C232.333 192.465 231.893 217.606 222.633 232.904C213.374 248.203 198.807 247.867 190.091 232.153C181.374 216.439 181.815 191.296 191.072 175.999C200.33 160.701 214.901 161.035 223.626 176.753" fill="#149BA1"/>
<path d="M98.8352 148.942C77.1208 127.964 56.9822 103.762 35.3389 94.4149C13.6957 85.068 11.2999 98.7352 17.2335 113.718L98.8352 148.942Z" fill="#0ED17C"/>
<path d="M199.636 190.444L145.317 163.537C145.797 163.762 146.169 164.167 146.35 164.665L199.569 190.622L199.636 190.444Z" fill="#BFBEED"/>
<path d="M199.562 190.626L146.343 164.668C146.473 164.988 146.557 165.325 146.592 165.668L199.455 190.877L199.562 190.626Z" fill="#EDECF8"/>
<path d="M198.819 192.462L199.46 190.878L146.598 165.668C146.712 167.374 146.249 169.069 145.285 170.481L198.819 192.462Z" fill="#EDECF8"/>
<path d="M198.819 192.462L145.285 170.481C144.902 171.078 144.42 171.605 143.858 172.038C143.54 172.328 143.15 172.529 142.729 172.619C142.307 172.709 141.869 172.685 141.46 172.551L198.39 193.522L198.819 192.462Z" fill="#BFBEED"/>
<path d="M146.6 165.67C146.677 166.873 146.468 168.076 145.99 169.182C145.512 170.288 144.779 171.266 143.85 172.034C143.551 172.361 143.157 172.585 142.723 172.676C142.29 172.768 141.838 172.721 141.433 172.543C141.027 172.364 140.687 172.063 140.461 171.682C140.236 171.301 140.135 170.859 140.173 170.418C140.097 169.217 140.307 168.015 140.785 166.91C141.262 165.805 141.995 164.828 142.922 164.06C143.221 163.734 143.615 163.509 144.048 163.418C144.481 163.327 144.932 163.373 145.337 163.551C145.743 163.728 146.082 164.028 146.309 164.408C146.535 164.788 146.637 165.229 146.6 165.67Z" fill="#23232A"/>
<path d="M128.248 153.798L164.567 169.357C165.126 169.658 165.595 170.103 165.924 170.646C166.253 171.189 166.43 171.811 166.437 172.446L130.118 156.889C130.111 156.254 129.935 155.634 129.608 155.09C129.281 154.547 128.814 154.101 128.256 153.798" fill="#FFC400"/>
<path d="M128.248 153.799L164.567 169.357C165.265 169.682 165.805 170.271 166.069 170.993L129.75 155.437C129.486 154.714 128.945 154.125 128.248 153.799Z" fill="#FFC400"/>
<path d="M129.75 155.436L166.068 170.995C166.257 171.459 166.379 171.948 166.431 172.447L130.111 156.89C130.058 156.392 129.935 155.902 129.75 155.436Z" fill="#FFC400"/>
<path d="M158.955 182.441L122.636 166.885C123.232 167.079 123.869 167.112 124.482 166.98C125.095 166.848 125.662 166.556 126.126 166.134C127.473 165.017 128.538 163.598 129.232 161.992C129.926 160.386 130.23 158.638 130.12 156.892L166.439 172.451C166.548 174.197 166.244 175.943 165.55 177.549C164.856 179.155 163.792 180.574 162.445 181.691C161.982 182.113 161.415 182.405 160.802 182.537C160.189 182.669 159.552 182.636 158.955 182.441Z" fill="#FFC400"/>
<path d="M130.11 156.89L166.43 172.447C166.595 174.925 165.923 177.387 164.521 179.437L128.201 163.88C129.603 161.83 130.276 159.368 130.11 156.89Z" fill="#FFC400"/>
<path d="M128.204 163.87L164.524 179.427C163.963 180.293 163.256 181.057 162.436 181.683C161.972 182.106 161.405 182.398 160.792 182.53C160.179 182.662 159.541 182.63 158.945 182.436L122.625 166.879C123.222 167.073 123.859 167.107 124.472 166.975C125.085 166.843 125.652 166.551 126.115 166.128C126.935 165.5 127.643 164.737 128.204 163.87Z" fill="#FFA200"/>
<path d="M130.11 156.889C130.22 158.634 129.916 160.381 129.222 161.987C128.528 163.593 127.464 165.012 126.117 166.129C123.538 168.033 121.142 166.991 120.77 163.79C120.66 162.044 120.965 160.296 121.66 158.69C122.354 157.083 123.42 155.664 124.768 154.548C127.343 152.645 129.738 153.689 130.11 156.889Z" fill="#FF9900"/>
<path d="M99.344 148.939C69.1748 147.519 37.7392 149.454 16.0919 140.107C-5.55548 130.761 2.75827 119.663 17.741 113.708L99.344 148.939Z" fill="#0ED17C"/>
<path d="M17.6337 113.183L126.997 154.918C127.425 155.15 127.783 155.492 128.035 155.909C128.286 156.325 128.422 156.802 128.428 157.288L17.6337 113.183Z" fill="#FE8EA7"/>
<path d="M17.6337 113.183L126.997 154.918C127.532 155.17 127.945 155.624 128.146 156.179L17.6337 113.183Z" fill="#0ED17C"/>
<path d="M17.6333 113.184L128.143 156.175C128.286 156.529 128.379 156.902 128.42 157.282L17.6333 113.184Z" fill="#0ED17C"/>
<path d="M122.709 164.93L17.634 113.185L128.42 157.284C128.504 158.62 128.271 159.957 127.739 161.186C127.207 162.415 126.391 163.5 125.359 164.354C125.007 164.676 124.575 164.899 124.108 164.999C123.641 165.1 123.156 165.075 122.702 164.927" fill="#FF698D"/>
<path d="M17.634 113.185L128.42 157.284C128.546 159.18 128.032 161.063 126.96 162.633L17.634 113.185Z" fill="#0ED17C"/>
<path d="M17.6338 113.184L126.96 162.632C126.532 163.294 125.993 163.878 125.367 164.358C125.013 164.679 124.581 164.901 124.114 165.001C123.646 165.101 123.161 165.076 122.707 164.928L17.6338 113.184Z" fill="#0ED17C"/>
<path d="M99.9141 146.109C89.5038 130.009 84.458 112.326 62.8066 102.98C41.1551 93.6335 23.7944 103.422 17.6299 113.176L99.9141 146.109Z" fill="#BEFFE3"/>
<path d="M97.9986 150.533C79.1278 153.991 64.0283 160.708 42.3854 151.365C20.7425 142.022 14.7493 124.746 17.6372 113.573L97.9986 150.533Z" fill="#BEFFE3"/>
<path d="M107.105 219.664C77.6403 213.034 47.8442 202.831 24.4959 206.099C1.14764 209.368 6.21244 222.276 19.0744 231.989L107.105 219.664Z" fill="#0ED17C"/>
<path d="M204.746 203.6L154.401 207.981C154.929 207.925 155.457 208.078 155.871 208.408L204.64 203.862L204.746 203.6Z" fill="#BFBEED"/>
<path d="M204.64 203.862L155.882 208.407C156.158 208.613 156.405 208.857 156.615 209.131L204.494 204.247L204.64 203.862Z" fill="#EDECF8"/>
<path d="M204.485 204.242L156.605 209.126C157.59 210.524 158.078 212.213 157.988 213.92L203.483 206.717L204.485 204.242Z" fill="#EDECF8"/>
<path d="M203.485 206.716L157.991 213.919C157.971 214.629 157.83 215.33 157.574 215.992C157.453 216.404 157.225 216.777 156.913 217.073C156.601 217.369 156.216 217.577 155.797 217.676L202.783 208.452L203.485 206.716Z" fill="#BFBEED"/>
<path d="M156.605 209.127C157.296 210.114 157.744 211.25 157.911 212.443C158.079 213.636 157.962 214.852 157.57 215.991C156.739 218.043 154.953 218.27 153.586 216.52C152.897 215.533 152.45 214.398 152.283 213.206C152.116 212.014 152.233 210.799 152.625 209.661C153.456 207.609 155.243 207.384 156.605 209.127Z" fill="#23232A"/>
<path d="M134.754 208.525L173.877 202.935C174.511 202.903 175.142 203.042 175.705 203.336C176.267 203.63 176.741 204.068 177.077 204.607L137.952 210.198C137.617 209.66 137.143 209.221 136.581 208.927C136.019 208.632 135.388 208.494 134.754 208.525Z" fill="#FFC400"/>
<path d="M134.754 208.524L173.877 202.933C174.256 202.891 174.641 202.923 175.008 203.03C175.375 203.136 175.717 203.314 176.015 203.553L136.891 209.143C136.593 208.904 136.251 208.726 135.884 208.62C135.517 208.513 135.132 208.48 134.752 208.523" fill="#FFC400"/>
<path d="M136.888 209.141L176.013 203.55C176.414 203.851 176.772 204.206 177.078 204.603L137.953 210.195C137.648 209.796 137.29 209.441 136.888 209.141Z" fill="#FFC400"/>
<path d="M175.891 217.029L136.767 222.618C137.377 222.474 137.938 222.171 138.392 221.74C138.847 221.309 139.178 220.765 139.354 220.163C139.923 218.51 140.094 216.745 139.851 215.013C139.608 213.281 138.96 211.631 137.957 210.197L177.077 204.61C178.08 206.043 178.729 207.693 178.972 209.425C179.215 211.158 179.045 212.923 178.475 214.576C178.299 215.178 177.967 215.721 177.513 216.153C177.058 216.584 176.498 216.887 175.888 217.031" fill="#FFC400"/>
<path d="M137.953 210.197L177.076 204.609C178.504 206.637 179.21 209.085 179.079 211.561L139.956 217.153C140.087 214.676 139.382 212.225 137.953 210.197Z" fill="#FFC400"/>
<path d="M139.958 217.151L179.081 211.56C179.054 212.592 178.848 213.611 178.473 214.573C178.297 215.175 177.965 215.718 177.511 216.15C177.056 216.581 176.496 216.884 175.886 217.028L136.765 222.619C137.375 222.475 137.936 222.172 138.39 221.741C138.845 221.31 139.177 220.766 139.352 220.164C139.726 219.203 139.932 218.184 139.96 217.152" fill="#FFA200"/>
<path d="M137.952 210.197C138.955 211.631 139.604 213.281 139.847 215.013C140.09 216.745 139.92 218.51 139.35 220.164C138.137 223.132 135.549 223.485 133.567 220.946C132.564 219.512 131.914 217.86 131.672 216.127C131.429 214.393 131.6 212.627 132.172 210.973C133.38 208.012 135.967 207.657 137.952 210.197Z" fill="#FF9900"/>
<path d="M107.536 219.395C81.0303 233.863 55.1855 251.854 31.8372 255.122C8.48895 258.39 9.81259 244.592 19.5083 231.719L107.536 219.395Z" fill="#0ED17C"/>
<path d="M19.143 231.326L134.265 210.131C134.749 210.107 135.232 210.213 135.662 210.438C136.092 210.663 136.454 210.999 136.71 211.411L19.143 231.326Z" fill="#FE8EA7"/>
<path d="M19.1429 231.326L134.264 210.131C134.554 210.098 134.848 210.123 135.128 210.204C135.408 210.285 135.67 210.421 135.897 210.604L19.1429 231.326Z" fill="#0ED17C"/>
<path d="M19.1418 231.325L135.901 210.605C136.208 210.835 136.482 211.107 136.714 211.412L19.1418 231.325Z" fill="#0ED17C"/>
<path d="M135.815 220.911L19.1405 231.326L136.714 211.413C137.482 212.509 137.98 213.772 138.166 215.097C138.353 216.423 138.223 217.773 137.787 219.039C137.654 219.498 137.401 219.913 137.055 220.241C136.708 220.57 136.28 220.801 135.815 220.911Z" fill="#FF698D"/>
<path d="M19.1419 231.326L136.714 211.412C137.811 212.964 138.353 214.84 138.253 216.737L19.1419 231.326Z" fill="#0ED17C"/>
<path d="M19.1431 231.326L138.254 216.737C138.233 217.525 138.076 218.304 137.79 219.039C137.656 219.497 137.403 219.912 137.056 220.24C136.71 220.569 136.283 220.8 135.818 220.91L19.1431 231.326Z" fill="#0ED17C"/>
<path d="M106.553 216.684C89.2773 208.345 75.7672 195.863 52.4207 199.132C29.0741 202.401 19.3252 219.785 19.1416 231.327L106.553 216.684Z" fill="#BEFFE3"/>
<path d="M107.219 221.458C92.8932 234.217 83.5001 247.804 60.1511 251.073C36.8022 254.343 22.6952 242.698 19.3457 231.657L107.219 221.458Z" fill="#BEFFE3"/>
<path d="M282.187 310.355L283.249 307.731C282.855 305.085 283.168 302.383 284.156 299.896L283.093 302.522C282.105 305.007 281.792 307.71 282.187 310.355Z" fill="#A7A6DF"/>
</g>
<path d="M483.049 228.445L456.458 243.89L429.691 228.445L456.285 213L483.049 228.445Z" fill="#A3FFD7"/>
<path d="M482.968 228.445L482.865 315.235L456.271 330.682L456.378 243.89L482.968 228.445Z" fill="#0ED17C"/>
<path d="M456.457 243.89L456.355 330.682L429.588 315.238L429.694 228.445L456.457 243.89Z" fill="#A3FFD7"/>
<path d="M442.454 280.178L415.863 295.623L389.096 280.178L415.689 264.733L442.454 280.178Z" fill="#A3FFD7"/>
<path d="M442.454 280.178L442.351 338.048L415.758 353.493L415.864 295.623L442.454 280.178Z" fill="#0ED17C"/>
<path d="M415.862 295.624L415.759 353.493L388.992 338.049L389.099 280.178L415.862 295.624Z" fill="#A3FFD7"/>
<path d="M402.464 331.526L375.873 346.971L349.105 331.526L375.699 316.081L402.464 331.526Z" fill="#BEFFE3"/>
<path d="M402.462 331.527L402.359 360.476L375.766 375.923L375.872 346.971L402.462 331.527Z" fill="#0ED17C"/>
<path d="M375.87 346.972L375.767 375.922L349 360.477L349.106 331.527L375.87 346.972Z" fill="#A3FFD7"/>
<defs>
<clipPath id="clip0_317_117">
<rect width="397" height="414" fill="white"/>
</clipPath>
</defs>
</svg>
