<svg width="600" height="450" viewBox="0 0 800 750" fill="none" xmlns="http://www.w3.org/2000/svg">
<g clip-path="url(#clip0_424_347)">
<mask id="mask0_424_347" style="mask-type:luminance" maskUnits="userSpaceOnUse" x="405" y="200" width="85" height="18">
<path d="M480.987 200.628H414.224C409.43 200.628 405.544 204.512 405.544 209.303V209.304C405.544 214.096 409.43 217.98 414.224 217.98H480.987C485.781 217.98 489.667 214.096 489.667 209.304V209.303C489.667 204.512 485.781 200.628 480.987 200.628Z" fill="white"/>
</mask>
<g mask="url(#mask0_424_347)">
<path d="M489.667 200.628H405.544V217.98H489.667V200.628Z" fill="url(#paint0_linear_424_347)"/>
</g>
<mask id="mask1_424_347" style="mask-type:luminance" maskUnits="userSpaceOnUse" x="557" y="207" width="85" height="18">
<path d="M566.37 207.07H633.135C635.437 207.07 637.645 207.984 639.272 209.611C640.9 211.237 641.814 213.444 641.814 215.745C641.814 216.884 641.59 218.012 641.154 219.065C640.717 220.117 640.078 221.074 639.272 221.879C637.644 223.506 635.436 224.42 633.134 224.42H566.369C564.067 224.42 561.86 223.506 560.232 221.879C558.605 220.252 557.69 218.046 557.69 215.745C557.69 213.444 558.605 211.238 560.233 209.611C561.861 207.984 564.068 207.07 566.37 207.07Z" fill="white"/>
</mask>
<g mask="url(#mask1_424_347)">
<path d="M641.814 207.07H557.69V224.421H641.814V207.07Z" fill="url(#paint1_linear_424_347)"/>
</g>
<mask id="mask2_424_347" style="mask-type:luminance" maskUnits="userSpaceOnUse" x="0" y="0" width="1069" height="647">
<path d="M1069 0H0V647H1069V0Z" fill="white"/>
</mask>
<g mask="url(#mask2_424_347)">
<path d="M742.211 399.366C742.211 403.876 742.078 408.348 741.812 412.783L698.034 432.673L640.706 458.729L519.244 513.924L384.611 411.458L338.823 376.61L302.083 348.658C325.047 250.017 413.56 176.507 519.244 176.507C642.385 176.507 742.209 276.291 742.209 399.366" fill="white"/>
</g>
<mask id="mask3_424_347" style="mask-type:luminance" maskUnits="userSpaceOnUse" x="338" y="217" width="364" height="297">
<path d="M338.826 376.61L384.614 411.458L519.247 513.924L640.708 458.729L698.033 432.673C700.066 421.687 701.087 410.538 701.084 399.366C701.084 298.989 619.676 217.612 519.247 217.612C426.528 217.612 350.021 286.965 338.826 376.609" fill="white"/>
</mask>
<g mask="url(#mask3_424_347)">
<path d="M701.084 217.611H338.826V513.923H701.084V217.611Z" fill="#A3FFD7"/>
</g>
<mask id="mask4_424_347" style="mask-type:luminance" maskUnits="userSpaceOnUse" x="0" y="0" width="1069" height="647">
<path d="M1069 0H0V647H1069V0Z" fill="white"/>
</mask>
<g mask="url(#mask4_424_347)">
<path d="M654.428 399.366C654.457 419.942 649.763 440.25 640.707 458.729L519.246 513.924L384.613 411.458C384.247 407.473 384.064 403.442 384.064 399.366C384.064 324.738 444.59 264.255 519.246 264.255C593.902 264.255 654.428 324.737 654.428 399.366Z" fill="white"/>
</g>
<mask id="mask5_424_347" style="mask-type:luminance" maskUnits="userSpaceOnUse" x="456" y="336" width="126" height="126">
<path d="M456.809 399.36C456.809 411.703 460.471 423.769 467.332 434.031C474.192 444.294 483.944 452.293 495.353 457.016C506.762 461.74 519.316 462.976 531.428 460.568C543.54 458.16 554.665 452.217 563.398 443.489C572.13 434.762 578.077 423.643 580.486 411.537C582.896 399.432 581.66 386.884 576.934 375.481C572.209 364.077 564.206 354.331 553.938 347.473C543.671 340.615 531.599 336.955 519.25 336.955C502.69 336.955 486.809 343.53 475.099 355.233C463.389 366.936 456.811 382.809 456.811 399.36" fill="white"/>
</mask>
<g mask="url(#mask5_424_347)">
<path d="M581.686 336.955H456.809V461.767H581.686V336.955Z" fill="#149BA1"/>
</g>
<mask id="mask6_424_347" style="mask-type:luminance" maskUnits="userSpaceOnUse" x="322" y="380" width="129" height="99">
<path d="M323.077 380.38L322.293 381.41L449.934 478.553L450.718 477.524L323.077 380.38Z" fill="white"/>
</mask>
<g mask="url(#mask6_424_347)">
<path d="M450.717 380.38H322.293V478.553H450.717V380.38Z" fill="url(#paint2_linear_424_347)"/>
</g>
<mask id="mask7_424_347" style="mask-type:luminance" maskUnits="userSpaceOnUse" x="540" y="472" width="97" height="46">
<path d="M636.001 472.912L540.887 516.161L541.423 517.338L636.537 474.089L636.001 472.912Z" fill="white"/>
</mask>
<g mask="url(#mask7_424_347)">
<path d="M636.568 472.917H540.884V517.332H636.568V472.917Z" fill="url(#paint3_linear_424_347)"/>
</g>
<path d="M588.697 392.653C588.697 392.653 585.451 392.05 583.805 390.38C582.159 388.711 577.745 387.499 576.327 387.539C574.908 387.579 564.481 387.361 563.601 387.914C562.721 388.467 563.464 389.723 564.506 389.714C565.547 389.705 575.186 390.451 575.186 390.451C575.186 390.451 564.486 390.22 563.765 390.861C563.043 391.502 563.051 392.833 564.51 393.293C564.51 393.293 563.412 395.49 566.035 395.68L571.263 396.078C571.263 396.078 568.493 396.36 570.263 397.498C571.204 398.104 577.188 397.841 578.367 398.169C579.546 398.497 586.777 398.321 586.777 398.321L588.697 392.653Z" fill="#EEA886"/>
<path d="M602.054 590.396C602.054 600.721 634.031 609.091 673.477 609.091C712.923 609.091 744.9 600.721 744.9 590.396C744.9 580.071 712.923 571.701 673.477 571.701C634.031 571.701 602.054 580.071 602.054 590.396Z" fill="#0ED17C"/>
<path d="M606.371 585.79C606.371 595.49 636.415 603.355 673.477 603.355C710.539 603.355 740.583 595.49 740.583 585.79C740.583 576.089 710.539 568.225 673.477 568.225C636.415 568.225 606.371 576.089 606.371 585.79Z" fill="#149BA1"/>
<path d="M695.641 370.059C695.641 370.059 697.591 397.389 692.249 400.66C688.902 402.709 675.557 409.619 675.953 410.915C676.348 412.211 683.489 422.446 683.489 422.446C683.489 422.446 709.122 405.575 709.948 400.259C710.757 395.064 708.686 360.244 705.164 358.639C702.525 357.437 701.132 358.431 697.806 360.899C693.139 364.363 695.643 370.059 695.643 370.059" fill="#149BA1"/>
<path d="M698.622 568.943C698.622 568.943 699.418 574.472 699.518 575.304C699.618 576.135 708.385 574.814 708.385 574.814L709.093 568.231C709.093 568.231 699.716 568.163 698.62 568.943" fill="#424773"/>
<path d="M699.424 574.6C699.424 574.6 696.645 577.932 693.961 579.384C691.277 580.837 687.052 581.412 685.464 582.915C684.317 584 681.287 588.672 692.444 588.577C703.6 588.482 708.983 589.238 710.177 587.446C711.371 585.655 708.447 574.225 708.447 574.225C708.447 574.225 705.804 575.176 699.424 574.6Z" fill="#292C47"/>
<path d="M654.744 568.943C654.744 568.943 655.541 574.472 655.64 575.304C655.74 576.135 664.508 574.814 664.508 574.814L665.216 568.231C665.216 568.231 655.838 568.163 654.742 568.943" fill="#424773"/>
<path d="M655.547 574.6C655.547 574.6 652.769 577.932 650.085 579.384C647.4 580.837 637.511 582.03 635.923 583.533C634.776 584.619 632.869 588.987 648.567 588.578C659.722 588.288 665.107 589.238 666.301 587.447C667.496 585.656 664.571 574.225 664.571 574.225C664.571 574.225 662.082 575.24 655.548 574.6" fill="#292C47"/>
<path d="M695.476 426.854C695.476 426.854 703.714 439.936 703.1 451.761C702.485 463.585 703.833 476.217 705.072 488.569C706.451 502.34 710.21 530.999 710.415 538.364C710.619 545.729 710.146 573.448 710.146 573.448L695.856 573.341C695.856 573.341 690.785 517.346 688.326 511.53C685.867 505.715 675.778 463.646 675.368 458.994C674.958 454.341 695.477 426.853 695.477 426.853" fill="#A3FFD7"/>
<path d="M652.11 428.627C652.11 428.627 648.856 460.774 648.036 468.011C647.216 475.248 647.778 506.609 647.369 511.133C646.959 515.657 650.107 563.498 650.883 572.61L666.587 572.508C666.587 572.508 667.671 533.807 667.671 515.003C667.671 496.199 672.498 474.308 678.029 461.903C683.56 449.498 696.222 449.203 699.621 426.185C699.621 426.185 656.713 421.326 652.109 428.627" fill="#BEFFE3"/>
<path d="M682.674 315.766C682.674 315.766 671.831 311.104 666.328 319.258C660.826 327.413 660.496 344.259 665.962 346.598C671.428 348.938 679.844 348.267 682.95 343.146C686.057 338.025 689 330.551 689.125 325.465C689.249 320.379 685.502 317.374 682.674 315.766Z" fill="#EEA886"/>
<path d="M668.072 344.954C668.072 344.954 668.2 351.849 667.44 353.318C666.68 354.788 681.765 354.827 681.765 354.827C681.765 354.827 683.427 345.762 685.749 339.006C688.07 332.251 668.073 344.954 668.073 344.954" fill="#EEA886"/>
<path d="M685.487 339.329C685.487 339.329 683.997 340.784 679.784 339.911C675.572 339.039 670.669 333.141 668.926 332.435C667.184 331.729 667.218 330.687 667.218 330.687L666.029 332.254L664.14 332.282C664.14 332.282 666.104 327.316 663.614 325.13C661.124 322.944 667.099 308.917 680.482 314.337C680.482 314.337 690.8 317.728 690.128 323.652C689.456 329.577 687.971 336.483 685.486 339.329" fill="#292C47"/>
<path d="M666.545 353.144C666.545 353.144 666.592 350.335 667.867 350.066C669.141 349.797 681.925 348.569 683.488 349.183V352.454C683.488 352.454 680.476 354.307 666.544 353.144" fill="#E2D2CA"/>
<path d="M667.605 328.541C667.892 327.556 670.567 324.83 671.39 327.928C672.213 331.026 669.574 335.01 668.231 334.593C666.888 334.175 666.878 331.039 667.605 328.541Z" fill="#EEA886"/>
<path d="M685.771 316.91C685.771 316.91 700.26 318.061 685.582 338.483L685.771 316.91Z" fill="#292C47"/>
<path d="M647.872 357.036C656.969 355.438 666.545 353.144 666.545 353.144L683.489 352.453C683.489 352.453 699.039 355.874 705.163 358.639C705.745 358.901 705.747 372.504 707.341 376.072L702.264 386.778C702.264 386.778 699.33 407.985 698.723 417.417C698.443 421.747 704.771 458.018 704.771 458.018C704.771 458.018 697.991 460.013 686.427 461.287C674.864 462.561 645.971 460.827 645.789 459.462C645.607 458.097 651.385 408.632 651.641 406.07C652.033 402.139 650.504 383.972 650.504 383.972C648.325 386.897 635.729 397.87 629.579 401.356C625.205 403.836 614.474 402.321 611.314 401.998C604.474 401.301 585.575 399.949 585.207 399.277C584.912 398.873 586.292 391.988 587.084 391.724C587.776 391.493 612.171 390.288 618.291 390.606C620.775 390.735 628.873 381.694 628.873 381.694C628.873 381.694 642.856 359.29 647.875 357.036" fill="#149BA1"/>
<path d="M320.263 602.084C320.263 612.409 352.24 620.779 391.686 620.779C431.132 620.779 463.109 612.409 463.109 602.084C463.109 591.759 431.132 583.389 391.686 583.389C352.24 583.389 320.263 591.759 320.263 602.084Z" fill="#0ED17C"/>
<path d="M324.58 597.479C324.58 607.18 354.624 615.044 391.685 615.044C428.747 615.044 458.792 607.18 458.792 597.479C458.792 587.779 428.748 579.914 391.685 579.914C354.623 579.914 324.58 587.779 324.58 597.479Z" fill="#149BA1"/>
<path d="M320.573 384.865C320.573 384.865 318.238 382.702 318.702 381.081C319.096 379.702 318.503 378.158 318.354 377.522C318.155 376.67 318.075 373.918 317.444 374.07C316.371 374.328 316.62 378.724 316.488 379.66C316.357 380.596 313.519 377.461 312.549 377.297C311.578 377.132 306.649 382.123 308.846 384.049C311.042 385.975 314.071 386.758 314.39 387.173C314.96 387.734 315.569 388.254 316.211 388.73L320.573 384.865Z" fill="#EEA987"/>
<path d="M313.164 377.624C313.164 377.624 306.048 372.174 305.27 372.207C304.492 372.24 304.219 372.643 304.865 373.181C305.512 373.718 311.588 378.646 311.588 378.646C311.588 378.646 302.079 373.609 301.437 373.497C301.06 373.431 300.776 374.15 301.094 374.47C301.412 374.789 310.259 380.35 310.259 380.35C310.259 380.35 301.374 375.663 300.808 375.73C300.671 375.758 300.547 375.827 300.45 375.927C300.353 376.027 300.289 376.154 300.266 376.292C300.243 376.429 300.262 376.57 300.32 376.696C300.378 376.823 300.473 376.929 300.593 377C301.228 377.393 309.229 382.207 309.229 382.207C309.229 382.207 302.547 379.202 302.101 379.541C301.829 379.748 301.444 380.205 303.193 380.926C305.093 381.84 306.946 382.849 308.745 383.951L313.164 377.624Z" fill="#EEA987"/>
<path d="M370.003 319.112C370.003 319.112 352.981 317.697 353.446 335.592C353.911 353.488 356.75 356.182 353.436 368.829C350.123 381.476 370.032 361.647 370.032 361.647L370.003 319.112Z" fill="#292C47"/>
<path d="M421.856 586.968C421.856 586.968 428.178 595.843 427.31 597.25C426.442 598.656 419.796 598.857 415.75 597.25C411.704 595.642 411.608 585.241 409.778 580.772C409.011 578.901 410.651 573.379 412.957 572.978C415.262 572.578 417.77 573.754 417.77 573.754C417.77 573.754 415.378 580.048 421.856 586.968" fill="#363A5E"/>
<path d="M417.812 573.682C418.633 576.087 419.24 578.559 419.627 581.07C420.032 584.063 424.129 590.417 423.938 591.221C423.747 592.025 418.543 592.752 416.424 590.681C414.304 588.609 412.941 582.582 412.474 578.978C412.29 577.281 411.961 575.603 411.491 573.962C411.491 573.962 415.79 571.471 417.814 573.682" fill="#EEA886"/>
<path d="M366.84 587.116C366.84 587.116 372.933 595.843 372.066 597.25C371.199 598.656 364.552 598.857 360.506 597.25C356.46 595.642 356.364 585.241 354.534 580.772C353.767 578.902 355.407 573.379 357.712 572.979C360.018 572.578 362.72 573.838 362.72 573.838C362.72 573.838 360.36 580.195 366.838 587.114" fill="#363A5E"/>
<path d="M362.721 573.84C363.003 576.206 363.421 578.554 363.974 580.872C364.745 583.786 368.887 590.417 368.694 591.221C368.502 592.025 363.3 592.753 361.18 590.681C359.061 588.61 357.423 582.609 357.231 578.978C357.089 576.965 357.251 574.943 357.712 572.978C357.712 572.978 360.696 571.629 362.719 573.837" fill="#EEA886"/>
<path d="M393.168 429.356C393.168 429.356 398.592 455.672 399.838 462.298C401.083 468.924 404.571 501.013 404.946 506.47C405.321 511.927 410.606 532.486 410.358 534.435C410.11 536.384 418.943 575.011 418.943 575.011C418.943 575.011 412.684 575.686 410.189 574.642C408.483 573.929 394.781 539.091 394.781 529.347C394.781 515.878 387.255 498.294 386.164 495.228C375.426 465.052 373.457 457.892 371.962 456.073C371.962 456.073 371.736 458.534 371.226 462.623C370.639 467.324 368.077 500.909 366.955 505.326C365.834 509.743 366.702 524.684 366.082 532.22C365.462 539.757 364.304 574.129 364.304 574.129C364.304 574.129 358.682 574.372 356.204 572.897C355.373 572.402 352.506 535.963 352.381 526.999C352.256 518.034 352.123 505.672 351.883 501.795C349.575 464.648 343.903 459.342 352.836 433.051C369.563 383.827 393.171 429.358 393.171 429.358" fill="#313657"/>
<path d="M409.607 579.991V589.282H410.763V582.101L409.607 579.991Z" fill="#363A5E"/>
<path d="M354.364 579.991V589.282H355.52V582.101L354.364 579.991Z" fill="#363A5E"/>
<path d="M377.087 366.734C376.079 364.297 375.207 361.807 374.478 359.273C374.427 359.086 374.376 358.897 374.326 358.707C374.193 358.193 374.073 357.674 373.961 357.157C373.899 356.864 373.842 356.572 373.788 356.281C373.393 354.107 373.282 352.026 373.788 350.545C375.438 345.671 363.438 349.046 363.438 349.046C363.438 349.046 365.765 361.937 363.438 366.284C361.111 370.632 377.086 366.735 377.086 366.735" fill="#EEA886"/>
<path d="M354.654 437.6C354.654 437.6 379.683 443.76 392.357 436.864C392.357 436.864 388.037 418.747 390.06 411.627C392.084 404.507 402.659 379.699 402.659 379.699C402.659 379.699 394.996 368.624 389.146 366.6C383.296 364.576 375.759 363.321 375.759 363.321L364.795 364.266C364.795 364.266 355.397 364.849 356.734 366.522C364.632 376.402 354.654 437.599 354.654 437.599" fill="#EDDAD3"/>
<path d="M352.264 396.423C352.264 396.423 352.757 397.463 354.109 401.558C355.486 390.057 354.766 384.071 354.766 384.071C354.615 390.217 352.264 396.423 352.264 396.423Z" fill="#CFBEB8"/>
<path d="M364.185 363.882L377.087 374.397L375.759 363.323C375.759 363.323 368.235 361.7 364.185 363.885" fill="#EEA886"/>
<path d="M355.672 408.179C357.447 415.535 348.469 438.557 348.469 438.557L363.621 443.684C364.061 443.834 364.529 443.886 364.992 443.838C365.455 443.79 365.902 443.643 366.302 443.406C366.703 443.17 367.047 442.85 367.313 442.468C367.578 442.086 367.758 441.651 367.84 441.193C369.547 431.616 373.977 405.938 374.478 394.552C375.101 380.408 364.798 363.722 364.798 363.722C346.485 366.863 351.505 394.552 351.505 394.552C351.505 394.552 352.17 396.297 353.058 399.023C353.282 399.707 353.519 400.455 353.766 401.252C354.394 403.298 355.068 405.675 355.673 408.177" fill="#149BA1"/>
<path d="M377.056 363.925L376.831 363.319C376.831 363.319 386.209 364.744 390.975 367.124C395.741 369.503 404.866 381.795 404.866 381.795L392.93 397.544C392.916 409.645 397.141 438.04 397.141 438.04L388.846 441.431C388.547 441.553 388.224 441.6 387.903 441.569C387.582 441.538 387.274 441.428 387.004 441.251C386.735 441.073 386.514 440.833 386.359 440.55C386.203 440.268 386.12 439.952 386.115 439.629C385.981 430.985 385.579 405.388 385.375 395.4C385.127 383.296 376.486 363.721 376.486 363.721C376.678 363.786 376.866 363.855 377.054 363.923" fill="#149BA1"/>
<path d="M394.06 420.671C394.06 420.671 385.061 421.02 383.661 420.671C382.261 420.321 372.924 416.272 372.363 412.279C371.803 408.285 394.062 415.861 394.062 415.861L394.06 420.671Z" fill="#EEA886"/>
<path d="M366.14 408.179L402.658 403.908L386.16 417.326L366.14 408.179Z" fill="#707070"/>
<path d="M386.161 417.323L366.139 410.503V408.177L386.836 414.813L386.161 417.323Z" fill="#A1A1A1"/>
<path d="M375.084 361.277L382.021 372.28L385.377 374.394L377.557 363.439L375.084 361.277Z" fill="#FAE6DE"/>
<path d="M382.021 372.28L377.088 374.394L375.759 363.32L375.084 361.277L382.021 372.28Z" fill="#D6C5BE"/>
<path d="M392.96 415.525C392.96 415.525 393.335 420.172 392.96 421.146C392.96 421.146 415.481 418.897 417.581 415.749C418.876 413.653 419.576 411.243 419.605 408.779L392.96 415.525Z" fill="#149BA1"/>
<path d="M386.162 417.323L396.81 377.75L437.304 373.478L426.206 409.903L386.162 417.323Z" fill="#A1A1A1"/>
<path d="M333.677 394.701C331.646 393.027 330.452 392.413 328.005 390.306C324.196 387.028 319.327 382.879 319.327 382.879L314.7 389.671C314.7 389.671 325.893 399.504 331.84 405.342C331.84 405.342 339.369 413.422 341.051 412.707C342.734 411.991 348.735 403.296 353.528 394.937C358.321 386.578 360.466 381.241 360.707 377.601C360.947 373.96 348.889 372.207 348.889 372.207L339.449 392.814C339.449 392.814 337.768 395.762 336.915 396.651C336.915 396.651 334.79 395.446 333.678 394.701" fill="#149BA1"/>
<path d="M368.338 320.925C372.557 320.235 382.211 321.292 384.947 332.364C384.941 334.218 384.789 336.068 384.492 337.897C384.028 340.362 386.966 347.136 386.448 347.546C385.931 347.955 383.68 348.661 383.68 348.661C383.68 348.661 382.082 356.611 379.381 356.854C376.679 357.097 366.244 356.157 360.351 347.168C354.458 338.178 351.3 323.711 368.337 320.925" fill="#EEA886"/>
<path d="M384.948 332.364C384.948 332.364 378.597 337.844 371.87 339.574C365.143 341.303 361.583 348.855 361.583 348.855C361.583 348.855 349.682 336.99 356.864 325.475C364.046 313.961 384.935 319.096 384.948 332.365" fill="#292C47"/>
<path d="M370.634 339.968C370.634 339.968 363.593 358.438 364.417 362.888C364.417 362.888 360.937 362.281 354.453 364.266C354.453 364.266 357.589 331.275 370.635 339.968" fill="#292C47"/>
<path d="M373.359 372.61L377.088 374.395L364.416 361.839L373.359 372.61Z" fill="#D6C5BE"/>
<path d="M364.415 361.839L373.359 372.611L368.465 376.973L363.184 364.078L364.415 361.839Z" fill="#FAE6DE"/>
<path d="M366.87 353.47C366.927 353.563 368.867 356.577 374.328 358.707C374.196 358.193 374.075 357.674 373.963 357.158C373.902 356.864 373.844 356.572 373.791 356.281C373.791 356.281 369.271 355.176 366.87 353.47Z" fill="#A77860"/>
<path d="M410.453 394.296C409.327 396.414 409.345 398.626 410.494 399.236C411.643 399.846 413.488 398.624 414.614 396.506C415.741 394.389 415.722 392.176 414.573 391.566C413.424 390.956 411.58 392.177 410.453 394.296Z" fill="#828282"/>
<path d="M363.184 364.077C363.184 364.077 351.391 362.477 347.953 374.82C347.953 374.82 362.95 373.206 363.184 364.077Z" fill="#149BA1"/>
</g>
<defs>
<linearGradient id="paint0_linear_424_347" x1="-0.0155809" y1="646.998" x2="0.320913" y2="646.998" gradientUnits="userSpaceOnUse">
<stop stop-color="#D5E4FF"/>
<stop offset="1" stop-color="#EDFFFE"/>
</linearGradient>
<linearGradient id="paint1_linear_424_347" x1="0.0355622" y1="646.994" x2="0.287933" y2="646.994" gradientUnits="userSpaceOnUse">
<stop stop-color="#D5E4FF"/>
<stop offset="1" stop-color="#EDFFFE"/>
</linearGradient>
<linearGradient id="paint2_linear_424_347" x1="-0.0523698" y1="647.016" x2="0.332903" y2="647.016" gradientUnits="userSpaceOnUse">
<stop stop-color="#303669"/>
<stop offset="1" stop-color="#4DAEFF"/>
</linearGradient>
<linearGradient id="paint3_linear_424_347" x1="-0.0203537" y1="646.982" x2="0.362384" y2="646.982" gradientUnits="userSpaceOnUse">
<stop stop-color="#303669"/>
<stop offset="1" stop-color="#4DAEFF"/>
</linearGradient>
<clipPath id="clip0_424_347">
<rect width="1069" height="647" fill="white"/>
</clipPath>
</defs>
</svg>
