<svg width="732" height="560" viewBox="0 0 732 560" fill="none" xmlns="http://www.w3.org/2000/svg">
<g clip-path="url(#clip0_354_1892)" filter="url(#filter0_f_354_1892)">
<path d="M193.576 329.527V425.832L221.717 406.226V342.906L193.576 329.527ZM180.487 404.797L157.829 413.453V337.898L180.487 343.764V404.797ZM127.398 402.578L144.74 398.57V350.345L127.481 347.913L127.398 402.578Z" fill="#2FB8EB"/>
</g>
<g filter="url(#filter1_b_354_1892)">
<rect x="67.8291" y="332.506" width="314.727" height="227.358" rx="11.4241" fill="url(#paint0_linear_354_1892)"/>
<rect x="68.2099" y="332.886" width="313.965" height="226.596" rx="11.0433" stroke="url(#paint1_linear_354_1892)" stroke-width="0.761606"/>
</g>
<path d="M169.691 505.394H165.93V493.208H169.857C171.039 493.208 172.051 493.452 172.892 493.94C173.733 494.424 174.377 495.12 174.826 496.029C175.274 496.933 175.498 498.016 175.498 499.277C175.498 500.547 175.272 501.64 174.82 502.556C174.367 503.468 173.709 504.17 172.844 504.662C171.979 505.15 170.928 505.394 169.691 505.394ZM167.406 504.085H169.596C170.603 504.085 171.438 503.891 172.1 503.502C172.763 503.113 173.257 502.56 173.582 501.842C173.907 501.124 174.07 500.269 174.07 499.277C174.07 498.294 173.909 497.447 173.588 496.737C173.267 496.023 172.787 495.475 172.148 495.095C171.509 494.71 170.714 494.517 169.762 494.517H167.406V504.085ZM180.472 505.608C179.893 505.608 179.367 505.499 178.895 505.281C178.423 505.059 178.049 504.74 177.771 504.323C177.493 503.903 177.354 503.395 177.354 502.8C177.354 502.276 177.457 501.852 177.664 501.527C177.87 501.197 178.146 500.939 178.491 500.753C178.836 500.567 179.217 500.428 179.633 500.337C180.054 500.241 180.476 500.166 180.901 500.11C181.456 500.039 181.906 499.985 182.251 499.95C182.6 499.91 182.854 499.845 183.013 499.753C183.175 499.662 183.257 499.503 183.257 499.277V499.23C183.257 498.643 183.096 498.187 182.775 497.861C182.458 497.536 181.976 497.373 181.329 497.373C180.659 497.373 180.133 497.52 179.752 497.814C179.371 498.107 179.104 498.421 178.949 498.754L177.616 498.278C177.854 497.722 178.172 497.29 178.568 496.981C178.969 496.667 179.405 496.449 179.877 496.326C180.353 496.199 180.821 496.136 181.281 496.136C181.575 496.136 181.912 496.171 182.293 496.243C182.678 496.31 183.049 496.451 183.406 496.665C183.767 496.88 184.066 497.203 184.304 497.635C184.542 498.068 184.661 498.647 184.661 499.373V505.394H183.257V504.156H183.185C183.09 504.355 182.932 504.567 182.709 504.793C182.487 505.019 182.192 505.212 181.823 505.37C181.454 505.529 181.004 505.608 180.472 505.608ZM180.686 504.347C181.242 504.347 181.71 504.238 182.091 504.02C182.475 503.801 182.765 503.52 182.959 503.175C183.158 502.83 183.257 502.467 183.257 502.086V500.801C183.197 500.872 183.066 500.937 182.864 500.997C182.666 501.052 182.436 501.102 182.174 501.146C181.916 501.185 181.664 501.221 181.418 501.253C181.176 501.281 180.98 501.304 180.829 501.324C180.464 501.372 180.123 501.449 179.806 501.556C179.492 501.659 179.239 501.816 179.044 502.026C178.854 502.233 178.759 502.514 178.759 502.871C178.759 503.359 178.939 503.728 179.3 503.978C179.665 504.224 180.127 504.347 180.686 504.347ZM191.199 496.255V497.445H186.462V496.255H191.199ZM187.843 494.065H189.247V502.776C189.247 503.173 189.305 503.47 189.42 503.669C189.539 503.863 189.689 503.994 189.872 504.061C190.058 504.125 190.255 504.156 190.461 504.156C190.616 504.156 190.742 504.148 190.842 504.133C190.941 504.113 191.02 504.097 191.08 504.085L191.365 505.346C191.27 505.382 191.137 505.418 190.967 505.454C190.796 505.493 190.58 505.513 190.318 505.513C189.921 505.513 189.533 505.428 189.152 505.257C188.775 505.087 188.462 504.827 188.212 504.478C187.966 504.129 187.843 503.688 187.843 503.157V494.065ZM196 505.608C195.421 505.608 194.896 505.499 194.424 505.281C193.952 505.059 193.577 504.74 193.299 504.323C193.021 503.903 192.883 503.395 192.883 502.8C192.883 502.276 192.986 501.852 193.192 501.527C193.398 501.197 193.674 500.939 194.019 500.753C194.364 500.567 194.745 500.428 195.161 500.337C195.582 500.241 196.004 500.166 196.429 500.11C196.984 500.039 197.434 499.985 197.779 499.95C198.128 499.91 198.382 499.845 198.541 499.753C198.704 499.662 198.785 499.503 198.785 499.277V499.23C198.785 498.643 198.624 498.187 198.303 497.861C197.986 497.536 197.504 497.373 196.857 497.373C196.187 497.373 195.661 497.52 195.28 497.814C194.9 498.107 194.632 498.421 194.477 498.754L193.144 498.278C193.382 497.722 193.7 497.29 194.096 496.981C194.497 496.667 194.933 496.449 195.405 496.326C195.881 496.199 196.349 496.136 196.81 496.136C197.103 496.136 197.44 496.171 197.821 496.243C198.206 496.31 198.577 496.451 198.934 496.665C199.295 496.88 199.594 497.203 199.832 497.635C200.07 498.068 200.189 498.647 200.189 499.373V505.394H198.785V504.156H198.714C198.618 504.355 198.46 504.567 198.238 504.793C198.015 505.019 197.72 505.212 197.351 505.37C196.982 505.529 196.532 505.608 196 505.608ZM196.215 504.347C196.77 504.347 197.238 504.238 197.619 504.02C198.004 503.801 198.293 503.52 198.487 503.175C198.686 502.83 198.785 502.467 198.785 502.086V500.801C198.725 500.872 198.595 500.937 198.392 500.997C198.194 501.052 197.964 501.102 197.702 501.146C197.444 501.185 197.192 501.221 196.946 501.253C196.704 501.281 196.508 501.304 196.357 501.324C195.992 501.372 195.651 501.449 195.334 501.556C195.021 501.659 194.767 501.816 194.572 502.026C194.382 502.233 194.287 502.514 194.287 502.871C194.287 503.359 194.467 503.728 194.828 503.978C195.193 504.224 195.655 504.347 196.215 504.347ZM207.655 505.394V493.208H211.772C212.728 493.208 213.51 493.381 214.117 493.726C214.728 494.067 215.18 494.529 215.473 495.112C215.767 495.695 215.914 496.346 215.914 497.064C215.914 497.782 215.767 498.434 215.473 499.022C215.184 499.609 214.736 500.077 214.129 500.426C213.522 500.771 212.744 500.943 211.796 500.943H208.845V499.634H211.749C212.403 499.634 212.929 499.521 213.325 499.295C213.722 499.069 214.01 498.764 214.188 498.379C214.371 497.99 214.462 497.552 214.462 497.064C214.462 496.576 214.371 496.14 214.188 495.755C214.01 495.37 213.72 495.069 213.319 494.851C212.919 494.628 212.387 494.517 211.725 494.517H209.131V505.394H207.655ZM218.1 505.394V496.255H219.457V497.635H219.552C219.719 497.183 220.02 496.816 220.457 496.534C220.893 496.253 221.385 496.112 221.932 496.112C222.035 496.112 222.164 496.114 222.319 496.118C222.474 496.122 222.591 496.128 222.67 496.136V497.564C222.622 497.552 222.513 497.534 222.343 497.51C222.176 497.482 222 497.469 221.813 497.469C221.369 497.469 220.972 497.562 220.623 497.748C220.278 497.931 220.004 498.185 219.802 498.51C219.604 498.831 219.505 499.198 219.505 499.611V505.394H218.1ZM227.769 505.584C226.944 505.584 226.22 505.388 225.597 504.995C224.979 504.603 224.495 504.053 224.146 503.347C223.8 502.641 223.628 501.816 223.628 500.872C223.628 499.92 223.8 499.089 224.146 498.379C224.495 497.669 224.979 497.118 225.597 496.725C226.22 496.332 226.944 496.136 227.769 496.136C228.594 496.136 229.316 496.332 229.935 496.725C230.558 497.118 231.042 497.669 231.387 498.379C231.736 499.089 231.91 499.92 231.91 500.872C231.91 501.816 231.736 502.641 231.387 503.347C231.042 504.053 230.558 504.603 229.935 504.995C229.316 505.388 228.594 505.584 227.769 505.584ZM227.769 504.323C228.396 504.323 228.912 504.162 229.316 503.841C229.721 503.52 230.02 503.097 230.215 502.574C230.409 502.05 230.506 501.483 230.506 500.872C230.506 500.261 230.409 499.692 230.215 499.164C230.02 498.637 229.721 498.21 229.316 497.885C228.912 497.56 228.396 497.397 227.769 497.397C227.142 497.397 226.627 497.56 226.222 497.885C225.817 498.21 225.518 498.637 225.324 499.164C225.129 499.692 225.032 500.261 225.032 500.872C225.032 501.483 225.129 502.05 225.324 502.574C225.518 503.097 225.817 503.52 226.222 503.841C226.627 504.162 227.142 504.323 227.769 504.323ZM238.028 496.255V497.445H233.292V496.255H238.028ZM234.673 494.065H236.077V502.776C236.077 503.173 236.134 503.47 236.249 503.669C236.368 503.863 236.519 503.994 236.702 504.061C236.888 504.125 237.084 504.156 237.291 504.156C237.445 504.156 237.572 504.148 237.671 504.133C237.771 504.113 237.85 504.097 237.909 504.085L238.195 505.346C238.1 505.382 237.967 505.418 237.796 505.454C237.626 505.493 237.41 505.513 237.148 505.513C236.751 505.513 236.362 505.428 235.982 505.257C235.605 505.087 235.291 504.827 235.042 504.478C234.796 504.129 234.673 503.688 234.673 503.157V494.065ZM243.874 505.584C242.994 505.584 242.234 505.39 241.596 505.001C240.961 504.609 240.471 504.061 240.126 503.359C239.785 502.653 239.614 501.832 239.614 500.896C239.614 499.96 239.785 499.135 240.126 498.421C240.471 497.703 240.951 497.143 241.566 496.743C242.185 496.338 242.907 496.136 243.732 496.136C244.208 496.136 244.678 496.215 245.142 496.374C245.606 496.532 246.028 496.79 246.409 497.147C246.79 497.5 247.093 497.968 247.319 498.551C247.546 499.135 247.659 499.853 247.659 500.705V501.3H240.614V500.087H246.231C246.231 499.571 246.127 499.111 245.921 498.706C245.719 498.302 245.429 497.982 245.053 497.748C244.68 497.514 244.239 497.397 243.732 497.397C243.172 497.397 242.688 497.536 242.28 497.814C241.875 498.087 241.564 498.444 241.346 498.885C241.127 499.325 241.018 499.797 241.018 500.301V501.11C241.018 501.8 241.137 502.385 241.375 502.865C241.617 503.341 241.953 503.704 242.381 503.954C242.809 504.2 243.307 504.323 243.874 504.323C244.243 504.323 244.577 504.271 244.874 504.168C245.175 504.061 245.435 503.903 245.653 503.692C245.872 503.478 246.04 503.212 246.159 502.895L247.516 503.276C247.373 503.736 247.133 504.141 246.796 504.49C246.459 504.835 246.042 505.104 245.546 505.299C245.051 505.489 244.493 505.584 243.874 505.584ZM253.508 505.584C252.651 505.584 251.913 505.382 251.294 504.978C250.675 504.573 250.199 504.016 249.866 503.306C249.533 502.596 249.366 501.784 249.366 500.872C249.366 499.944 249.537 499.125 249.878 498.415C250.223 497.701 250.703 497.143 251.318 496.743C251.937 496.338 252.659 496.136 253.484 496.136C254.126 496.136 254.705 496.255 255.221 496.493C255.737 496.731 256.159 497.064 256.489 497.492C256.818 497.921 257.022 498.421 257.101 498.992H255.697C255.59 498.575 255.352 498.206 254.983 497.885C254.618 497.56 254.126 497.397 253.508 497.397C252.96 497.397 252.48 497.54 252.068 497.826C251.659 498.107 251.34 498.506 251.11 499.022C250.884 499.533 250.771 500.134 250.771 500.824C250.771 501.53 250.882 502.145 251.104 502.669C251.33 503.193 251.647 503.599 252.056 503.889C252.468 504.178 252.952 504.323 253.508 504.323C253.872 504.323 254.204 504.26 254.501 504.133C254.799 504.006 255.051 503.823 255.257 503.585C255.463 503.347 255.61 503.062 255.697 502.728H257.101C257.022 503.268 256.826 503.754 256.512 504.186C256.203 504.615 255.792 504.956 255.281 505.21C254.773 505.459 254.182 505.584 253.508 505.584ZM263.129 496.255V497.445H258.393V496.255H263.129ZM259.773 494.065H261.177V502.776C261.177 503.173 261.235 503.47 261.35 503.669C261.469 503.863 261.619 503.994 261.802 504.061C261.988 504.125 262.185 504.156 262.391 504.156C262.546 504.156 262.673 504.148 262.772 504.133C262.871 504.113 262.95 504.097 263.01 504.085L263.295 505.346C263.2 505.382 263.067 505.418 262.897 505.454C262.726 505.493 262.51 505.513 262.248 505.513C261.851 505.513 261.463 505.428 261.082 505.257C260.705 505.087 260.392 504.827 260.142 504.478C259.896 504.129 259.773 503.688 259.773 503.157V494.065ZM265.241 505.394V496.255H266.645V505.394H265.241ZM265.955 494.732C265.681 494.732 265.445 494.638 265.247 494.452C265.053 494.265 264.955 494.041 264.955 493.78C264.955 493.518 265.053 493.294 265.247 493.107C265.445 492.921 265.681 492.828 265.955 492.828C266.229 492.828 266.463 492.921 266.657 493.107C266.855 493.294 266.955 493.518 266.955 493.78C266.955 494.041 266.855 494.265 266.657 494.452C266.463 494.638 266.229 494.732 265.955 494.732ZM272.93 505.584C272.105 505.584 271.381 505.388 270.758 504.995C270.139 504.603 269.655 504.053 269.306 503.347C268.961 502.641 268.789 501.816 268.789 500.872C268.789 499.92 268.961 499.089 269.306 498.379C269.655 497.669 270.139 497.118 270.758 496.725C271.381 496.332 272.105 496.136 272.93 496.136C273.755 496.136 274.477 496.332 275.096 496.725C275.719 497.118 276.202 497.669 276.548 498.379C276.897 499.089 277.071 499.92 277.071 500.872C277.071 501.816 276.897 502.641 276.548 503.347C276.202 504.053 275.719 504.603 275.096 504.995C274.477 505.388 273.755 505.584 272.93 505.584ZM272.93 504.323C273.557 504.323 274.072 504.162 274.477 503.841C274.882 503.52 275.181 503.097 275.375 502.574C275.57 502.05 275.667 501.483 275.667 500.872C275.667 500.261 275.57 499.692 275.375 499.164C275.181 498.637 274.882 498.21 274.477 497.885C274.072 497.56 273.557 497.397 272.93 497.397C272.303 497.397 271.788 497.56 271.383 497.885C270.978 498.21 270.679 498.637 270.485 499.164C270.29 499.692 270.193 500.261 270.193 500.872C270.193 501.483 270.29 502.05 270.485 502.574C270.679 503.097 270.978 503.52 271.383 503.841C271.788 504.162 272.303 504.323 272.93 504.323ZM280.619 499.896V505.394H279.215V496.255H280.571V497.683H280.69C280.905 497.219 281.23 496.846 281.666 496.564C282.102 496.279 282.666 496.136 283.356 496.136C283.975 496.136 284.516 496.263 284.98 496.517C285.444 496.766 285.805 497.147 286.063 497.659C286.321 498.167 286.45 498.809 286.45 499.587V505.394H285.046V499.682C285.046 498.964 284.859 498.405 284.486 498.004C284.114 497.599 283.602 497.397 282.951 497.397C282.503 497.397 282.102 497.494 281.749 497.689C281.4 497.883 281.125 498.167 280.922 498.54C280.72 498.912 280.619 499.365 280.619 499.896Z" fill="#BDF3FF"/>
<g clip-path="url(#clip1_354_1892)">
<path d="M250.867 455.616H199.516C197.153 455.616 195.136 454.785 193.465 453.123C191.793 451.461 190.958 449.456 190.958 447.106V413.067C190.958 411.914 191.37 410.917 192.194 410.075C193.019 409.233 194.033 408.812 195.237 408.812H227.331C227.331 408.501 227.587 407.881 228.1 406.95C228.612 406.019 229.114 405.155 229.604 404.357L230.407 403.227C230.719 402.385 231.343 401.687 232.279 401.133C233.215 400.579 234.196 400.302 235.221 400.302H251.268C252.338 400.302 253.341 400.579 254.277 401.133C255.213 401.687 255.837 402.385 256.149 403.227C258.333 406.064 259.425 407.925 259.425 408.812V447.106C259.425 449.456 258.589 451.461 256.918 453.123C255.246 454.785 253.229 455.616 250.867 455.616ZM233.75 425.832C233.75 423.482 232.914 421.477 231.242 419.815C229.571 418.153 227.554 417.322 225.191 417.322C222.829 417.322 220.812 418.153 219.14 419.815C217.469 421.477 216.633 423.482 216.633 425.832C216.633 427.56 217.134 429.145 218.137 430.585C219.14 432.026 220.444 433.056 222.049 433.677L216.633 447.106H233.75L228.334 433.677C229.939 433.056 231.242 432.026 232.245 430.585C233.248 429.145 233.75 427.56 233.75 425.832ZM194.033 398.972C194.345 398.13 194.969 397.432 195.905 396.878C196.841 396.324 197.822 396.047 198.847 396.047H214.894C215.964 396.047 216.967 396.324 217.903 396.878C218.839 397.432 219.486 398.13 219.842 398.972L223.052 404.557H190.958L194.033 398.972Z" fill="url(#paint2_linear_354_1892)"/>
</g>
<g clip-path="url(#clip2_354_1892)" filter="url(#filter2_f_354_1892)">
<path d="M615.187 399.026V495.33L639.773 475.724V412.404L615.187 399.026ZM603.752 474.296L583.955 482.951V407.396L603.752 413.263V474.296ZM557.369 472.077L572.52 468.068V419.843L557.441 417.412L557.369 472.077Z" fill="#00E3A5"/>
</g>
<g filter="url(#filter3_b_354_1892)">
<rect x="415.89" y="329.527" width="315.72" height="227.358" rx="11.4241" fill="url(#paint3_linear_354_1892)"/>
<rect x="416.271" y="329.908" width="314.958" height="226.596" rx="11.0433" stroke="url(#paint4_linear_354_1892)" stroke-width="0.761606"/>
</g>
<path d="M523.173 502.416V490.23H530.48V491.539H524.649V495.657H529.932V496.966H524.649V502.416H523.173ZM535.506 502.63C534.927 502.63 534.401 502.521 533.929 502.303C533.457 502.081 533.083 501.762 532.805 501.345C532.527 500.925 532.388 500.417 532.388 499.822C532.388 499.298 532.492 498.874 532.698 498.548C532.904 498.219 533.18 497.961 533.525 497.775C533.87 497.589 534.251 497.45 534.667 497.358C535.088 497.263 535.51 497.188 535.935 497.132C536.49 497.061 536.94 497.007 537.285 496.972C537.634 496.932 537.888 496.867 538.047 496.775C538.21 496.684 538.291 496.525 538.291 496.299V496.252C538.291 495.665 538.13 495.209 537.809 494.883C537.492 494.558 537.01 494.395 536.363 494.395C535.693 494.395 535.167 494.542 534.786 494.836C534.405 495.129 534.138 495.443 533.983 495.776L532.65 495.3C532.888 494.744 533.206 494.312 533.602 494.003C534.003 493.689 534.439 493.471 534.911 493.348C535.387 493.221 535.855 493.158 536.315 493.158C536.609 493.158 536.946 493.193 537.327 493.265C537.712 493.332 538.083 493.473 538.44 493.687C538.801 493.901 539.1 494.225 539.338 494.657C539.576 495.09 539.695 495.669 539.695 496.395V502.416H538.291V501.178H538.219C538.124 501.377 537.966 501.589 537.743 501.815C537.521 502.041 537.226 502.234 536.857 502.392C536.488 502.551 536.038 502.63 535.506 502.63ZM535.72 501.369C536.276 501.369 536.744 501.26 537.125 501.042C537.509 500.823 537.799 500.542 537.993 500.197C538.192 499.852 538.291 499.489 538.291 499.108V497.823C538.231 497.894 538.1 497.959 537.898 498.019C537.7 498.074 537.47 498.124 537.208 498.168C536.95 498.207 536.698 498.243 536.452 498.275C536.21 498.303 536.014 498.326 535.863 498.346C535.498 498.394 535.157 498.471 534.84 498.578C534.526 498.681 534.273 498.838 534.078 499.048C533.888 499.255 533.793 499.536 533.793 499.893C533.793 500.381 533.973 500.75 534.334 501C534.699 501.246 535.161 501.369 535.72 501.369ZM548.732 495.324L547.47 495.681C547.391 495.47 547.274 495.266 547.119 495.068C546.968 494.865 546.762 494.699 546.5 494.568C546.239 494.437 545.903 494.372 545.495 494.372C544.936 494.372 544.469 494.5 544.097 494.758C543.728 495.012 543.543 495.335 543.543 495.728C543.543 496.077 543.67 496.353 543.924 496.555C544.178 496.758 544.575 496.926 545.114 497.061L546.471 497.394C547.288 497.593 547.897 497.896 548.297 498.305C548.698 498.709 548.898 499.231 548.898 499.869C548.898 500.393 548.748 500.861 548.446 501.274C548.149 501.686 547.732 502.011 547.197 502.249C546.661 502.487 546.038 502.606 545.328 502.606C544.396 502.606 543.625 502.404 543.014 502C542.403 501.595 542.016 501.004 541.853 500.226L543.186 499.893C543.313 500.385 543.553 500.754 543.906 501C544.263 501.246 544.729 501.369 545.304 501.369C545.959 501.369 546.479 501.23 546.863 500.952C547.252 500.671 547.446 500.333 547.446 499.941C547.446 499.623 547.335 499.358 547.113 499.143C546.891 498.925 546.55 498.763 546.09 498.656L544.567 498.299C543.73 498.1 543.115 497.793 542.722 497.376C542.333 496.956 542.139 496.43 542.139 495.8C542.139 495.284 542.284 494.828 542.573 494.431C542.867 494.034 543.266 493.723 543.769 493.497C544.277 493.271 544.852 493.158 545.495 493.158C546.399 493.158 547.109 493.356 547.625 493.753C548.145 494.149 548.514 494.673 548.732 495.324ZM554.987 493.277V494.467H550.25V493.277H554.987ZM551.631 491.087H553.035V499.798C553.035 500.195 553.093 500.492 553.208 500.691C553.327 500.885 553.477 501.016 553.66 501.083C553.846 501.147 554.043 501.178 554.249 501.178C554.404 501.178 554.53 501.17 554.63 501.155C554.729 501.135 554.808 501.119 554.868 501.107L555.153 502.368C555.058 502.404 554.925 502.44 554.755 502.476C554.584 502.515 554.368 502.535 554.106 502.535C553.709 502.535 553.321 502.45 552.94 502.279C552.563 502.109 552.25 501.849 552 501.5C551.754 501.151 551.631 500.71 551.631 500.179V491.087ZM565.262 502.583C564.461 502.583 563.771 502.436 563.192 502.142C562.613 501.849 562.166 501.446 561.853 500.934C561.54 500.423 561.383 499.838 561.383 499.179C561.383 498.671 561.49 498.221 561.704 497.829C561.922 497.432 562.222 497.065 562.603 496.728C562.987 496.387 563.43 496.045 563.93 495.704L565.691 494.395C566.036 494.169 566.312 493.927 566.518 493.669C566.728 493.412 566.833 493.074 566.833 492.658C566.833 492.349 566.696 492.049 566.423 491.759C566.153 491.47 565.798 491.325 565.358 491.325C565.048 491.325 564.774 491.404 564.536 491.563C564.302 491.718 564.118 491.916 563.983 492.158C563.852 492.396 563.787 492.642 563.787 492.896C563.787 493.182 563.864 493.471 564.019 493.765C564.177 494.054 564.378 494.352 564.62 494.657C564.866 494.959 565.12 495.268 565.381 495.585L570.974 502.416H569.285L564.667 496.847C564.239 496.331 563.85 495.863 563.501 495.443C563.152 495.022 562.874 494.608 562.668 494.199C562.462 493.79 562.359 493.348 562.359 492.872C562.359 492.325 562.48 491.845 562.722 491.432C562.968 491.016 563.311 490.692 563.751 490.462C564.195 490.228 564.715 490.111 565.31 490.111C565.921 490.111 566.446 490.23 566.887 490.468C567.327 490.702 567.666 491.014 567.904 491.402C568.142 491.787 568.261 492.206 568.261 492.658C568.261 493.241 568.116 493.747 567.827 494.175C567.537 494.604 567.143 495.002 566.643 495.371L564.215 497.18C563.668 497.585 563.297 497.977 563.103 498.358C562.908 498.739 562.811 499.013 562.811 499.179C562.811 499.56 562.91 499.915 563.108 500.244C563.307 500.573 563.586 500.839 563.947 501.042C564.308 501.244 564.731 501.345 565.215 501.345C565.675 501.345 566.123 501.248 566.56 501.053C566.996 500.855 567.391 500.57 567.744 500.197C568.101 499.824 568.382 499.376 568.588 498.852C568.799 498.328 568.904 497.739 568.904 497.085H570.26C570.26 497.894 570.167 498.554 569.981 499.066C569.794 499.578 569.584 499.978 569.35 500.268C569.116 500.558 568.928 500.774 568.785 500.917C568.737 500.976 568.694 501.036 568.654 501.095C568.614 501.155 568.571 501.214 568.523 501.274C568.13 501.714 567.634 502.043 567.036 502.261C566.437 502.476 565.845 502.583 565.262 502.583ZM584.096 493.277C584.024 492.674 583.735 492.206 583.227 491.873C582.719 491.539 582.097 491.373 581.359 491.373C580.819 491.373 580.347 491.46 579.943 491.635C579.542 491.809 579.229 492.049 579.003 492.354C578.78 492.66 578.669 493.007 578.669 493.396C578.669 493.721 578.747 494.001 578.901 494.235C579.06 494.465 579.262 494.657 579.508 494.812C579.754 494.963 580.012 495.088 580.282 495.187C580.552 495.282 580.799 495.359 581.026 495.419L582.263 495.752C582.581 495.835 582.934 495.95 583.322 496.097C583.715 496.244 584.09 496.444 584.447 496.698C584.808 496.948 585.105 497.269 585.339 497.662C585.573 498.055 585.69 498.537 585.69 499.108C585.69 499.766 585.518 500.361 585.173 500.893C584.832 501.424 584.332 501.847 583.673 502.16C583.019 502.474 582.223 502.63 581.287 502.63C580.415 502.63 579.659 502.489 579.02 502.208C578.386 501.926 577.886 501.533 577.521 501.03C577.16 500.526 576.956 499.941 576.908 499.274H578.431C578.471 499.735 578.626 500.115 578.895 500.417C579.169 500.714 579.514 500.936 579.931 501.083C580.351 501.226 580.803 501.297 581.287 501.297C581.851 501.297 582.356 501.206 582.805 501.024C583.253 500.837 583.608 500.579 583.87 500.25C584.131 499.917 584.262 499.528 584.262 499.084C584.262 498.679 584.149 498.35 583.923 498.096C583.697 497.842 583.4 497.636 583.031 497.477C582.662 497.319 582.263 497.18 581.835 497.061L580.335 496.633C579.383 496.359 578.63 495.968 578.074 495.46C577.519 494.953 577.241 494.288 577.241 493.467C577.241 492.785 577.426 492.19 577.795 491.682C578.168 491.17 578.667 490.774 579.294 490.492C579.925 490.207 580.629 490.064 581.406 490.064C582.192 490.064 582.89 490.205 583.501 490.486C584.112 490.764 584.596 491.145 584.953 491.629C585.314 492.113 585.504 492.662 585.524 493.277H584.096ZM591.758 502.606C590.877 502.606 590.118 502.412 589.479 502.023C588.844 501.631 588.355 501.083 588.009 500.381C587.668 499.675 587.498 498.854 587.498 497.918C587.498 496.982 587.668 496.157 588.009 495.443C588.355 494.725 588.834 494.165 589.449 493.765C590.068 493.36 590.79 493.158 591.615 493.158C592.091 493.158 592.561 493.237 593.025 493.396C593.489 493.554 593.912 493.812 594.293 494.169C594.673 494.522 594.977 494.99 595.203 495.573C595.429 496.157 595.542 496.875 595.542 497.727V498.322H588.497V497.109H594.114C594.114 496.593 594.011 496.133 593.805 495.728C593.602 495.324 593.313 495.004 592.936 494.77C592.563 494.536 592.123 494.419 591.615 494.419C591.056 494.419 590.572 494.558 590.163 494.836C589.759 495.109 589.447 495.466 589.229 495.907C589.011 496.347 588.902 496.819 588.902 497.323V498.132C588.902 498.822 589.021 499.407 589.259 499.887C589.501 500.363 589.836 500.726 590.264 500.976C590.693 501.222 591.191 501.345 591.758 501.345C592.127 501.345 592.46 501.293 592.758 501.19C593.059 501.083 593.319 500.925 593.537 500.714C593.755 500.5 593.924 500.234 594.043 499.917L595.399 500.298C595.257 500.758 595.017 501.163 594.679 501.512C594.342 501.857 593.926 502.126 593.43 502.321C592.934 502.511 592.377 502.606 591.758 502.606ZM601.391 502.606C600.534 502.606 599.796 502.404 599.178 502C598.559 501.595 598.083 501.038 597.75 500.328C597.416 499.618 597.25 498.806 597.25 497.894C597.25 496.966 597.42 496.147 597.762 495.437C598.107 494.723 598.587 494.165 599.201 493.765C599.82 493.36 600.542 493.158 601.367 493.158C602.01 493.158 602.589 493.277 603.105 493.515C603.62 493.753 604.043 494.086 604.372 494.514C604.701 494.943 604.906 495.443 604.985 496.014H603.581C603.474 495.597 603.236 495.228 602.867 494.907C602.502 494.582 602.01 494.419 601.391 494.419C600.844 494.419 600.364 494.562 599.951 494.848C599.543 495.129 599.223 495.528 598.993 496.044C598.767 496.555 598.654 497.156 598.654 497.846C598.654 498.552 598.765 499.167 598.987 499.691C599.213 500.214 599.531 500.621 599.939 500.911C600.352 501.2 600.836 501.345 601.391 501.345C601.756 501.345 602.087 501.282 602.385 501.155C602.682 501.028 602.934 500.845 603.14 500.607C603.347 500.369 603.493 500.084 603.581 499.75H604.985C604.906 500.29 604.709 500.776 604.396 501.208C604.086 501.637 603.676 501.978 603.164 502.232C602.656 502.481 602.065 502.606 601.391 502.606ZM612.797 498.679V493.277H614.202V502.416H612.797V500.869H612.702C612.488 501.333 612.155 501.728 611.703 502.053C611.25 502.374 610.679 502.535 609.989 502.535C609.418 502.535 608.91 502.41 608.466 502.16C608.021 501.906 607.672 501.525 607.418 501.018C607.165 500.506 607.038 499.861 607.038 499.084V493.277H608.442V498.989C608.442 499.655 608.628 500.187 609.001 500.583C609.378 500.98 609.858 501.178 610.441 501.178C610.79 501.178 611.145 501.089 611.506 500.911C611.871 500.732 612.177 500.458 612.422 500.09C612.672 499.721 612.797 499.251 612.797 498.679ZM616.773 502.416V493.277H618.13V494.657H618.225C618.392 494.205 618.693 493.838 619.13 493.556C619.566 493.275 620.058 493.134 620.605 493.134C620.708 493.134 620.837 493.136 620.992 493.14C621.147 493.144 621.264 493.15 621.343 493.158V494.586C621.295 494.574 621.186 494.556 621.016 494.532C620.849 494.504 620.673 494.491 620.486 494.491C620.042 494.491 619.645 494.584 619.296 494.77C618.951 494.953 618.677 495.207 618.475 495.532C618.277 495.853 618.178 496.22 618.178 496.633V502.416H616.773ZM626.561 502.606C625.681 502.606 624.921 502.412 624.282 502.023C623.648 501.631 623.158 501.083 622.813 500.381C622.472 499.675 622.301 498.854 622.301 497.918C622.301 496.982 622.472 496.157 622.813 495.443C623.158 494.725 623.638 494.165 624.253 493.765C624.871 493.36 625.593 493.158 626.418 493.158C626.894 493.158 627.365 493.237 627.829 493.396C628.293 493.554 628.715 493.812 629.096 494.169C629.477 494.522 629.78 494.99 630.006 495.573C630.232 496.157 630.345 496.875 630.345 497.727V498.322H623.301V497.109H628.917C628.917 496.593 628.814 496.133 628.608 495.728C628.406 495.324 628.116 495.004 627.739 494.77C627.367 494.536 626.926 494.419 626.418 494.419C625.859 494.419 625.375 494.558 624.967 494.836C624.562 495.109 624.251 495.466 624.032 495.907C623.814 496.347 623.705 496.819 623.705 497.323V498.132C623.705 498.822 623.824 499.407 624.062 499.887C624.304 500.363 624.639 500.726 625.068 500.976C625.496 501.222 625.994 501.345 626.561 501.345C626.93 501.345 627.263 501.293 627.561 501.19C627.862 501.083 628.122 500.925 628.34 500.714C628.558 500.5 628.727 500.234 628.846 499.917L630.203 500.298C630.06 500.758 629.82 501.163 629.483 501.512C629.146 501.857 628.729 502.126 628.233 502.321C627.737 502.511 627.18 502.606 626.561 502.606Z" fill="#BDF3FF"/>
<g clip-path="url(#clip3_354_1892)">
<path d="M562.829 408.954H578.714V406.306C578.714 404.2 577.878 402.179 576.388 400.69C574.898 399.2 572.878 398.364 570.772 398.364C568.665 398.364 566.645 399.2 565.155 400.69C563.666 402.179 562.829 404.2 562.829 406.306V408.954Z" fill="url(#paint5_linear_354_1892)"/>
<path d="M558.858 419.544H582.686V416.896H558.858V419.544Z" fill="url(#paint6_linear_354_1892)"/>
<path d="M582.686 426.163H558.858V423.515H582.686V426.163Z" fill="url(#paint7_linear_354_1892)"/>
<path d="M558.858 432.782H582.686V430.134H558.858V432.782Z" fill="url(#paint8_linear_354_1892)"/>
<path fill-rule="evenodd" clip-rule="evenodd" d="M539.001 385.126H602.543V448.667H539.001V385.126ZM553.563 408.954C552.861 408.954 552.187 409.233 551.691 409.729C551.194 410.226 550.915 410.899 550.915 411.601V438.077C550.915 438.779 551.194 439.452 551.691 439.949C552.187 440.445 552.861 440.724 553.563 440.724H587.981C588.683 440.724 589.357 440.445 589.853 439.949C590.35 439.452 590.629 438.779 590.629 438.077V411.601C590.629 410.899 590.35 410.226 589.853 409.729C589.357 409.233 588.683 408.954 587.981 408.954H584.01V406.306C584.01 398.995 578.083 393.068 570.772 393.068C563.461 393.068 557.534 398.995 557.534 406.306V408.954H553.563Z" fill="url(#paint9_linear_354_1892)"/>
</g>
<g clip-path="url(#clip4_354_1892)" filter="url(#filter4_f_354_1892)">
<path d="M130.238 46.6462V162.807L165.785 139.159V62.7829L130.238 46.6462ZM113.705 137.436L85.0833 147.876V56.7426L113.705 63.8187V137.436ZM46.645 134.759L68.5501 129.924V71.7564L46.7493 68.8233L46.645 134.759Z" fill="#FFB413"/>
</g>
<g filter="url(#filter5_b_354_1892)">
<rect x="3.95312" y="68.4885" width="314.727" height="227.358" rx="11.4241" fill="url(#paint10_linear_354_1892)"/>
<rect x="4.33393" y="68.8693" width="313.965" height="226.596" rx="11.0433" stroke="url(#paint11_linear_354_1892)" stroke-width="0.761606"/>
</g>
<path d="M114.179 228.497H115.94L120.081 238.612H120.224L124.365 228.497H126.126V240.683H124.746V231.424H124.627L120.819 240.683H119.486L115.678 231.424H115.559V240.683H114.179V228.497ZM131.584 240.897C131.005 240.897 130.479 240.788 130.007 240.57C129.535 240.347 129.16 240.028 128.883 239.612C128.605 239.191 128.466 238.683 128.466 238.088C128.466 237.565 128.569 237.14 128.776 236.815C128.982 236.486 129.257 236.228 129.603 236.042C129.948 235.855 130.328 235.716 130.745 235.625C131.165 235.53 131.588 235.455 132.012 235.399C132.568 235.328 133.018 235.274 133.363 235.238C133.712 235.199 133.966 235.133 134.125 235.042C134.287 234.951 134.369 234.792 134.369 234.566V234.518C134.369 233.931 134.208 233.475 133.887 233.15C133.569 232.825 133.087 232.662 132.441 232.662C131.77 232.662 131.245 232.809 130.864 233.102C130.483 233.396 130.215 233.709 130.061 234.042L128.728 233.566C128.966 233.011 129.283 232.579 129.68 232.269C130.081 231.956 130.517 231.738 130.989 231.615C131.465 231.488 131.933 231.424 132.393 231.424C132.687 231.424 133.024 231.46 133.405 231.531C133.789 231.599 134.16 231.74 134.517 231.954C134.878 232.168 135.178 232.491 135.416 232.924C135.654 233.356 135.773 233.935 135.773 234.661V240.683H134.369V239.445H134.297C134.202 239.643 134.043 239.856 133.821 240.082C133.599 240.308 133.304 240.5 132.935 240.659C132.566 240.817 132.115 240.897 131.584 240.897ZM131.798 239.635C132.353 239.635 132.822 239.526 133.202 239.308C133.587 239.09 133.877 238.808 134.071 238.463C134.269 238.118 134.369 237.755 134.369 237.374V236.089C134.309 236.161 134.178 236.226 133.976 236.286C133.778 236.341 133.547 236.391 133.286 236.434C133.028 236.474 132.776 236.51 132.53 236.541C132.288 236.569 132.092 236.593 131.941 236.613C131.576 236.66 131.235 236.738 130.918 236.845C130.604 236.948 130.35 237.105 130.156 237.315C129.966 237.521 129.87 237.803 129.87 238.16C129.87 238.648 130.051 239.017 130.412 239.267C130.777 239.512 131.239 239.635 131.798 239.635ZM138.336 240.683V231.543H139.692V232.924H139.788C139.954 232.472 140.256 232.105 140.692 231.823C141.128 231.541 141.62 231.401 142.168 231.401C142.271 231.401 142.4 231.403 142.554 231.406C142.709 231.41 142.826 231.416 142.905 231.424V232.852C142.858 232.84 142.749 232.823 142.578 232.799C142.412 232.771 142.235 232.757 142.049 232.757C141.604 232.757 141.208 232.85 140.859 233.037C140.513 233.219 140.24 233.473 140.037 233.798C139.839 234.12 139.74 234.487 139.74 234.899V240.683H138.336ZM145.879 237.351L145.855 235.613H146.141L150.139 231.543H151.877L147.616 235.851H147.497L145.879 237.351ZM144.57 240.683V228.497H145.974V240.683H144.57ZM150.377 240.683L146.807 236.161L147.807 235.185L152.162 240.683H150.377ZM157.139 240.873C156.259 240.873 155.499 240.679 154.861 240.29C154.226 239.897 153.736 239.35 153.391 238.648C153.05 237.942 152.879 237.121 152.879 236.184C152.879 235.248 153.05 234.423 153.391 233.709C153.736 232.991 154.216 232.432 154.831 232.031C155.45 231.627 156.172 231.424 156.997 231.424C157.473 231.424 157.943 231.504 158.407 231.662C158.871 231.821 159.293 232.079 159.674 232.436C160.055 232.789 160.358 233.257 160.584 233.84C160.811 234.423 160.924 235.141 160.924 235.994V236.589H153.879V235.375H159.496C159.496 234.86 159.392 234.399 159.186 233.995C158.984 233.59 158.694 233.271 158.318 233.037C157.945 232.803 157.504 232.686 156.997 232.686C156.437 232.686 155.953 232.825 155.545 233.102C155.14 233.376 154.829 233.733 154.611 234.173C154.392 234.614 154.283 235.086 154.283 235.589V236.399C154.283 237.089 154.402 237.674 154.64 238.154C154.882 238.63 155.218 238.993 155.646 239.243C156.074 239.489 156.572 239.612 157.139 239.612C157.508 239.612 157.842 239.56 158.139 239.457C158.44 239.35 158.7 239.191 158.918 238.981C159.137 238.767 159.305 238.501 159.424 238.184L160.781 238.564C160.638 239.025 160.398 239.429 160.061 239.778C159.724 240.123 159.307 240.393 158.811 240.587C158.316 240.778 157.758 240.873 157.139 240.873ZM167.034 231.543V232.733H162.298V231.543H167.034ZM163.678 229.354H165.083V238.065C165.083 238.461 165.14 238.759 165.255 238.957C165.374 239.151 165.525 239.282 165.707 239.35C165.894 239.413 166.09 239.445 166.297 239.445C166.451 239.445 166.578 239.437 166.677 239.421C166.776 239.401 166.856 239.386 166.915 239.374L167.201 240.635C167.106 240.671 166.973 240.706 166.802 240.742C166.632 240.782 166.416 240.802 166.154 240.802C165.757 240.802 165.368 240.716 164.988 240.546C164.611 240.375 164.297 240.115 164.047 239.766C163.801 239.417 163.678 238.977 163.678 238.445V229.354ZM169.147 244.11V231.543H170.503V232.995H170.67C170.773 232.836 170.916 232.634 171.098 232.388C171.285 232.138 171.55 231.916 171.896 231.722C172.245 231.524 172.717 231.424 173.312 231.424C174.081 231.424 174.759 231.617 175.347 232.001C175.934 232.386 176.392 232.932 176.721 233.638C177.05 234.344 177.215 235.177 177.215 236.137C177.215 237.105 177.05 237.944 176.721 238.654C176.392 239.36 175.936 239.907 175.352 240.296C174.769 240.681 174.097 240.873 173.335 240.873C172.748 240.873 172.278 240.776 171.925 240.581C171.572 240.383 171.301 240.159 171.11 239.909C170.92 239.655 170.773 239.445 170.67 239.278H170.551V244.11H169.147ZM170.527 236.113C170.527 236.803 170.628 237.412 170.83 237.94C171.033 238.463 171.328 238.874 171.717 239.171C172.106 239.465 172.582 239.612 173.145 239.612C173.732 239.612 174.222 239.457 174.615 239.148C175.011 238.834 175.309 238.414 175.507 237.886C175.709 237.355 175.811 236.764 175.811 236.113C175.811 235.47 175.711 234.891 175.513 234.376C175.319 233.856 175.023 233.445 174.627 233.144C174.234 232.838 173.74 232.686 173.145 232.686C172.574 232.686 172.094 232.831 171.705 233.12C171.316 233.406 171.023 233.806 170.824 234.322C170.626 234.834 170.527 235.431 170.527 236.113ZM180.761 228.497V240.683H179.357V228.497H180.761ZM186.022 240.897C185.443 240.897 184.918 240.788 184.446 240.57C183.974 240.347 183.599 240.028 183.321 239.612C183.043 239.191 182.905 238.683 182.905 238.088C182.905 237.565 183.008 237.14 183.214 236.815C183.42 236.486 183.696 236.228 184.041 236.042C184.386 235.855 184.767 235.716 185.183 235.625C185.604 235.53 186.026 235.455 186.451 235.399C187.006 235.328 187.456 235.274 187.801 235.238C188.151 235.199 188.404 235.133 188.563 235.042C188.726 234.951 188.807 234.792 188.807 234.566V234.518C188.807 233.931 188.646 233.475 188.325 233.15C188.008 232.825 187.526 232.662 186.879 232.662C186.209 232.662 185.683 232.809 185.302 233.102C184.922 233.396 184.654 233.709 184.499 234.042L183.166 233.566C183.404 233.011 183.722 232.579 184.118 232.269C184.519 231.956 184.955 231.738 185.427 231.615C185.903 231.488 186.371 231.424 186.832 231.424C187.125 231.424 187.462 231.46 187.843 231.531C188.228 231.599 188.599 231.74 188.956 231.954C189.317 232.168 189.616 232.491 189.854 232.924C190.092 233.356 190.211 233.935 190.211 234.661V240.683H188.807V239.445H188.736C188.64 239.643 188.482 239.856 188.26 240.082C188.037 240.308 187.742 240.5 187.373 240.659C187.004 240.817 186.554 240.897 186.022 240.897ZM186.237 239.635C186.792 239.635 187.26 239.526 187.641 239.308C188.026 239.09 188.315 238.808 188.51 238.463C188.708 238.118 188.807 237.755 188.807 237.374V236.089C188.748 236.161 188.617 236.226 188.414 236.286C188.216 236.341 187.986 236.391 187.724 236.434C187.466 236.474 187.214 236.51 186.968 236.541C186.726 236.569 186.53 236.593 186.379 236.613C186.014 236.66 185.673 236.738 185.356 236.845C185.043 236.948 184.789 237.105 184.594 237.315C184.404 237.521 184.309 237.803 184.309 238.16C184.309 238.648 184.489 239.017 184.85 239.267C185.215 239.512 185.677 239.635 186.237 239.635ZM196.487 240.873C195.63 240.873 194.892 240.671 194.274 240.266C193.655 239.862 193.179 239.304 192.846 238.594C192.512 237.884 192.346 237.073 192.346 236.161C192.346 235.232 192.516 234.413 192.858 233.703C193.203 232.989 193.683 232.432 194.297 232.031C194.916 231.627 195.638 231.424 196.463 231.424C197.106 231.424 197.685 231.543 198.201 231.781C198.716 232.019 199.139 232.353 199.468 232.781C199.797 233.209 200.002 233.709 200.081 234.28H198.677C198.57 233.864 198.332 233.495 197.963 233.174C197.598 232.848 197.106 232.686 196.487 232.686C195.94 232.686 195.46 232.829 195.047 233.114C194.639 233.396 194.319 233.794 194.089 234.31C193.863 234.822 193.75 235.423 193.75 236.113C193.75 236.819 193.861 237.434 194.083 237.957C194.309 238.481 194.627 238.888 195.035 239.177C195.448 239.467 195.932 239.612 196.487 239.612C196.852 239.612 197.183 239.548 197.481 239.421C197.778 239.294 198.03 239.112 198.236 238.874C198.443 238.636 198.589 238.35 198.677 238.017H200.081C200.002 238.556 199.805 239.042 199.492 239.475C199.182 239.903 198.772 240.244 198.26 240.498C197.752 240.748 197.161 240.873 196.487 240.873ZM205.965 240.873C205.085 240.873 204.325 240.679 203.687 240.29C203.052 239.897 202.562 239.35 202.217 238.648C201.876 237.942 201.705 237.121 201.705 236.184C201.705 235.248 201.876 234.423 202.217 233.709C202.562 232.991 203.042 232.432 203.657 232.031C204.276 231.627 204.998 231.424 205.823 231.424C206.299 231.424 206.769 231.504 207.233 231.662C207.697 231.821 208.119 232.079 208.5 232.436C208.881 232.789 209.184 233.257 209.411 233.84C209.637 234.423 209.75 235.141 209.75 235.994V236.589H202.705V235.375H208.322C208.322 234.86 208.219 234.399 208.012 233.995C207.81 233.59 207.52 233.271 207.144 233.037C206.771 232.803 206.33 232.686 205.823 232.686C205.263 232.686 204.779 232.825 204.371 233.102C203.966 233.376 203.655 233.733 203.437 234.173C203.219 234.614 203.109 235.086 203.109 235.589V236.399C203.109 237.089 203.228 237.674 203.466 238.154C203.708 238.63 204.044 238.993 204.472 239.243C204.9 239.489 205.398 239.612 205.965 239.612C206.334 239.612 206.668 239.56 206.965 239.457C207.267 239.35 207.526 239.191 207.745 238.981C207.963 238.767 208.131 238.501 208.25 238.184L209.607 238.564C209.464 239.025 209.224 239.429 208.887 239.778C208.55 240.123 208.133 240.393 207.637 240.587C207.142 240.778 206.584 240.873 205.965 240.873Z" fill="#BDF3FF"/>
<g clip-path="url(#clip5_354_1892)">
<path d="M175.037 118.513V197.939L195.337 181.769V129.547L175.037 118.513ZM165.595 180.591L149.25 187.73V125.416L165.595 130.255V180.591ZM127.298 178.761L139.808 175.455V135.682L127.358 133.677L127.298 178.761Z" fill="url(#paint12_linear_354_1892)"/>
</g>
<g clip-path="url(#clip6_354_1892)" filter="url(#filter6_f_354_1892)">
<path d="M515.217 170.055V286.216L548.098 262.568V186.192L515.217 170.055ZM499.924 260.845L473.449 271.285V180.152L499.924 187.228V260.845ZM437.894 258.168L458.156 253.333V195.165L437.99 192.232L437.894 258.168Z" fill="#FF5A13"/>
</g>
<g filter="url(#filter7_b_354_1892)">
<rect x="352.014" y="68.4885" width="315.72" height="227.358" rx="11.4241" fill="url(#paint13_linear_354_1892)"/>
<rect x="352.395" y="68.8693" width="314.958" height="226.596" rx="11.0433" stroke="url(#paint14_linear_354_1892)" stroke-width="0.761606"/>
</g>
<path d="M444.851 229.191H446.612L450.754 239.306H450.896L455.038 229.191H456.799V241.377H455.418V232.118H455.299L451.491 241.377H450.159L446.35 232.118H446.231V241.377H444.851V229.191ZM463.28 241.567C462.455 241.567 461.731 241.371 461.108 240.978C460.489 240.585 460.005 240.036 459.656 239.33C459.311 238.624 459.139 237.799 459.139 236.855C459.139 235.903 459.311 235.072 459.656 234.362C460.005 233.652 460.489 233.1 461.108 232.707C461.731 232.315 462.455 232.118 463.28 232.118C464.105 232.118 464.827 232.315 465.446 232.707C466.068 233.1 466.552 233.652 466.897 234.362C467.247 235.072 467.421 235.903 467.421 236.855C467.421 237.799 467.247 238.624 466.897 239.33C466.552 240.036 466.068 240.585 465.446 240.978C464.827 241.371 464.105 241.567 463.28 241.567ZM463.28 240.306C463.907 240.306 464.422 240.145 464.827 239.824C465.231 239.502 465.531 239.08 465.725 238.556C465.92 238.033 466.017 237.466 466.017 236.855C466.017 236.244 465.92 235.675 465.725 235.147C465.531 234.619 465.231 234.193 464.827 233.868C464.422 233.542 463.907 233.38 463.28 233.38C462.653 233.38 462.137 233.542 461.733 233.868C461.328 234.193 461.029 234.619 460.834 235.147C460.64 235.675 460.543 236.244 460.543 236.855C460.543 237.466 460.64 238.033 460.834 238.556C461.029 239.08 461.328 239.502 461.733 239.824C462.137 240.145 462.653 240.306 463.28 240.306ZM470.969 235.879V241.377H469.565V232.237H470.921V233.665H471.04C471.254 233.201 471.58 232.828 472.016 232.547C472.452 232.261 473.016 232.118 473.706 232.118C474.325 232.118 474.866 232.245 475.33 232.499C475.794 232.749 476.155 233.13 476.413 233.642C476.671 234.149 476.8 234.792 476.8 235.569V241.377H475.396V235.665C475.396 234.947 475.209 234.387 474.836 233.987C474.463 233.582 473.952 233.38 473.301 233.38C472.853 233.38 472.452 233.477 472.099 233.671C471.75 233.866 471.475 234.149 471.272 234.522C471.07 234.895 470.969 235.347 470.969 235.879ZM483.198 241.567C482.317 241.567 481.557 241.373 480.919 240.984C480.284 240.591 479.794 240.044 479.449 239.342C479.108 238.636 478.937 237.815 478.937 236.878C478.937 235.942 479.108 235.117 479.449 234.403C479.794 233.685 480.274 233.126 480.889 232.725C481.508 232.321 482.23 232.118 483.055 232.118C483.531 232.118 484.001 232.198 484.465 232.356C484.929 232.515 485.352 232.773 485.732 233.13C486.113 233.483 486.417 233.951 486.643 234.534C486.869 235.117 486.982 235.835 486.982 236.688V237.283H479.937V236.069H485.554C485.554 235.554 485.451 235.093 485.244 234.689C485.042 234.284 484.753 233.965 484.376 233.731C484.003 233.497 483.563 233.38 483.055 233.38C482.496 233.38 482.012 233.519 481.603 233.796C481.198 234.07 480.887 234.427 480.669 234.867C480.451 235.308 480.342 235.78 480.342 236.283V237.093C480.342 237.783 480.461 238.368 480.699 238.848C480.941 239.324 481.276 239.687 481.704 239.937C482.133 240.183 482.63 240.306 483.198 240.306C483.567 240.306 483.9 240.254 484.197 240.151C484.499 240.044 484.759 239.885 484.977 239.675C485.195 239.461 485.363 239.195 485.482 238.878L486.839 239.258C486.696 239.719 486.456 240.123 486.119 240.472C485.782 240.817 485.365 241.087 484.87 241.282C484.374 241.472 483.816 241.567 483.198 241.567ZM489.744 244.804C489.506 244.804 489.294 244.784 489.108 244.744C488.921 244.709 488.792 244.673 488.721 244.637L489.078 243.4C489.419 243.487 489.72 243.519 489.982 243.495C490.244 243.471 490.476 243.354 490.678 243.144C490.885 242.938 491.073 242.602 491.244 242.138L491.505 241.424L488.126 232.237H489.649L492.172 239.52H492.267L494.79 232.237H496.313L492.434 242.71C492.259 243.182 492.043 243.572 491.785 243.882C491.527 244.195 491.228 244.427 490.887 244.578C490.549 244.729 490.169 244.804 489.744 244.804ZM503.069 241.377V229.191H507.187C508.143 229.191 508.924 229.364 509.531 229.709C510.142 230.05 510.594 230.512 510.888 231.095C511.181 231.678 511.328 232.329 511.328 233.047C511.328 233.765 511.181 234.417 510.888 235.004C510.598 235.591 510.15 236.059 509.543 236.408C508.936 236.754 508.159 236.926 507.211 236.926H504.259V235.617H507.163C507.817 235.617 508.343 235.504 508.74 235.278C509.136 235.052 509.424 234.746 509.602 234.362C509.785 233.973 509.876 233.535 509.876 233.047C509.876 232.559 509.785 232.122 509.602 231.738C509.424 231.353 509.134 231.051 508.734 230.833C508.333 230.611 507.802 230.5 507.139 230.5H504.545V241.377H503.069ZM513.515 241.377V232.237H514.871V233.618H514.966C515.133 233.166 515.435 232.799 515.871 232.517C516.307 232.235 516.799 232.095 517.346 232.095C517.45 232.095 517.579 232.097 517.733 232.101C517.888 232.105 518.005 232.111 518.084 232.118V233.546C518.037 233.535 517.928 233.517 517.757 233.493C517.59 233.465 517.414 233.451 517.227 233.451C516.783 233.451 516.387 233.544 516.037 233.731C515.692 233.913 515.419 234.167 515.216 234.493C515.018 234.814 514.919 235.181 514.919 235.593V241.377H513.515ZM523.183 241.567C522.358 241.567 521.634 241.371 521.012 240.978C520.393 240.585 519.909 240.036 519.56 239.33C519.215 238.624 519.042 237.799 519.042 236.855C519.042 235.903 519.215 235.072 519.56 234.362C519.909 233.652 520.393 233.1 521.012 232.707C521.634 232.315 522.358 232.118 523.183 232.118C524.009 232.118 524.73 232.315 525.349 232.707C525.972 233.1 526.456 233.652 526.801 234.362C527.15 235.072 527.325 235.903 527.325 236.855C527.325 237.799 527.15 238.624 526.801 239.33C526.456 240.036 525.972 240.585 525.349 240.978C524.73 241.371 524.009 241.567 523.183 241.567ZM523.183 240.306C523.81 240.306 524.326 240.145 524.73 239.824C525.135 239.502 525.435 239.08 525.629 238.556C525.823 238.033 525.92 237.466 525.92 236.855C525.92 236.244 525.823 235.675 525.629 235.147C525.435 234.619 525.135 234.193 524.73 233.868C524.326 233.542 523.81 233.38 523.183 233.38C522.557 233.38 522.041 233.542 521.636 233.868C521.232 234.193 520.932 234.619 520.738 235.147C520.544 235.675 520.446 236.244 520.446 236.855C520.446 237.466 520.544 238.033 520.738 238.556C520.932 239.08 521.232 239.502 521.636 239.824C522.041 240.145 522.557 240.306 523.183 240.306ZM533.443 232.237V233.427H528.707V232.237H533.443ZM530.087 230.048H531.491V238.759C531.491 239.155 531.549 239.453 531.664 239.651C531.783 239.846 531.933 239.976 532.116 240.044C532.302 240.107 532.499 240.139 532.705 240.139C532.86 240.139 532.987 240.131 533.086 240.115C533.185 240.095 533.264 240.08 533.324 240.068L533.609 241.329C533.514 241.365 533.381 241.401 533.211 241.436C533.04 241.476 532.824 241.496 532.562 241.496C532.166 241.496 531.777 241.41 531.396 241.24C531.019 241.069 530.706 240.809 530.456 240.46C530.21 240.111 530.087 239.671 530.087 239.139V230.048ZM539.289 241.567C538.408 241.567 537.649 241.373 537.01 240.984C536.375 240.591 535.885 240.044 535.54 239.342C535.199 238.636 535.028 237.815 535.028 236.878C535.028 235.942 535.199 235.117 535.54 234.403C535.885 233.685 536.365 233.126 536.98 232.725C537.599 232.321 538.321 232.118 539.146 232.118C539.622 232.118 540.092 232.198 540.556 232.356C541.02 232.515 541.443 232.773 541.823 233.13C542.204 233.483 542.508 233.951 542.734 234.534C542.96 235.117 543.073 235.835 543.073 236.688V237.283H536.028V236.069H541.645C541.645 235.554 541.542 235.093 541.336 234.689C541.133 234.284 540.844 233.965 540.467 233.731C540.094 233.497 539.654 233.38 539.146 233.38C538.587 233.38 538.103 233.519 537.694 233.796C537.29 234.07 536.978 234.427 536.76 234.867C536.542 235.308 536.433 235.78 536.433 236.283V237.093C536.433 237.783 536.552 238.368 536.79 238.848C537.032 239.324 537.367 239.687 537.795 239.937C538.224 240.183 538.721 240.306 539.289 240.306C539.658 240.306 539.991 240.254 540.288 240.151C540.59 240.044 540.85 239.885 541.068 239.675C541.286 239.461 541.455 239.195 541.574 238.878L542.93 239.258C542.787 239.719 542.547 240.123 542.21 240.472C541.873 240.817 541.457 241.087 540.961 241.282C540.465 241.472 539.908 241.567 539.289 241.567ZM548.922 241.567C548.065 241.567 547.327 241.365 546.708 240.96C546.09 240.556 545.614 239.998 545.28 239.288C544.947 238.578 544.781 237.767 544.781 236.855C544.781 235.926 544.951 235.107 545.292 234.397C545.637 233.683 546.117 233.126 546.732 232.725C547.351 232.321 548.073 232.118 548.898 232.118C549.541 232.118 550.12 232.237 550.635 232.475C551.151 232.713 551.574 233.047 551.903 233.475C552.232 233.903 552.436 234.403 552.516 234.974H551.111C551.004 234.558 550.766 234.189 550.397 233.868C550.033 233.542 549.541 233.38 548.922 233.38C548.374 233.38 547.894 233.523 547.482 233.808C547.073 234.09 546.754 234.489 546.524 235.004C546.298 235.516 546.185 236.117 546.185 236.807C546.185 237.513 546.296 238.128 546.518 238.652C546.744 239.175 547.061 239.582 547.47 239.871C547.883 240.161 548.367 240.306 548.922 240.306C549.287 240.306 549.618 240.242 549.916 240.115C550.213 239.988 550.465 239.806 550.671 239.568C550.877 239.33 551.024 239.044 551.111 238.711H552.516C552.436 239.251 552.24 239.736 551.927 240.169C551.617 240.597 551.207 240.938 550.695 241.192C550.187 241.442 549.596 241.567 548.922 241.567ZM558.543 232.237V233.427H553.807V232.237H558.543ZM555.187 230.048H556.591V238.759C556.591 239.155 556.649 239.453 556.764 239.651C556.883 239.846 557.034 239.976 557.216 240.044C557.403 240.107 557.599 240.139 557.805 240.139C557.96 240.139 558.087 240.131 558.186 240.115C558.285 240.095 558.365 240.08 558.424 240.068L558.71 241.329C558.614 241.365 558.482 241.401 558.311 241.436C558.14 241.476 557.924 241.496 557.662 241.496C557.266 241.496 556.877 241.41 556.496 241.24C556.119 241.069 555.806 240.809 555.556 240.46C555.31 240.111 555.187 239.671 555.187 239.139V230.048ZM560.655 241.377V232.237H562.06V241.377H560.655ZM561.369 230.714C561.096 230.714 560.86 230.621 560.661 230.435C560.467 230.248 560.37 230.024 560.37 229.762C560.37 229.5 560.467 229.276 560.661 229.09C560.86 228.903 561.096 228.81 561.369 228.81C561.643 228.81 561.877 228.903 562.071 229.09C562.27 229.276 562.369 229.5 562.369 229.762C562.369 230.024 562.27 230.248 562.071 230.435C561.877 230.621 561.643 230.714 561.369 230.714ZM568.344 241.567C567.519 241.567 566.795 241.371 566.173 240.978C565.554 240.585 565.07 240.036 564.721 239.33C564.376 238.624 564.203 237.799 564.203 236.855C564.203 235.903 564.376 235.072 564.721 234.362C565.07 233.652 565.554 233.1 566.173 232.707C566.795 232.315 567.519 232.118 568.344 232.118C569.169 232.118 569.891 232.315 570.51 232.707C571.133 233.1 571.617 233.652 571.962 234.362C572.311 235.072 572.486 235.903 572.486 236.855C572.486 237.799 572.311 238.624 571.962 239.33C571.617 240.036 571.133 240.585 570.51 240.978C569.891 241.371 569.169 241.567 568.344 241.567ZM568.344 240.306C568.971 240.306 569.487 240.145 569.891 239.824C570.296 239.502 570.595 239.08 570.79 238.556C570.984 238.033 571.081 237.466 571.081 236.855C571.081 236.244 570.984 235.675 570.79 235.147C570.595 234.619 570.296 234.193 569.891 233.868C569.487 233.542 568.971 233.38 568.344 233.38C567.718 233.38 567.202 233.542 566.797 233.868C566.393 234.193 566.093 234.619 565.899 235.147C565.704 235.675 565.607 236.244 565.607 236.855C565.607 237.466 565.704 238.033 565.899 238.556C566.093 239.08 566.393 239.502 566.797 239.824C567.202 240.145 567.718 240.306 568.344 240.306ZM576.033 235.879V241.377H574.629V232.237H575.986V233.665H576.105C576.319 233.201 576.644 232.828 577.08 232.547C577.517 232.261 578.08 232.118 578.77 232.118C579.389 232.118 579.931 232.245 580.395 232.499C580.859 232.749 581.22 233.13 581.478 233.642C581.735 234.149 581.864 234.792 581.864 235.569V241.377H580.46V235.665C580.46 234.947 580.274 234.387 579.901 233.987C579.528 233.582 579.016 233.38 578.366 233.38C577.917 233.38 577.517 233.477 577.164 233.671C576.815 233.866 576.539 234.149 576.337 234.522C576.134 234.895 576.033 235.347 576.033 235.879Z" fill="#BDF3FF"/>
<path d="M506.565 130.706L530.717 138.251C531.391 138.461 531.979 138.881 532.397 139.45C532.815 140.019 533.041 140.706 533.04 141.412V147.253H539.659C540.537 147.253 541.379 147.601 541.999 148.222C542.62 148.843 542.969 149.684 542.969 150.562V157.181H499.946V150.562C499.946 149.684 500.295 148.843 500.915 148.222C501.536 147.601 502.378 147.253 503.255 147.253H526.421V143.844L506.565 137.636L486.708 143.844V168.347C486.708 170.373 487.172 172.372 488.066 174.191C488.96 176.009 490.26 177.598 491.864 178.835L492.49 179.285L506.565 188.885L519.081 180.347H503.255C502.378 180.347 501.536 179.998 500.915 179.378C500.295 178.757 499.946 177.915 499.946 177.038V163.8H542.969V177.038C542.969 177.915 542.62 178.757 541.999 179.378C541.379 179.998 540.537 180.347 539.659 180.347L529.003 180.35C527.722 182.038 526.167 183.527 524.37 184.752L506.565 196.894L488.76 184.755C486.088 182.933 483.901 180.486 482.39 177.626C480.879 174.767 480.089 171.581 480.089 168.347V141.412C480.09 140.706 480.315 140.02 480.733 139.452C481.151 138.884 481.74 138.464 482.413 138.254L506.565 130.706Z" fill="url(#paint15_linear_354_1892)"/>
<defs>
<filter id="filter0_f_354_1892" x="73.7597" y="283.831" width="201.597" height="187.697" filterUnits="userSpaceOnUse" color-interpolation-filters="sRGB">
<feFlood flood-opacity="0" result="BackgroundImageFix"/>
<feBlend mode="normal" in="SourceGraphic" in2="BackgroundImageFix" result="shape"/>
<feGaussianBlur stdDeviation="22.8482" result="effect1_foregroundBlur_354_1892"/>
</filter>
<filter id="filter1_b_354_1892" x="29.7488" y="294.425" width="390.888" height="303.518" filterUnits="userSpaceOnUse" color-interpolation-filters="sRGB">
<feFlood flood-opacity="0" result="BackgroundImageFix"/>
<feGaussianBlur in="BackgroundImageFix" stdDeviation="19.0402"/>
<feComposite in2="SourceAlpha" operator="in" result="effect1_backgroundBlur_354_1892"/>
<feBlend mode="normal" in="SourceGraphic" in2="effect1_backgroundBlur_354_1892" result="shape"/>
</filter>
<filter id="filter2_f_354_1892" x="504.723" y="353.329" width="187.697" height="187.697" filterUnits="userSpaceOnUse" color-interpolation-filters="sRGB">
<feFlood flood-opacity="0" result="BackgroundImageFix"/>
<feBlend mode="normal" in="SourceGraphic" in2="BackgroundImageFix" result="shape"/>
<feGaussianBlur stdDeviation="22.8482" result="effect1_foregroundBlur_354_1892"/>
</filter>
<filter id="filter3_b_354_1892" x="377.81" y="291.447" width="391.88" height="303.519" filterUnits="userSpaceOnUse" color-interpolation-filters="sRGB">
<feFlood flood-opacity="0" result="BackgroundImageFix"/>
<feGaussianBlur in="BackgroundImageFix" stdDeviation="19.0402"/>
<feComposite in2="SourceAlpha" operator="in" result="effect1_backgroundBlur_354_1892"/>
<feBlend mode="normal" in="SourceGraphic" in2="effect1_backgroundBlur_354_1892" result="shape"/>
</filter>
<filter id="filter4_f_354_1892" x="-8.98005" y="0.949879" width="230.389" height="207.554" filterUnits="userSpaceOnUse" color-interpolation-filters="sRGB">
<feFlood flood-opacity="0" result="BackgroundImageFix"/>
<feBlend mode="normal" in="SourceGraphic" in2="BackgroundImageFix" result="shape"/>
<feGaussianBlur stdDeviation="22.8482" result="effect1_foregroundBlur_354_1892"/>
</filter>
<filter id="filter5_b_354_1892" x="-34.1272" y="30.4082" width="390.888" height="303.519" filterUnits="userSpaceOnUse" color-interpolation-filters="sRGB">
<feFlood flood-opacity="0" result="BackgroundImageFix"/>
<feGaussianBlur in="BackgroundImageFix" stdDeviation="19.0402"/>
<feComposite in2="SourceAlpha" operator="in" result="effect1_backgroundBlur_354_1892"/>
<feBlend mode="normal" in="SourceGraphic" in2="effect1_backgroundBlur_354_1892" result="shape"/>
</filter>
<filter id="filter6_f_354_1892" x="383.262" y="124.359" width="220.461" height="207.554" filterUnits="userSpaceOnUse" color-interpolation-filters="sRGB">
<feFlood flood-opacity="0" result="BackgroundImageFix"/>
<feBlend mode="normal" in="SourceGraphic" in2="BackgroundImageFix" result="shape"/>
<feGaussianBlur stdDeviation="22.8482" result="effect1_foregroundBlur_354_1892"/>
</filter>
<filter id="filter7_b_354_1892" x="313.934" y="30.4082" width="391.88" height="303.519" filterUnits="userSpaceOnUse" color-interpolation-filters="sRGB">
<feFlood flood-opacity="0" result="BackgroundImageFix"/>
<feGaussianBlur in="BackgroundImageFix" stdDeviation="19.0402"/>
<feComposite in2="SourceAlpha" operator="in" result="effect1_backgroundBlur_354_1892"/>
<feBlend mode="normal" in="SourceGraphic" in2="effect1_backgroundBlur_354_1892" result="shape"/>
</filter>
<linearGradient id="paint0_linear_354_1892" x1="225.193" y1="263.649" x2="225.193" y2="661.987" gradientUnits="userSpaceOnUse">
<stop stop-color="white" stop-opacity="0.03"/>
<stop offset="1" stop-color="white" stop-opacity="0"/>
</linearGradient>
<linearGradient id="paint1_linear_354_1892" x1="416.235" y1="559.863" x2="91.6783" y2="247.793" gradientUnits="userSpaceOnUse">
<stop stop-color="#F5FBF2" stop-opacity="0.44"/>
<stop offset="1" stop-color="#F5FBF2" stop-opacity="0"/>
</linearGradient>
<linearGradient id="paint2_linear_354_1892" x1="225.191" y1="396.047" x2="314.538" y2="425.111" gradientUnits="userSpaceOnUse">
<stop stop-color="#05D2FF"/>
<stop offset="0.609375" stop-color="#253FE0" stop-opacity="0.619792"/>
<stop offset="1" stop-color="#060ED0" stop-opacity="0.28"/>
</linearGradient>
<linearGradient id="paint3_linear_354_1892" x1="573.75" y1="260.671" x2="573.75" y2="659.009" gradientUnits="userSpaceOnUse">
<stop stop-color="white" stop-opacity="0.03"/>
<stop offset="1" stop-color="white" stop-opacity="0"/>
</linearGradient>
<linearGradient id="paint4_linear_354_1892" x1="765.395" y1="556.885" x2="440.8" y2="243.793" gradientUnits="userSpaceOnUse">
<stop stop-color="#F5FBF2" stop-opacity="0.44"/>
<stop offset="1" stop-color="#F5FBF2" stop-opacity="0"/>
</linearGradient>
<linearGradient id="paint5_linear_354_1892" x1="570.772" y1="398.364" x2="590.194" y2="406.609" gradientUnits="userSpaceOnUse">
<stop stop-color="#00DD9C"/>
<stop offset="0.609375" stop-color="#253FE0" stop-opacity="0.619792"/>
<stop offset="1" stop-color="#060ED0" stop-opacity="0.28"/>
</linearGradient>
<linearGradient id="paint6_linear_354_1892" x1="570.772" y1="416.896" x2="575.364" y2="428.592" gradientUnits="userSpaceOnUse">
<stop stop-color="#00DD9C"/>
<stop offset="0.609375" stop-color="#253FE0" stop-opacity="0.619792"/>
<stop offset="1" stop-color="#060ED0" stop-opacity="0.28"/>
</linearGradient>
<linearGradient id="paint7_linear_354_1892" x1="570.772" y1="423.515" x2="575.364" y2="435.211" gradientUnits="userSpaceOnUse">
<stop stop-color="#00DD9C"/>
<stop offset="0.609375" stop-color="#253FE0" stop-opacity="0.619792"/>
<stop offset="1" stop-color="#060ED0" stop-opacity="0.28"/>
</linearGradient>
<linearGradient id="paint8_linear_354_1892" x1="570.772" y1="430.134" x2="575.364" y2="441.83" gradientUnits="userSpaceOnUse">
<stop stop-color="#00DD9C"/>
<stop offset="0.609375" stop-color="#253FE0" stop-opacity="0.619792"/>
<stop offset="1" stop-color="#060ED0" stop-opacity="0.28"/>
</linearGradient>
<linearGradient id="paint9_linear_354_1892" x1="570.772" y1="385.126" x2="655.664" y2="409.152" gradientUnits="userSpaceOnUse">
<stop stop-color="#00DD9C"/>
<stop offset="0.609375" stop-color="#253FE0" stop-opacity="0.619792"/>
<stop offset="1" stop-color="#060ED0" stop-opacity="0.28"/>
</linearGradient>
<linearGradient id="paint10_linear_354_1892" x1="161.317" y1="-0.367673" x2="161.317" y2="397.97" gradientUnits="userSpaceOnUse">
<stop stop-color="white" stop-opacity="0.03"/>
<stop offset="1" stop-color="white" stop-opacity="0"/>
</linearGradient>
<linearGradient id="paint11_linear_354_1892" x1="352.359" y1="295.846" x2="27.8024" y2="-16.2239" gradientUnits="userSpaceOnUse">
<stop stop-color="#F5FBF2" stop-opacity="0.44"/>
<stop offset="1" stop-color="#F5FBF2" stop-opacity="0"/>
</linearGradient>
<linearGradient id="paint12_linear_354_1892" x1="161.318" y1="118.513" x2="254.049" y2="140.995" gradientUnits="userSpaceOnUse">
<stop stop-color="#F7BC51"/>
<stop offset="0.609375" stop-color="#60E7CE" stop-opacity="0.5"/>
<stop offset="1" stop-color="#060ED0" stop-opacity="0.28"/>
</linearGradient>
<linearGradient id="paint13_linear_354_1892" x1="509.874" y1="-0.367673" x2="509.874" y2="397.97" gradientUnits="userSpaceOnUse">
<stop stop-color="white" stop-opacity="0.03"/>
<stop offset="1" stop-color="white" stop-opacity="0"/>
</linearGradient>
<linearGradient id="paint14_linear_354_1892" x1="701.519" y1="295.846" x2="376.924" y2="-17.2454" gradientUnits="userSpaceOnUse">
<stop stop-color="#F5FBF2" stop-opacity="0.44"/>
<stop offset="1" stop-color="#F5FBF2" stop-opacity="0"/>
</linearGradient>
<linearGradient id="paint15_linear_354_1892" x1="511.529" y1="130.706" x2="596.148" y2="153.457" gradientUnits="userSpaceOnUse">
<stop stop-color="#FD5A14"/>
<stop offset="0.609375" stop-color="#FFF06B" stop-opacity="0.59"/>
<stop offset="1" stop-color="#060ED0" stop-opacity="0.28"/>
</linearGradient>
<clipPath id="clip0_354_1892">
<rect width="110.204" height="96.3044" fill="white" transform="translate(119.456 329.527)"/>
</clipPath>
<clipPath id="clip1_354_1892">
<rect width="68.546" height="59.5697" fill="white" transform="translate(190.918 396.047)"/>
</clipPath>
<clipPath id="clip2_354_1892">
<rect width="96.3044" height="96.3044" fill="white" transform="translate(550.419 399.026)"/>
</clipPath>
<clipPath id="clip3_354_1892">
<rect width="63.5411" height="63.5411" fill="white" transform="translate(539.001 385.126)"/>
</clipPath>
<clipPath id="clip4_354_1892">
<rect width="138.996" height="116.161" fill="white" transform="translate(36.7163 46.6462)"/>
</clipPath>
<clipPath id="clip5_354_1892">
<rect width="79.4263" height="79.4263" fill="white" transform="translate(121.603 118.513)"/>
</clipPath>
<clipPath id="clip6_354_1892">
<rect width="129.068" height="116.161" fill="white" transform="translate(428.958 170.055)"/>
</clipPath>
</defs>
</svg>
